<?xml version="1.0" encoding="UTF-8" standalone="yes"?>
<svg xmlns="http://www.w3.org/2000/svg" xmlns:xlink="http://www.w3.org/1999/xlink" width="557.387px" height="422.808px" version="1.1" viewBox="-263.521 663.685 278.694 211.404">
  <!--
	Exported with Concepts: Smarter Sketching
	Version: 3410 on iOS 18.1
	https://concepts.app/
	-->
  <title>205C1A4C-58E2-4EA0-A02E-A01C62EFA89F</title>
  <desc>Drawing exported from Concepts: Smarter Sketching</desc>
  <defs></defs>
  <g id="Pen" opacity="1.000">
    <path id="STROKE_7dfc1cac-0118-4f7b-b51e-de61f27b44ab" opacity="1.000" fill="none" stroke="#f6ffd2" stroke-width="nan" stroke-opacity="nan" stroke-linecap="round" stroke-linejoin="round" d="M -192.000 832.000 L -192.000 832.000 "></path>
    <path id="STROKE_e8c76add-07ae-437f-b2b5-c7c994f40962" opacity="1.000" fill="none" stroke="#f6ffd2" stroke-width="nan" stroke-opacity="nan" stroke-linecap="round" stroke-linejoin="round" d="M -128.000 768.000 L -128.000 768.000 "></path>
    <path id="STROKE_bd1e3e95-b0a9-49c8-9b6b-c2fb9cb0ed9f" opacity="1.000" fill="none" stroke="#f6ffd2" stroke-width="nan" stroke-opacity="nan" stroke-linecap="round" stroke-linejoin="round" d="M -160.000 672.000 L -160.000 672.000 "></path>
    <path id="STROKE_16f37e85-bbcf-4b91-a6fe-7afc2ab253ff" opacity="1.000" fill="none" stroke="#f6ffd2" stroke-width="2.048" stroke-opacity="1.000" stroke-linecap="round" stroke-linejoin="round" d="M -192.046 827.941 Q -192.000 827.940 -191.954 827.941 Q -191.907 827.942 -191.861 827.943 Q -191.814 827.945 -191.768 827.947 Q -191.722 827.950 -191.675 827.953 Q -191.629 827.957 -191.583 827.962 Q -191.537 827.966 -191.491 827.972 Q -191.445 827.978 -191.399 827.984 Q -191.353 827.991 -191.307 827.999 Q -191.261 828.007 -191.216 828.015 Q -191.170 828.024 -191.125 828.034 Q -191.080 828.044 -191.035 828.055 Q -190.989 828.065 -190.945 828.077 Q -190.900 828.089 -190.855 828.102 Q -190.811 828.114 -190.766 828.128 Q -190.722 828.142 -190.678 828.157 Q -190.634 828.172 -190.591 828.187 Q -190.547 828.203 -190.504 828.220 Q -190.461 828.236 -190.418 828.254 Q -190.375 828.272 -190.333 828.290 Q -190.290 828.309 -190.248 828.329 Q -190.206 828.348 -190.165 828.369 Q -190.123 828.389 -190.082 828.411 Q -190.041 828.432 -190.001 828.454 Q -189.960 828.477 -189.920 828.500 Q -189.880 828.523 -189.840 828.547 Q -189.801 828.571 -189.762 828.596 Q -189.723 828.621 -189.685 828.647 Q -189.647 828.673 -189.609 828.700 Q -189.571 828.727 -189.534 828.754 Q -189.497 828.782 -189.460 828.810 Q -189.424 828.839 -189.388 828.868 Q -189.352 828.897 -189.317 828.927 Q -189.282 828.957 -189.248 828.987 Q -189.213 829.018 -189.179 829.050 Q -189.146 829.081 -189.113 829.114 Q -189.080 829.146 -189.047 829.179 Q -189.015 829.212 -188.984 829.245 Q -188.952 829.279 -188.921 829.314 Q -188.891 829.348 -188.861 829.383 Q -188.831 829.418 -188.802 829.454 Q -188.773 829.489 -188.744 829.526 Q -188.716 829.562 -188.689 829.599 Q -188.661 829.636 -188.635 829.674 Q -188.608 829.711 -188.582 829.750 Q -188.557 829.788 -188.532 829.826 Q -188.507 829.865 -188.483 829.905 Q -188.459 829.944 -188.436 829.984 Q -188.413 830.023 -188.391 830.064 Q -188.369 830.104 -188.347 830.145 Q -188.326 830.186 -188.306 830.227 Q -188.286 830.268 -188.266 830.310 Q -188.247 830.352 -188.229 830.394 Q -188.210 830.436 -188.193 830.478 Q -188.175 830.521 -188.159 830.564 Q -188.143 830.607 -188.127 830.650 Q -188.112 830.693 -188.097 830.737 Q -188.083 830.781 -188.069 830.824 Q -188.056 830.868 -188.044 830.913 Q -188.031 830.957 -188.020 831.001 Q -188.008 831.046 -187.998 831.090 Q -187.987 831.135 -187.978 831.180 Q -187.969 831.225 -187.960 831.270 Q -187.952 831.315 -187.945 831.360 Q -187.937 831.406 -187.931 831.451 Q -187.925 831.497 -187.920 831.542 Q -187.914 831.588 -187.910 831.633 Q -187.906 831.679 -187.903 831.725 Q -187.900 831.771 -187.898 831.817 Q -187.896 831.862 -187.895 831.908 Q -187.893 831.954 -187.893 832.000 Q -187.893 832.046 -187.895 832.092 Q -187.896 832.138 -187.898 832.183 Q -187.900 832.229 -187.903 832.275 Q -187.906 832.321 -187.910 832.366 Q -187.914 832.412 -187.920 832.458 Q -187.925 832.503 -187.931 832.549 Q -187.937 832.594 -187.945 832.640 Q -187.952 832.685 -187.960 832.730 Q -187.969 832.775 -187.978 832.820 Q -187.987 832.865 -187.998 832.910 Q -188.008 832.954 -188.020 832.999 Q -188.031 833.043 -188.044 833.088 Q -188.056 833.132 -188.069 833.176 Q -188.083 833.219 -188.097 833.263 Q -188.112 833.307 -188.127 833.350 Q -188.143 833.393 -188.159 833.436 Q -188.175 833.479 -188.193 833.522 Q -188.210 833.564 -188.229 833.606 Q -188.247 833.648 -188.266 833.690 Q -188.286 833.732 -188.306 833.773 Q -188.326 833.814 -188.347 833.855 Q -188.369 833.896 -188.391 833.936 Q -188.413 833.977 -188.436 834.016 Q -188.459 834.056 -188.483 834.096 Q -188.507 834.135 -188.532 834.174 Q -188.557 834.212 -188.582 834.250 Q -188.608 834.289 -188.635 834.326 Q -188.661 834.364 -188.689 834.401 Q -188.716 834.438 -188.744 834.474 Q -188.773 834.510 -188.802 834.546 Q -188.831 834.582 -188.861 834.617 Q -188.891 834.652 -188.921 834.687 Q -188.952 834.721 -188.984 834.755 Q -189.015 834.788 -189.047 834.821 Q -189.080 834.854 -189.113 834.887 Q -189.146 834.919 -189.179 834.950 Q -189.213 834.982 -189.248 835.013 Q -189.282 835.043 -189.317 835.073 Q -189.352 835.103 -189.388 835.132 Q -189.424 835.162 -189.460 835.190 Q -189.497 835.218 -189.534 835.246 Q -189.571 835.273 -189.609 835.300 Q -189.647 835.327 -189.685 835.353 Q -189.723 835.379 -189.762 835.404 Q -189.801 835.429 -189.840 835.453 Q -189.880 835.477 -189.920 835.500 Q -189.960 835.523 -190.001 835.546 Q -190.041 835.568 -190.082 835.589 Q -190.123 835.611 -190.165 835.631 Q -190.206 835.652 -190.248 835.671 Q -190.290 835.691 -190.333 835.710 Q -190.375 835.728 -190.418 835.746 Q -190.461 835.764 -190.504 835.780 Q -190.547 835.797 -190.591 835.813 Q -190.634 835.828 -190.678 835.843 Q -190.722 835.858 -190.766 835.872 Q -190.811 835.886 -190.855 835.898 Q -190.900 835.911 -190.945 835.923 Q -190.989 835.935 -191.035 835.946 Q -191.080 835.956 -191.125 835.966 Q -191.170 835.976 -191.216 835.985 Q -191.261 835.993 -191.307 836.001 Q -191.353 836.009 -191.399 836.016 Q -191.445 836.022 -191.491 836.028 Q -191.537 836.034 -191.583 836.038 Q -191.629 836.043 -191.675 836.047 Q -191.722 836.050 -191.768 836.053 Q -191.814 836.055 -191.861 836.057 Q -191.907 836.058 -191.954 836.059 Q -192.000 836.060 -192.046 836.059 Q -192.093 836.059 -192.139 836.057 Q -192.186 836.055 -192.232 836.053 Q -192.278 836.050 -192.324 836.047 Q -192.371 836.043 -192.417 836.038 Q -192.463 836.034 -192.509 836.028 Q -192.555 836.022 -192.601 836.016 Q -192.647 836.009 -192.693 836.001 Q -192.738 835.993 -192.784 835.985 Q -192.830 835.976 -192.875 835.966 Q -192.920 835.956 -192.965 835.946 Q -193.010 835.935 -193.055 835.923 Q -193.100 835.911 -193.145 835.898 Q -193.189 835.886 -193.234 835.872 Q -193.278 835.858 -193.322 835.843 Q -193.366 835.829 -193.409 835.813 Q -193.453 835.797 -193.496 835.780 Q -193.539 835.764 -193.582 835.746 Q -193.625 835.728 -193.667 835.710 Q -193.710 835.691 -193.752 835.671 Q -193.794 835.652 -193.835 835.631 Q -193.877 835.611 -193.918 835.589 Q -193.959 835.568 -193.999 835.546 Q -194.040 835.523 -194.080 835.500 Q -194.120 835.477 -194.159 835.453 Q -194.199 835.429 -194.238 835.404 Q -194.277 835.379 -194.315 835.353 Q -194.353 835.327 -194.391 835.300 Q -194.429 835.273 -194.466 835.246 Q -194.503 835.218 -194.540 835.190 Q -194.576 835.162 -194.612 835.132 Q -194.648 835.103 -194.683 835.073 Q -194.718 835.043 -194.752 835.013 Q -194.787 834.982 -194.821 834.950 Q -194.854 834.919 -194.887 834.886 Q -194.920 834.854 -194.953 834.821 Q -194.985 834.788 -195.016 834.755 Q -195.048 834.721 -195.078 834.687 Q -195.109 834.652 -195.139 834.617 Q -195.169 834.582 -195.198 834.546 Q -195.227 834.511 -195.256 834.474 Q -195.284 834.438 -195.311 834.401 Q -195.339 834.364 -195.365 834.326 Q -195.392 834.289 -195.418 834.250 Q -195.443 834.212 -195.468 834.174 Q -195.493 834.135 -195.517 834.096 Q -195.541 834.056 -195.564 834.016 Q -195.587 833.977 -195.609 833.936 Q -195.631 833.896 -195.653 833.855 Q -195.674 833.814 -195.694 833.773 Q -195.714 833.732 -195.734 833.690 Q -195.753 833.648 -195.771 833.606 Q -195.790 833.564 -195.807 833.522 Q -195.824 833.479 -195.841 833.436 Q -195.857 833.393 -195.873 833.350 Q -195.888 833.307 -195.903 833.263 Q -195.917 833.220 -195.931 833.176 Q -195.944 833.132 -195.956 833.088 Q -195.969 833.043 -195.980 832.999 Q -195.992 832.954 -196.002 832.910 Q -196.012 832.865 -196.022 832.820 Q -196.031 832.775 -196.040 832.730 Q -196.048 832.685 -196.055 832.640 Q -196.063 832.594 -196.069 832.549 Q -196.075 832.503 -196.080 832.458 Q -196.086 832.412 -196.090 832.366 Q -196.094 832.321 -196.097 832.275 Q -196.100 832.229 -196.102 832.183 Q -196.104 832.138 -196.105 832.092 Q -196.107 832.046 -196.107 832.000 Q -196.107 831.954 -196.105 831.908 Q -196.104 831.862 -196.102 831.817 Q -196.100 831.771 -196.097 831.725 Q -196.094 831.679 -196.090 831.633 Q -196.086 831.588 -196.080 831.542 Q -196.075 831.497 -196.069 831.451 Q -196.063 831.406 -196.055 831.360 Q -196.048 831.315 -196.040 831.270 Q -196.031 831.225 -196.022 831.180 Q -196.012 831.135 -196.002 831.090 Q -195.992 831.046 -195.980 831.001 Q -195.969 830.957 -195.956 830.912 Q -195.944 830.868 -195.931 830.824 Q -195.917 830.780 -195.903 830.737 Q -195.888 830.693 -195.873 830.650 Q -195.857 830.607 -195.841 830.564 Q -195.824 830.521 -195.807 830.478 Q -195.790 830.436 -195.771 830.394 Q -195.753 830.352 -195.734 830.310 Q -195.714 830.268 -195.694 830.227 Q -195.674 830.186 -195.653 830.145 Q -195.631 830.104 -195.609 830.064 Q -195.587 830.023 -195.564 829.984 Q -195.541 829.944 -195.517 829.904 Q -195.493 829.865 -195.468 829.826 Q -195.443 829.788 -195.418 829.750 Q -195.392 829.711 -195.365 829.674 Q -195.339 829.636 -195.311 829.599 Q -195.284 829.562 -195.256 829.526 Q -195.227 829.489 -195.198 829.454 Q -195.169 829.418 -195.139 829.383 Q -195.109 829.348 -195.078 829.313 Q -195.048 829.279 -195.016 829.245 Q -194.985 829.212 -194.952 829.179 Q -194.920 829.146 -194.887 829.113 Q -194.854 829.081 -194.821 829.050 Q -194.787 829.018 -194.752 828.987 Q -194.718 828.957 -194.683 828.927 Q -194.648 828.897 -194.612 828.868 Q -194.576 828.838 -194.540 828.810 Q -194.503 828.782 -194.466 828.754 Q -194.429 828.727 -194.391 828.700 Q -194.353 828.673 -194.315 828.647 Q -194.277 828.621 -194.238 828.596 Q -194.199 828.571 -194.159 828.547 Q -194.120 828.523 -194.080 828.500 Q -194.040 828.477 -193.999 828.454 Q -193.959 828.432 -193.918 828.411 Q -193.877 828.389 -193.835 828.369 Q -193.794 828.348 -193.752 828.329 Q -193.710 828.309 -193.667 828.290 Q -193.625 828.272 -193.582 828.254 Q -193.539 828.236 -193.496 828.220 Q -193.453 828.203 -193.409 828.187 Q -193.366 828.172 -193.322 828.157 Q -193.278 828.142 -193.234 828.128 Q -193.189 828.114 -193.145 828.102 Q -193.100 828.089 -193.055 828.077 Q -193.010 828.065 -192.965 828.055 Q -192.920 828.044 -192.875 828.034 Q -192.830 828.024 -192.784 828.015 Q -192.738 828.007 -192.693 827.999 Q -192.647 827.991 -192.601 827.984 Q -192.555 827.978 -192.509 827.972 Q -192.463 827.966 -192.417 827.962 Q -192.371 827.957 -192.324 827.953 Q -192.278 827.950 -192.232 827.947 Q -192.185 827.945 -192.139 827.943 Q -192.093 827.942 -192.046 827.941 Z"></path>
    <path id="STROKE_1ab631ff-30c1-4e08-aa34-83d3eea4edf6" opacity="1.000" fill="none" stroke="#f6ffd2" stroke-width="nan" stroke-opacity="nan" stroke-linecap="round" stroke-linejoin="round" d="M -128.000 768.000 L -128.000 768.000 "></path>
    <path id="STROKE_d393604c-180e-458b-8a9e-35f2d9446d0a" opacity="1.000" fill="none" stroke="#f6ffd2" stroke-width="2.048" stroke-opacity="1.000" stroke-linecap="round" stroke-linejoin="round" d="M -128.046 763.941 Q -128.000 763.940 -127.954 763.941 Q -127.907 763.942 -127.861 763.943 Q -127.814 763.945 -127.768 763.947 Q -127.722 763.950 -127.676 763.953 Q -127.629 763.957 -127.583 763.962 Q -127.537 763.966 -127.491 763.972 Q -127.445 763.978 -127.399 763.984 Q -127.353 763.991 -127.307 763.999 Q -127.262 764.007 -127.216 764.015 Q -127.170 764.024 -127.125 764.034 Q -127.080 764.044 -127.035 764.054 Q -126.990 764.065 -126.945 764.077 Q -126.900 764.089 -126.855 764.102 Q -126.811 764.114 -126.766 764.128 Q -126.722 764.142 -126.678 764.157 Q -126.634 764.172 -126.591 764.187 Q -126.547 764.203 -126.504 764.220 Q -126.461 764.236 -126.418 764.254 Q -126.375 764.272 -126.333 764.290 Q -126.290 764.309 -126.248 764.329 Q -126.206 764.348 -126.165 764.369 Q -126.123 764.389 -126.082 764.411 Q -126.041 764.432 -126.001 764.454 Q -125.960 764.477 -125.920 764.500 Q -125.880 764.523 -125.841 764.547 Q -125.801 764.571 -125.762 764.596 Q -125.723 764.621 -125.685 764.647 Q -125.647 764.673 -125.609 764.700 Q -125.571 764.727 -125.534 764.754 Q -125.497 764.782 -125.460 764.810 Q -125.424 764.839 -125.388 764.868 Q -125.352 764.897 -125.317 764.927 Q -125.282 764.957 -125.248 764.987 Q -125.213 765.018 -125.179 765.050 Q -125.146 765.081 -125.113 765.113 Q -125.080 765.146 -125.047 765.179 Q -125.015 765.212 -124.984 765.245 Q -124.952 765.279 -124.922 765.313 Q -124.891 765.348 -124.861 765.383 Q -124.831 765.418 -124.802 765.454 Q -124.773 765.490 -124.744 765.526 Q -124.716 765.562 -124.689 765.599 Q -124.661 765.636 -124.635 765.674 Q -124.608 765.711 -124.582 765.750 Q -124.557 765.788 -124.532 765.826 Q -124.507 765.865 -124.483 765.904 Q -124.459 765.944 -124.436 765.984 Q -124.413 766.023 -124.391 766.064 Q -124.369 766.104 -124.347 766.145 Q -124.326 766.186 -124.306 766.227 Q -124.286 766.268 -124.266 766.310 Q -124.247 766.352 -124.229 766.394 Q -124.210 766.436 -124.193 766.479 Q -124.176 766.521 -124.159 766.564 Q -124.143 766.607 -124.127 766.650 Q -124.112 766.693 -124.097 766.737 Q -124.083 766.781 -124.069 766.824 Q -124.056 766.868 -124.044 766.913 Q -124.031 766.957 -124.020 767.001 Q -124.008 767.046 -123.998 767.090 Q -123.988 767.135 -123.978 767.180 Q -123.969 767.225 -123.960 767.270 Q -123.952 767.315 -123.945 767.360 Q -123.937 767.406 -123.931 767.451 Q -123.925 767.497 -123.920 767.542 Q -123.914 767.588 -123.910 767.634 Q -123.906 767.679 -123.903 767.725 Q -123.900 767.771 -123.898 767.817 Q -123.896 767.862 -123.895 767.908 Q -123.893 767.954 -123.893 768.000 Q -123.893 768.046 -123.895 768.092 Q -123.896 768.138 -123.898 768.183 Q -123.900 768.229 -123.903 768.275 Q -123.906 768.321 -123.910 768.366 Q -123.914 768.412 -123.920 768.458 Q -123.925 768.503 -123.931 768.549 Q -123.937 768.594 -123.945 768.640 Q -123.952 768.685 -123.960 768.730 Q -123.969 768.775 -123.978 768.820 Q -123.988 768.865 -123.998 768.910 Q -124.008 768.954 -124.020 768.999 Q -124.031 769.043 -124.044 769.088 Q -124.056 769.132 -124.069 769.176 Q -124.083 769.220 -124.097 769.263 Q -124.112 769.307 -124.127 769.350 Q -124.143 769.393 -124.159 769.436 Q -124.175 769.479 -124.193 769.522 Q -124.210 769.564 -124.229 769.606 Q -124.247 769.648 -124.266 769.690 Q -124.286 769.732 -124.306 769.773 Q -124.326 769.814 -124.347 769.855 Q -124.369 769.896 -124.391 769.936 Q -124.413 769.977 -124.436 770.016 Q -124.459 770.056 -124.483 770.095 Q -124.507 770.135 -124.532 770.174 Q -124.557 770.212 -124.582 770.250 Q -124.608 770.289 -124.635 770.326 Q -124.661 770.364 -124.689 770.401 Q -124.716 770.438 -124.744 770.474 Q -124.773 770.510 -124.802 770.546 Q -124.831 770.582 -124.861 770.617 Q -124.891 770.652 -124.922 770.687 Q -124.952 770.721 -124.984 770.755 Q -125.015 770.788 -125.047 770.821 Q -125.080 770.854 -125.113 770.887 Q -125.146 770.919 -125.179 770.950 Q -125.213 770.982 -125.248 771.013 Q -125.282 771.043 -125.317 771.073 Q -125.352 771.103 -125.388 771.132 Q -125.424 771.162 -125.460 771.190 Q -125.497 771.218 -125.534 771.246 Q -125.571 771.273 -125.609 771.300 Q -125.647 771.327 -125.685 771.353 Q -125.723 771.379 -125.762 771.404 Q -125.801 771.429 -125.841 771.453 Q -125.880 771.477 -125.920 771.500 Q -125.960 771.523 -126.001 771.546 Q -126.041 771.568 -126.082 771.589 Q -126.123 771.611 -126.165 771.631 Q -126.206 771.652 -126.248 771.671 Q -126.290 771.691 -126.333 771.710 Q -126.375 771.728 -126.418 771.746 Q -126.461 771.764 -126.504 771.780 Q -126.547 771.797 -126.591 771.813 Q -126.634 771.828 -126.678 771.843 Q -126.722 771.858 -126.766 771.872 Q -126.811 771.886 -126.855 771.898 Q -126.900 771.911 -126.945 771.923 Q -126.989 771.935 -127.035 771.946 Q -127.080 771.956 -127.125 771.966 Q -127.170 771.976 -127.216 771.985 Q -127.261 771.993 -127.307 772.001 Q -127.353 772.009 -127.399 772.016 Q -127.445 772.022 -127.491 772.028 Q -127.537 772.034 -127.583 772.038 Q -127.629 772.043 -127.675 772.047 Q -127.722 772.050 -127.768 772.053 Q -127.814 772.055 -127.861 772.057 Q -127.907 772.058 -127.954 772.059 Q -128.000 772.060 -128.046 772.059 Q -128.093 772.058 -128.139 772.057 Q -128.186 772.055 -128.232 772.053 Q -128.278 772.050 -128.325 772.047 Q -128.371 772.043 -128.417 772.038 Q -128.463 772.034 -128.509 772.028 Q -128.555 772.022 -128.601 772.016 Q -128.647 772.009 -128.693 772.001 Q -128.739 771.993 -128.784 771.985 Q -128.830 771.976 -128.875 771.966 Q -128.920 771.956 -128.965 771.946 Q -129.011 771.935 -129.055 771.923 Q -129.100 771.911 -129.145 771.898 Q -129.189 771.886 -129.234 771.872 Q -129.278 771.858 -129.322 771.843 Q -129.366 771.828 -129.409 771.813 Q -129.453 771.797 -129.496 771.780 Q -129.539 771.764 -129.582 771.746 Q -129.625 771.728 -129.667 771.710 Q -129.710 771.691 -129.752 771.671 Q -129.794 771.652 -129.835 771.631 Q -129.877 771.611 -129.918 771.589 Q -129.959 771.568 -129.999 771.546 Q -130.040 771.523 -130.080 771.500 Q -130.120 771.477 -130.159 771.453 Q -130.199 771.429 -130.238 771.404 Q -130.277 771.379 -130.315 771.353 Q -130.353 771.327 -130.391 771.300 Q -130.429 771.273 -130.466 771.246 Q -130.503 771.218 -130.540 771.190 Q -130.576 771.162 -130.612 771.132 Q -130.648 771.103 -130.683 771.073 Q -130.718 771.043 -130.752 771.013 Q -130.787 770.982 -130.821 770.950 Q -130.854 770.919 -130.887 770.886 Q -130.920 770.854 -130.953 770.821 Q -130.985 770.788 -131.016 770.755 Q -131.048 770.721 -131.079 770.687 Q -131.109 770.652 -131.139 770.617 Q -131.169 770.582 -131.198 770.546 Q -131.227 770.510 -131.256 770.474 Q -131.284 770.438 -131.311 770.401 Q -131.339 770.364 -131.365 770.326 Q -131.392 770.289 -131.418 770.250 Q -131.443 770.212 -131.468 770.174 Q -131.493 770.135 -131.517 770.095 Q -131.541 770.056 -131.564 770.016 Q -131.587 769.977 -131.609 769.936 Q -131.631 769.896 -131.653 769.855 Q -131.674 769.814 -131.694 769.773 Q -131.714 769.732 -131.734 769.690 Q -131.753 769.648 -131.771 769.606 Q -131.790 769.564 -131.807 769.522 Q -131.825 769.479 -131.841 769.436 Q -131.857 769.393 -131.873 769.350 Q -131.888 769.307 -131.903 769.263 Q -131.917 769.220 -131.931 769.176 Q -131.944 769.132 -131.956 769.088 Q -131.969 769.043 -131.980 768.999 Q -131.992 768.954 -132.002 768.910 Q -132.013 768.865 -132.022 768.820 Q -132.031 768.775 -132.040 768.730 Q -132.048 768.685 -132.055 768.640 Q -132.063 768.594 -132.069 768.549 Q -132.075 768.503 -132.080 768.458 Q -132.086 768.412 -132.090 768.366 Q -132.094 768.321 -132.097 768.275 Q -132.100 768.229 -132.102 768.183 Q -132.104 768.138 -132.105 768.092 Q -132.107 768.046 -132.107 768.000 Q -132.107 767.954 -132.105 767.908 Q -132.104 767.862 -132.102 767.817 Q -132.100 767.771 -132.097 767.725 Q -132.094 767.679 -132.090 767.633 Q -132.086 767.588 -132.080 767.542 Q -132.075 767.497 -132.069 767.451 Q -132.063 767.406 -132.055 767.360 Q -132.048 767.315 -132.040 767.270 Q -132.031 767.225 -132.022 767.180 Q -132.012 767.135 -132.002 767.090 Q -131.992 767.046 -131.980 767.001 Q -131.969 766.957 -131.956 766.912 Q -131.944 766.868 -131.931 766.824 Q -131.917 766.780 -131.903 766.737 Q -131.888 766.693 -131.873 766.650 Q -131.857 766.607 -131.841 766.564 Q -131.825 766.521 -131.807 766.478 Q -131.790 766.436 -131.771 766.394 Q -131.753 766.352 -131.734 766.310 Q -131.714 766.268 -131.694 766.227 Q -131.674 766.186 -131.653 766.145 Q -131.631 766.104 -131.609 766.064 Q -131.587 766.023 -131.564 765.984 Q -131.541 765.944 -131.517 765.904 Q -131.493 765.865 -131.468 765.826 Q -131.443 765.788 -131.418 765.750 Q -131.392 765.711 -131.365 765.674 Q -131.339 765.636 -131.311 765.599 Q -131.284 765.562 -131.256 765.526 Q -131.227 765.489 -131.198 765.454 Q -131.169 765.418 -131.139 765.383 Q -131.109 765.348 -131.078 765.313 Q -131.048 765.279 -131.016 765.245 Q -130.985 765.212 -130.953 765.179 Q -130.920 765.146 -130.887 765.113 Q -130.854 765.081 -130.821 765.050 Q -130.787 765.018 -130.752 764.987 Q -130.718 764.957 -130.683 764.927 Q -130.648 764.897 -130.612 764.868 Q -130.576 764.838 -130.540 764.810 Q -130.503 764.782 -130.466 764.754 Q -130.429 764.727 -130.391 764.700 Q -130.353 764.673 -130.315 764.647 Q -130.277 764.621 -130.238 764.596 Q -130.199 764.571 -130.159 764.547 Q -130.120 764.523 -130.080 764.500 Q -130.040 764.477 -129.999 764.454 Q -129.959 764.432 -129.918 764.411 Q -129.877 764.389 -129.835 764.369 Q -129.794 764.348 -129.752 764.329 Q -129.710 764.309 -129.667 764.290 Q -129.625 764.272 -129.582 764.254 Q -129.539 764.236 -129.496 764.220 Q -129.453 764.203 -129.409 764.187 Q -129.366 764.172 -129.322 764.157 Q -129.278 764.142 -129.234 764.128 Q -129.189 764.114 -129.145 764.102 Q -129.100 764.089 -129.055 764.077 Q -129.010 764.065 -128.965 764.054 Q -128.920 764.044 -128.875 764.034 Q -128.830 764.024 -128.784 764.015 Q -128.738 764.007 -128.693 763.999 Q -128.647 763.991 -128.601 763.984 Q -128.555 763.978 -128.509 763.972 Q -128.463 763.966 -128.417 763.962 Q -128.371 763.957 -128.324 763.953 Q -128.278 763.950 -128.232 763.947 Q -128.186 763.945 -128.139 763.943 Q -128.093 763.942 -128.046 763.941 Z"></path>
    <path id="STROKE_1fcd1cba-fa24-41be-93f5-4b584c1555c7" opacity="1.000" fill="none" stroke="#f6ffd2" stroke-width="nan" stroke-opacity="nan" stroke-linecap="round" stroke-linejoin="round" d="M 6.810 866.773 L 6.810 866.773 "></path>
    <path id="STROKE_ddb958b9-290d-4068-8887-f6715471aaad" opacity="1.000" fill="none" stroke="#f6ffd2" stroke-width="2.048" stroke-opacity="1.000" stroke-linecap="round" stroke-linejoin="round" d="M 6.764 862.714 Q 6.810 862.714 6.856 862.714 Q 6.903 862.715 6.949 862.716 Q 6.996 862.718 7.042 862.721 Q 7.088 862.723 7.135 862.727 Q 7.181 862.730 7.227 862.735 Q 7.273 862.740 7.319 862.745 Q 7.365 862.751 7.411 862.758 Q 7.457 862.765 7.503 862.772 Q 7.549 862.780 7.594 862.789 Q 7.640 862.798 7.685 862.807 Q 7.730 862.817 7.775 862.828 Q 7.821 862.839 7.865 862.851 Q 7.910 862.862 7.955 862.875 Q 7.999 862.888 8.044 862.902 Q 8.088 862.915 8.132 862.930 Q 8.176 862.945 8.219 862.961 Q 8.263 862.977 8.306 862.993 Q 8.349 863.010 8.392 863.027 Q 8.435 863.045 8.478 863.064 Q 8.520 863.082 8.562 863.102 Q 8.604 863.122 8.645 863.142 Q 8.687 863.163 8.728 863.184 Q 8.769 863.205 8.810 863.228 Q 8.850 863.250 8.890 863.273 Q 8.930 863.297 8.970 863.321 Q 9.009 863.345 9.048 863.370 Q 9.087 863.395 9.125 863.421 Q 9.164 863.447 9.201 863.473 Q 9.239 863.500 9.276 863.528 Q 9.313 863.555 9.350 863.583 Q 9.386 863.612 9.422 863.641 Q 9.458 863.670 9.493 863.700 Q 9.528 863.730 9.562 863.761 Q 9.597 863.792 9.631 863.823 Q 9.664 863.855 9.697 863.887 Q 9.730 863.919 9.763 863.952 Q 9.795 863.985 9.826 864.019 Q 9.858 864.053 9.889 864.087 Q 9.919 864.121 9.949 864.156 Q 9.979 864.191 10.008 864.227 Q 10.037 864.263 10.066 864.299 Q 10.094 864.336 10.121 864.373 Q 10.149 864.410 10.175 864.447 Q 10.202 864.485 10.228 864.523 Q 10.253 864.561 10.278 864.600 Q 10.303 864.639 10.327 864.678 Q 10.351 864.717 10.374 864.757 Q 10.397 864.797 10.419 864.837 Q 10.441 864.878 10.463 864.918 Q 10.484 864.959 10.504 865.000 Q 10.524 865.042 10.544 865.083 Q 10.563 865.125 10.581 865.167 Q 10.600 865.209 10.617 865.252 Q 10.635 865.294 10.651 865.337 Q 10.667 865.380 10.683 865.423 Q 10.698 865.467 10.713 865.510 Q 10.727 865.554 10.741 865.598 Q 10.754 865.642 10.767 865.686 Q 10.779 865.730 10.790 865.775 Q 10.802 865.819 10.812 865.864 Q 10.823 865.909 10.832 865.953 Q 10.841 865.998 10.850 866.043 Q 10.858 866.089 10.865 866.134 Q 10.873 866.179 10.879 866.225 Q 10.885 866.270 10.890 866.316 Q 10.896 866.361 10.900 866.407 Q 10.904 866.453 10.907 866.498 Q 10.910 866.544 10.912 866.590 Q 10.915 866.636 10.916 866.682 Q 10.917 866.728 10.917 866.773 Q 10.917 866.819 10.916 866.865 Q 10.915 866.911 10.912 866.957 Q 10.910 867.003 10.907 867.048 Q 10.904 867.094 10.900 867.140 Q 10.896 867.186 10.890 867.231 Q 10.885 867.277 10.879 867.322 Q 10.873 867.368 10.865 867.413 Q 10.858 867.458 10.850 867.503 Q 10.841 867.549 10.832 867.594 Q 10.823 867.638 10.812 867.683 Q 10.802 867.728 10.790 867.772 Q 10.779 867.817 10.767 867.861 Q 10.754 867.905 10.741 867.949 Q 10.727 867.993 10.713 868.037 Q 10.698 868.080 10.683 868.123 Q 10.667 868.167 10.651 868.210 Q 10.635 868.253 10.617 868.295 Q 10.600 868.338 10.581 868.380 Q 10.563 868.422 10.544 868.464 Q 10.524 868.505 10.504 868.547 Q 10.484 868.588 10.463 868.629 Q 10.441 868.669 10.419 868.710 Q 10.397 868.750 10.374 868.790 Q 10.351 868.830 10.327 868.869 Q 10.303 868.908 10.278 868.947 Q 10.253 868.986 10.228 869.024 Q 10.202 869.062 10.175 869.100 Q 10.149 869.137 10.121 869.174 Q 10.094 869.211 10.066 869.248 Q 10.037 869.284 10.008 869.320 Q 9.979 869.355 9.949 869.391 Q 9.919 869.426 9.889 869.460 Q 9.858 869.494 9.826 869.528 Q 9.795 869.562 9.763 869.595 Q 9.730 869.628 9.697 869.660 Q 9.664 869.692 9.631 869.724 Q 9.597 869.755 9.562 869.786 Q 9.528 869.817 9.493 869.847 Q 9.458 869.877 9.422 869.906 Q 9.386 869.935 9.350 869.963 Q 9.313 869.992 9.276 870.019 Q 9.239 870.047 9.201 870.074 Q 9.164 870.100 9.125 870.126 Q 9.087 870.152 9.048 870.177 Q 9.009 870.202 8.970 870.226 Q 8.930 870.250 8.890 870.273 Q 8.850 870.297 8.810 870.319 Q 8.769 870.341 8.728 870.363 Q 8.687 870.384 8.645 870.405 Q 8.604 870.425 8.562 870.445 Q 8.520 870.464 8.478 870.483 Q 8.435 870.502 8.392 870.519 Q 8.349 870.537 8.306 870.554 Q 8.263 870.570 8.219 870.586 Q 8.176 870.602 8.132 870.617 Q 8.088 870.631 8.044 870.645 Q 7.999 870.659 7.955 870.672 Q 7.910 870.685 7.865 870.696 Q 7.821 870.708 7.776 870.719 Q 7.730 870.730 7.685 870.740 Q 7.640 870.749 7.594 870.758 Q 7.549 870.767 7.503 870.775 Q 7.457 870.782 7.411 870.789 Q 7.365 870.796 7.319 870.801 Q 7.273 870.807 7.227 870.812 Q 7.181 870.816 7.135 870.820 Q 7.088 870.824 7.042 870.826 Q 6.996 870.829 6.949 870.830 Q 6.903 870.832 6.857 870.832 Q 6.810 870.833 6.764 870.832 Q 6.717 870.832 6.671 870.830 Q 6.625 870.829 6.578 870.826 Q 6.532 870.824 6.486 870.820 Q 6.439 870.816 6.393 870.812 Q 6.347 870.807 6.301 870.801 Q 6.255 870.796 6.209 870.789 Q 6.163 870.782 6.117 870.775 Q 6.072 870.767 6.026 870.758 Q 5.980 870.749 5.935 870.740 Q 5.890 870.730 5.845 870.719 Q 5.800 870.708 5.755 870.696 Q 5.710 870.685 5.665 870.672 Q 5.621 870.659 5.576 870.645 Q 5.532 870.631 5.488 870.617 Q 5.444 870.602 5.401 870.586 Q 5.357 870.570 5.314 870.554 Q 5.271 870.537 5.228 870.519 Q 5.185 870.502 5.143 870.483 Q 5.100 870.464 5.058 870.445 Q 5.016 870.425 4.975 870.405 Q 4.933 870.384 4.892 870.363 Q 4.851 870.341 4.811 870.319 Q 4.770 870.297 4.730 870.273 Q 4.690 870.250 4.651 870.226 Q 4.611 870.202 4.572 870.177 Q 4.533 870.152 4.495 870.126 Q 4.457 870.100 4.419 870.073 Q 4.381 870.047 4.344 870.019 Q 4.307 869.992 4.271 869.963 Q 4.234 869.935 4.198 869.906 Q 4.162 869.877 4.127 869.847 Q 4.092 869.817 4.058 869.786 Q 4.023 869.755 3.990 869.724 Q 3.956 869.692 3.923 869.660 Q 3.890 869.628 3.858 869.595 Q 3.825 869.562 3.794 869.528 Q 3.762 869.494 3.732 869.460 Q 3.701 869.426 3.671 869.391 Q 3.641 869.355 3.612 869.320 Q 3.583 869.284 3.555 869.248 Q 3.526 869.211 3.499 869.174 Q 3.471 869.137 3.445 869.100 Q 3.418 869.062 3.392 869.024 Q 3.367 868.986 3.342 868.947 Q 3.317 868.908 3.293 868.869 Q 3.269 868.830 3.246 868.790 Q 3.223 868.750 3.201 868.710 Q 3.179 868.669 3.157 868.629 Q 3.136 868.588 3.116 868.547 Q 3.096 868.505 3.076 868.464 Q 3.057 868.422 3.039 868.380 Q 3.020 868.338 3.003 868.295 Q 2.986 868.253 2.969 868.210 Q 2.953 868.167 2.937 868.123 Q 2.922 868.080 2.907 868.036 Q 2.893 867.993 2.880 867.949 Q 2.866 867.905 2.854 867.861 Q 2.841 867.817 2.830 867.772 Q 2.818 867.728 2.808 867.683 Q 2.798 867.638 2.788 867.594 Q 2.779 867.549 2.771 867.503 Q 2.762 867.458 2.755 867.413 Q 2.748 867.368 2.741 867.322 Q 2.735 867.277 2.730 867.231 Q 2.725 867.186 2.720 867.140 Q 2.716 867.094 2.713 867.048 Q 2.710 867.003 2.708 866.957 Q 2.706 866.911 2.705 866.865 Q 2.704 866.819 2.704 866.773 Q 2.704 866.727 2.705 866.682 Q 2.706 866.636 2.708 866.590 Q 2.710 866.544 2.713 866.498 Q 2.716 866.453 2.720 866.407 Q 2.725 866.361 2.730 866.316 Q 2.735 866.270 2.741 866.225 Q 2.748 866.179 2.755 866.134 Q 2.762 866.089 2.771 866.043 Q 2.779 865.998 2.788 865.953 Q 2.798 865.908 2.808 865.864 Q 2.818 865.819 2.830 865.775 Q 2.841 865.730 2.854 865.686 Q 2.866 865.642 2.880 865.598 Q 2.893 865.554 2.907 865.510 Q 2.922 865.467 2.937 865.423 Q 2.953 865.380 2.969 865.337 Q 2.986 865.294 3.003 865.252 Q 3.020 865.209 3.039 865.167 Q 3.057 865.125 3.076 865.083 Q 3.096 865.042 3.116 865.000 Q 3.136 864.959 3.158 864.918 Q 3.179 864.878 3.201 864.837 Q 3.223 864.797 3.246 864.757 Q 3.269 864.717 3.293 864.678 Q 3.317 864.639 3.342 864.600 Q 3.367 864.561 3.392 864.523 Q 3.418 864.485 3.445 864.447 Q 3.471 864.410 3.499 864.373 Q 3.526 864.336 3.555 864.299 Q 3.583 864.263 3.612 864.227 Q 3.641 864.191 3.671 864.156 Q 3.701 864.121 3.732 864.087 Q 3.762 864.052 3.794 864.019 Q 3.825 863.985 3.858 863.952 Q 3.890 863.919 3.923 863.887 Q 3.956 863.855 3.990 863.823 Q 4.023 863.792 4.058 863.761 Q 4.092 863.730 4.127 863.700 Q 4.162 863.670 4.198 863.641 Q 4.234 863.612 4.271 863.583 Q 4.307 863.555 4.344 863.527 Q 4.381 863.500 4.419 863.473 Q 4.457 863.446 4.495 863.421 Q 4.533 863.395 4.572 863.370 Q 4.611 863.345 4.651 863.321 Q 4.690 863.297 4.730 863.273 Q 4.770 863.250 4.811 863.228 Q 4.851 863.205 4.892 863.184 Q 4.933 863.163 4.975 863.142 Q 5.016 863.122 5.058 863.102 Q 5.100 863.082 5.143 863.064 Q 5.185 863.045 5.228 863.027 Q 5.271 863.010 5.314 862.993 Q 5.357 862.976 5.401 862.961 Q 5.444 862.945 5.488 862.930 Q 5.532 862.915 5.577 862.902 Q 5.621 862.888 5.665 862.875 Q 5.710 862.862 5.755 862.850 Q 5.800 862.839 5.845 862.828 Q 5.890 862.817 5.935 862.807 Q 5.981 862.798 6.026 862.789 Q 6.072 862.780 6.117 862.772 Q 6.163 862.765 6.209 862.758 Q 6.255 862.751 6.301 862.745 Q 6.347 862.740 6.393 862.735 Q 6.439 862.731 6.486 862.727 Q 6.532 862.723 6.578 862.721 Q 6.625 862.718 6.671 862.717 Q 6.717 862.715 6.764 862.714 Z"></path>
    <path id="STROKE_3fb61883-c2a6-43fc-81e5-d8262069c381" opacity="1.000" fill="none" stroke="#f6ffd2" stroke-width="nan" stroke-opacity="nan" stroke-linecap="round" stroke-linejoin="round" d="M -160.000 672.000 L -160.000 672.000 "></path>
    <path id="STROKE_80ffa555-1499-487e-8cd5-84c6785f22c6" opacity="1.000" fill="none" stroke="#f6ffd2" stroke-width="nan" stroke-opacity="nan" stroke-linecap="round" stroke-linejoin="round" d="M -160.000 672.000 L -160.000 672.000 "></path>
    <path id="STROKE_c2088c4a-8f47-46b2-b30a-9e021fb00af6" opacity="1.000" fill="none" stroke="#f6ffd2" stroke-width="nan" stroke-opacity="nan" stroke-linecap="round" stroke-linejoin="round" d="M -160.000 672.000 L -160.000 672.000 "></path>
    <path id="STROKE_cb7717be-902c-4fc3-827b-8fc67f9bc3d3" opacity="1.000" fill="none" stroke="#f6ffd2" stroke-width="2.048" stroke-opacity="1.000" stroke-linecap="round" stroke-linejoin="round" d="M -160.046 667.941 Q -160.000 667.940 -159.954 667.941 Q -159.907 667.941 -159.861 667.943 Q -159.814 667.945 -159.768 667.947 Q -159.722 667.950 -159.676 667.953 Q -159.629 667.957 -159.583 667.962 Q -159.537 667.966 -159.491 667.972 Q -159.445 667.978 -159.399 667.984 Q -159.353 667.991 -159.307 667.999 Q -159.261 668.007 -159.216 668.015 Q -159.170 668.024 -159.125 668.034 Q -159.080 668.044 -159.035 668.055 Q -158.990 668.065 -158.945 668.077 Q -158.900 668.089 -158.855 668.102 Q -158.811 668.115 -158.766 668.128 Q -158.722 668.142 -158.678 668.157 Q -158.634 668.172 -158.591 668.187 Q -158.547 668.203 -158.504 668.220 Q -158.461 668.236 -158.418 668.254 Q -158.375 668.272 -158.333 668.290 Q -158.290 668.309 -158.248 668.329 Q -158.206 668.348 -158.165 668.369 Q -158.123 668.389 -158.082 668.411 Q -158.041 668.432 -158.001 668.454 Q -157.960 668.477 -157.920 668.500 Q -157.880 668.523 -157.841 668.547 Q -157.801 668.571 -157.762 668.596 Q -157.723 668.621 -157.685 668.647 Q -157.647 668.673 -157.609 668.700 Q -157.571 668.727 -157.534 668.754 Q -157.497 668.782 -157.460 668.810 Q -157.424 668.838 -157.388 668.868 Q -157.352 668.897 -157.317 668.927 Q -157.282 668.957 -157.248 668.987 Q -157.213 669.018 -157.179 669.050 Q -157.146 669.081 -157.113 669.114 Q -157.080 669.146 -157.047 669.179 Q -157.015 669.212 -156.984 669.245 Q -156.952 669.279 -156.922 669.314 Q -156.891 669.348 -156.861 669.383 Q -156.831 669.418 -156.802 669.454 Q -156.773 669.490 -156.744 669.526 Q -156.716 669.562 -156.689 669.599 Q -156.661 669.636 -156.635 669.674 Q -156.608 669.711 -156.582 669.750 Q -156.557 669.788 -156.532 669.826 Q -156.507 669.865 -156.483 669.904 Q -156.459 669.944 -156.436 669.984 Q -156.413 670.023 -156.391 670.064 Q -156.369 670.104 -156.347 670.145 Q -156.326 670.186 -156.306 670.227 Q -156.286 670.268 -156.266 670.310 Q -156.247 670.352 -156.229 670.394 Q -156.210 670.436 -156.193 670.478 Q -156.176 670.521 -156.159 670.564 Q -156.143 670.607 -156.127 670.650 Q -156.112 670.693 -156.097 670.737 Q -156.083 670.781 -156.069 670.824 Q -156.056 670.868 -156.044 670.913 Q -156.031 670.957 -156.020 671.001 Q -156.008 671.046 -155.998 671.090 Q -155.988 671.135 -155.978 671.180 Q -155.969 671.225 -155.960 671.270 Q -155.952 671.315 -155.945 671.360 Q -155.937 671.406 -155.931 671.451 Q -155.925 671.497 -155.920 671.542 Q -155.914 671.588 -155.910 671.634 Q -155.906 671.679 -155.903 671.725 Q -155.900 671.771 -155.898 671.817 Q -155.896 671.862 -155.895 671.908 Q -155.893 671.954 -155.893 672.000 Q -155.893 672.046 -155.895 672.092 Q -155.896 672.138 -155.898 672.183 Q -155.900 672.229 -155.903 672.275 Q -155.906 672.321 -155.910 672.367 Q -155.914 672.412 -155.920 672.458 Q -155.925 672.503 -155.931 672.549 Q -155.937 672.594 -155.945 672.640 Q -155.952 672.685 -155.960 672.730 Q -155.969 672.775 -155.978 672.820 Q -155.988 672.865 -155.998 672.910 Q -156.008 672.954 -156.020 672.999 Q -156.031 673.043 -156.044 673.088 Q -156.056 673.132 -156.069 673.176 Q -156.083 673.220 -156.097 673.263 Q -156.112 673.307 -156.127 673.350 Q -156.143 673.393 -156.159 673.436 Q -156.175 673.479 -156.193 673.522 Q -156.210 673.564 -156.229 673.606 Q -156.247 673.648 -156.266 673.690 Q -156.286 673.732 -156.306 673.773 Q -156.326 673.814 -156.347 673.855 Q -156.369 673.896 -156.391 673.936 Q -156.413 673.977 -156.436 674.016 Q -156.459 674.056 -156.483 674.096 Q -156.507 674.135 -156.532 674.174 Q -156.557 674.212 -156.582 674.250 Q -156.608 674.289 -156.635 674.326 Q -156.661 674.364 -156.689 674.401 Q -156.716 674.438 -156.744 674.474 Q -156.773 674.510 -156.802 674.546 Q -156.831 674.582 -156.861 674.617 Q -156.891 674.652 -156.921 674.687 Q -156.952 674.721 -156.984 674.755 Q -157.015 674.788 -157.047 674.821 Q -157.080 674.854 -157.113 674.887 Q -157.146 674.919 -157.179 674.950 Q -157.213 674.982 -157.248 675.013 Q -157.282 675.043 -157.317 675.073 Q -157.352 675.103 -157.388 675.132 Q -157.424 675.162 -157.460 675.190 Q -157.497 675.218 -157.534 675.246 Q -157.571 675.273 -157.609 675.300 Q -157.647 675.327 -157.685 675.353 Q -157.723 675.379 -157.762 675.404 Q -157.801 675.429 -157.840 675.453 Q -157.880 675.477 -157.920 675.500 Q -157.960 675.523 -158.001 675.546 Q -158.041 675.568 -158.082 675.589 Q -158.123 675.611 -158.165 675.631 Q -158.206 675.652 -158.248 675.671 Q -158.290 675.691 -158.333 675.710 Q -158.375 675.728 -158.418 675.746 Q -158.461 675.764 -158.504 675.780 Q -158.547 675.797 -158.591 675.813 Q -158.634 675.828 -158.678 675.843 Q -158.722 675.858 -158.766 675.872 Q -158.811 675.886 -158.855 675.898 Q -158.900 675.911 -158.945 675.923 Q -158.989 675.935 -159.035 675.946 Q -159.080 675.956 -159.125 675.966 Q -159.170 675.976 -159.216 675.985 Q -159.261 675.993 -159.307 676.001 Q -159.353 676.009 -159.399 676.016 Q -159.445 676.022 -159.491 676.028 Q -159.537 676.034 -159.583 676.038 Q -159.629 676.043 -159.675 676.047 Q -159.722 676.050 -159.768 676.053 Q -159.814 676.055 -159.861 676.057 Q -159.907 676.059 -159.954 676.059 Q -160.000 676.060 -160.046 676.059 Q -160.093 676.059 -160.139 676.057 Q -160.186 676.055 -160.232 676.053 Q -160.278 676.050 -160.324 676.047 Q -160.371 676.043 -160.417 676.038 Q -160.463 676.034 -160.509 676.028 Q -160.555 676.022 -160.601 676.016 Q -160.647 676.009 -160.693 676.001 Q -160.739 675.993 -160.784 675.985 Q -160.830 675.976 -160.875 675.966 Q -160.920 675.956 -160.965 675.946 Q -161.011 675.935 -161.055 675.923 Q -161.100 675.911 -161.145 675.898 Q -161.189 675.886 -161.234 675.872 Q -161.278 675.858 -161.322 675.843 Q -161.366 675.829 -161.409 675.813 Q -161.453 675.797 -161.496 675.780 Q -161.539 675.764 -161.582 675.746 Q -161.625 675.728 -161.667 675.710 Q -161.710 675.691 -161.752 675.671 Q -161.794 675.652 -161.835 675.631 Q -161.877 675.611 -161.918 675.589 Q -161.959 675.568 -161.999 675.546 Q -162.040 675.523 -162.080 675.500 Q -162.120 675.477 -162.159 675.453 Q -162.199 675.429 -162.238 675.404 Q -162.277 675.379 -162.315 675.353 Q -162.353 675.327 -162.391 675.300 Q -162.429 675.273 -162.466 675.246 Q -162.503 675.218 -162.540 675.190 Q -162.576 675.162 -162.612 675.132 Q -162.648 675.103 -162.683 675.073 Q -162.718 675.043 -162.752 675.013 Q -162.787 674.982 -162.821 674.950 Q -162.854 674.919 -162.887 674.886 Q -162.920 674.854 -162.953 674.821 Q -162.985 674.788 -163.016 674.755 Q -163.048 674.721 -163.079 674.687 Q -163.109 674.652 -163.139 674.617 Q -163.169 674.582 -163.198 674.546 Q -163.227 674.511 -163.256 674.474 Q -163.284 674.438 -163.311 674.401 Q -163.339 674.364 -163.365 674.326 Q -163.392 674.289 -163.418 674.250 Q -163.443 674.212 -163.468 674.174 Q -163.493 674.135 -163.517 674.096 Q -163.541 674.056 -163.564 674.016 Q -163.587 673.977 -163.609 673.936 Q -163.631 673.896 -163.653 673.855 Q -163.674 673.814 -163.694 673.773 Q -163.714 673.732 -163.734 673.690 Q -163.753 673.648 -163.771 673.606 Q -163.790 673.564 -163.807 673.522 Q -163.825 673.479 -163.841 673.436 Q -163.857 673.393 -163.873 673.350 Q -163.888 673.307 -163.903 673.263 Q -163.917 673.220 -163.931 673.176 Q -163.944 673.132 -163.956 673.088 Q -163.969 673.043 -163.980 672.999 Q -163.992 672.954 -164.002 672.910 Q -164.013 672.865 -164.022 672.820 Q -164.031 672.775 -164.040 672.730 Q -164.048 672.685 -164.055 672.640 Q -164.063 672.594 -164.069 672.549 Q -164.075 672.503 -164.080 672.458 Q -164.086 672.412 -164.090 672.367 Q -164.094 672.321 -164.097 672.275 Q -164.100 672.229 -164.102 672.183 Q -164.104 672.138 -164.105 672.092 Q -164.107 672.046 -164.107 672.000 Q -164.107 671.954 -164.105 671.908 Q -164.104 671.862 -164.102 671.817 Q -164.100 671.771 -164.097 671.725 Q -164.094 671.679 -164.090 671.633 Q -164.086 671.588 -164.080 671.542 Q -164.075 671.497 -164.069 671.451 Q -164.063 671.406 -164.055 671.360 Q -164.048 671.315 -164.040 671.270 Q -164.031 671.225 -164.022 671.180 Q -164.012 671.135 -164.002 671.090 Q -163.992 671.046 -163.980 671.001 Q -163.969 670.957 -163.956 670.912 Q -163.944 670.868 -163.931 670.824 Q -163.917 670.780 -163.903 670.737 Q -163.888 670.693 -163.873 670.650 Q -163.857 670.607 -163.841 670.564 Q -163.825 670.521 -163.807 670.478 Q -163.790 670.436 -163.771 670.394 Q -163.753 670.352 -163.734 670.310 Q -163.714 670.268 -163.694 670.227 Q -163.674 670.186 -163.653 670.145 Q -163.631 670.104 -163.609 670.064 Q -163.587 670.023 -163.564 669.984 Q -163.541 669.944 -163.517 669.904 Q -163.493 669.865 -163.468 669.826 Q -163.443 669.788 -163.418 669.750 Q -163.392 669.711 -163.365 669.674 Q -163.339 669.636 -163.311 669.599 Q -163.284 669.562 -163.256 669.526 Q -163.227 669.489 -163.198 669.454 Q -163.169 669.418 -163.139 669.383 Q -163.109 669.348 -163.078 669.313 Q -163.048 669.279 -163.016 669.245 Q -162.985 669.212 -162.953 669.179 Q -162.920 669.146 -162.887 669.113 Q -162.854 669.081 -162.821 669.050 Q -162.787 669.018 -162.752 668.987 Q -162.718 668.957 -162.683 668.927 Q -162.648 668.897 -162.612 668.868 Q -162.576 668.838 -162.540 668.810 Q -162.503 668.782 -162.466 668.754 Q -162.429 668.727 -162.391 668.700 Q -162.353 668.673 -162.315 668.647 Q -162.277 668.621 -162.238 668.596 Q -162.199 668.571 -162.159 668.547 Q -162.120 668.523 -162.080 668.500 Q -162.040 668.477 -161.999 668.454 Q -161.959 668.432 -161.918 668.411 Q -161.877 668.389 -161.835 668.369 Q -161.794 668.348 -161.752 668.329 Q -161.710 668.309 -161.667 668.290 Q -161.625 668.272 -161.582 668.254 Q -161.539 668.236 -161.496 668.220 Q -161.453 668.203 -161.409 668.187 Q -161.366 668.172 -161.322 668.157 Q -161.278 668.142 -161.234 668.128 Q -161.189 668.114 -161.145 668.102 Q -161.100 668.089 -161.055 668.077 Q -161.010 668.065 -160.965 668.055 Q -160.920 668.044 -160.875 668.034 Q -160.830 668.024 -160.784 668.015 Q -160.738 668.007 -160.693 667.999 Q -160.647 667.991 -160.601 667.984 Q -160.555 667.978 -160.509 667.972 Q -160.463 667.966 -160.417 667.962 Q -160.371 667.957 -160.324 667.953 Q -160.278 667.950 -160.232 667.947 Q -160.186 667.945 -160.139 667.943 Q -160.093 667.941 -160.046 667.941 Z"></path>
    <path id="STROKE_f611ae27-762a-4949-a1d2-a344a21d6a2b" opacity="1.000" fill="none" stroke="#f6ffd2" stroke-width="nan" stroke-opacity="nan" stroke-linecap="round" stroke-linejoin="round" d="M -255.158 864.598 L -255.158 864.598 "></path>
    <path id="STROKE_3ad2cba3-525e-4ace-bc0c-99eea66f8015" opacity="1.000" fill="none" stroke="#f6ffd2" stroke-width="2.048" stroke-opacity="1.000" stroke-linecap="round" stroke-linejoin="round" d="M -255.205 860.539 Q -255.158 860.538 -255.112 860.539 Q -255.066 860.539 -255.019 860.541 Q -254.973 860.543 -254.927 860.545 Q -254.880 860.548 -254.834 860.551 Q -254.788 860.555 -254.742 860.560 Q -254.695 860.564 -254.649 860.570 Q -254.603 860.576 -254.557 860.582 Q -254.511 860.589 -254.466 860.597 Q -254.420 860.605 -254.374 860.613 Q -254.329 860.622 -254.284 860.632 Q -254.238 860.642 -254.193 860.652 Q -254.148 860.663 -254.103 860.675 Q -254.058 860.687 -254.014 860.700 Q -253.969 860.712 -253.925 860.726 Q -253.881 860.740 -253.837 860.755 Q -253.793 860.770 -253.749 860.785 Q -253.706 860.801 -253.662 860.818 Q -253.619 860.834 -253.576 860.852 Q -253.533 860.870 -253.491 860.888 Q -253.449 860.907 -253.407 860.927 Q -253.365 860.946 -253.323 860.967 Q -253.282 860.987 -253.241 861.009 Q -253.200 861.030 -253.159 861.052 Q -253.118 861.075 -253.078 861.098 Q -253.038 861.121 -252.999 861.145 Q -252.960 861.169 -252.921 861.194 Q -252.882 861.219 -252.843 861.245 Q -252.805 861.271 -252.767 861.298 Q -252.730 861.325 -252.692 861.352 Q -252.655 861.380 -252.619 861.408 Q -252.582 861.436 -252.547 861.466 Q -252.511 861.495 -252.476 861.525 Q -252.441 861.555 -252.406 861.585 Q -252.372 861.616 -252.338 861.648 Q -252.304 861.679 -252.271 861.711 Q -252.238 861.744 -252.206 861.777 Q -252.174 861.810 -252.142 861.843 Q -252.111 861.877 -252.080 861.911 Q -252.049 861.946 -252.019 861.981 Q -251.989 862.016 -251.960 862.052 Q -251.931 862.087 -251.903 862.124 Q -251.875 862.160 -251.847 862.197 Q -251.820 862.234 -251.793 862.272 Q -251.767 862.309 -251.741 862.348 Q -251.715 862.386 -251.690 862.424 Q -251.665 862.463 -251.641 862.503 Q -251.617 862.542 -251.594 862.582 Q -251.571 862.621 -251.549 862.662 Q -251.527 862.702 -251.506 862.743 Q -251.485 862.784 -251.464 862.825 Q -251.444 862.866 -251.425 862.908 Q -251.405 862.950 -251.387 862.992 Q -251.369 863.034 -251.351 863.076 Q -251.334 863.119 -251.318 863.162 Q -251.301 863.205 -251.286 863.248 Q -251.270 863.291 -251.256 863.335 Q -251.241 863.378 -251.228 863.422 Q -251.215 863.466 -251.202 863.510 Q -251.190 863.555 -251.178 863.599 Q -251.167 863.644 -251.156 863.688 Q -251.146 863.733 -251.137 863.778 Q -251.127 863.823 -251.119 863.868 Q -251.111 863.913 -251.103 863.958 Q -251.096 864.004 -251.090 864.049 Q -251.083 864.095 -251.078 864.140 Q -251.073 864.186 -251.069 864.231 Q -251.065 864.277 -251.061 864.323 Q -251.058 864.369 -251.056 864.415 Q -251.054 864.460 -251.053 864.506 Q -251.052 864.552 -251.052 864.598 Q -251.052 864.644 -251.053 864.690 Q -251.054 864.736 -251.056 864.781 Q -251.058 864.827 -251.061 864.873 Q -251.065 864.919 -251.069 864.964 Q -251.073 865.010 -251.078 865.056 Q -251.083 865.101 -251.090 865.147 Q -251.096 865.192 -251.103 865.238 Q -251.111 865.283 -251.119 865.328 Q -251.127 865.373 -251.137 865.418 Q -251.146 865.463 -251.156 865.508 Q -251.167 865.552 -251.178 865.597 Q -251.190 865.641 -251.202 865.685 Q -251.214 865.730 -251.228 865.774 Q -251.241 865.818 -251.256 865.861 Q -251.270 865.905 -251.286 865.948 Q -251.301 865.991 -251.318 866.034 Q -251.334 866.077 -251.351 866.120 Q -251.369 866.162 -251.387 866.204 Q -251.405 866.246 -251.425 866.288 Q -251.444 866.330 -251.464 866.371 Q -251.485 866.412 -251.506 866.453 Q -251.527 866.494 -251.549 866.534 Q -251.571 866.575 -251.594 866.614 Q -251.617 866.654 -251.641 866.694 Q -251.665 866.733 -251.690 866.772 Q -251.715 866.810 -251.741 866.849 Q -251.767 866.887 -251.793 866.924 Q -251.820 866.962 -251.847 866.999 Q -251.875 867.036 -251.903 867.072 Q -251.931 867.109 -251.960 867.144 Q -251.989 867.180 -252.019 867.215 Q -252.049 867.250 -252.080 867.285 Q -252.111 867.319 -252.142 867.353 Q -252.174 867.386 -252.206 867.419 Q -252.238 867.452 -252.271 867.484 Q -252.304 867.517 -252.338 867.548 Q -252.372 867.580 -252.406 867.611 Q -252.441 867.641 -252.476 867.671 Q -252.511 867.701 -252.547 867.730 Q -252.582 867.760 -252.619 867.788 Q -252.655 867.816 -252.692 867.844 Q -252.730 867.871 -252.767 867.898 Q -252.805 867.925 -252.843 867.951 Q -252.882 867.977 -252.921 868.002 Q -252.959 868.026 -252.999 868.051 Q -253.038 868.075 -253.078 868.098 Q -253.118 868.121 -253.159 868.144 Q -253.200 868.166 -253.241 868.187 Q -253.282 868.209 -253.323 868.229 Q -253.365 868.250 -253.407 868.269 Q -253.449 868.289 -253.491 868.308 Q -253.533 868.326 -253.576 868.344 Q -253.619 868.362 -253.662 868.378 Q -253.706 868.395 -253.749 868.411 Q -253.793 868.426 -253.837 868.441 Q -253.881 868.456 -253.925 868.470 Q -253.969 868.484 -254.014 868.496 Q -254.058 868.509 -254.103 868.521 Q -254.148 868.533 -254.193 868.544 Q -254.238 868.554 -254.284 868.564 Q -254.329 868.574 -254.374 868.583 Q -254.420 868.591 -254.466 868.599 Q -254.511 868.607 -254.557 868.614 Q -254.603 868.620 -254.649 868.626 Q -254.695 868.632 -254.742 868.636 Q -254.788 868.641 -254.834 868.645 Q -254.880 868.648 -254.927 868.651 Q -254.973 868.653 -255.019 868.655 Q -255.066 868.656 -255.112 868.657 Q -255.158 868.657 -255.205 868.657 Q -255.251 868.656 -255.298 868.655 Q -255.344 868.653 -255.390 868.651 Q -255.437 868.648 -255.483 868.645 Q -255.529 868.641 -255.575 868.636 Q -255.622 868.632 -255.668 868.626 Q -255.714 868.620 -255.760 868.614 Q -255.805 868.607 -255.851 868.599 Q -255.897 868.591 -255.943 868.583 Q -255.988 868.574 -256.033 868.564 Q -256.079 868.554 -256.124 868.544 Q -256.169 868.533 -256.214 868.521 Q -256.259 868.509 -256.303 868.496 Q -256.348 868.484 -256.392 868.470 Q -256.436 868.456 -256.480 868.441 Q -256.524 868.426 -256.568 868.411 Q -256.611 868.395 -256.655 868.378 Q -256.698 868.362 -256.741 868.344 Q -256.784 868.326 -256.826 868.308 Q -256.868 868.289 -256.910 868.269 Q -256.952 868.250 -256.994 868.229 Q -257.035 868.209 -257.076 868.187 Q -257.117 868.166 -257.158 868.144 Q -257.198 868.121 -257.238 868.098 Q -257.278 868.075 -257.318 868.051 Q -257.357 868.027 -257.396 868.002 Q -257.435 867.977 -257.474 867.951 Q -257.512 867.925 -257.550 867.898 Q -257.587 867.871 -257.625 867.844 Q -257.662 867.816 -257.698 867.788 Q -257.735 867.760 -257.770 867.730 Q -257.806 867.701 -257.841 867.671 Q -257.876 867.641 -257.911 867.611 Q -257.945 867.580 -257.979 867.548 Q -258.013 867.517 -258.046 867.484 Q -258.079 867.452 -258.111 867.419 Q -258.143 867.386 -258.175 867.353 Q -258.206 867.319 -258.237 867.285 Q -258.268 867.250 -258.298 867.215 Q -258.328 867.180 -258.357 867.144 Q -258.386 867.109 -258.414 867.072 Q -258.442 867.036 -258.470 866.999 Q -258.497 866.962 -258.524 866.924 Q -258.550 866.887 -258.576 866.849 Q -258.602 866.810 -258.627 866.772 Q -258.652 866.733 -258.676 866.693 Q -258.699 866.654 -258.723 866.614 Q -258.746 866.575 -258.768 866.534 Q -258.790 866.494 -258.811 866.453 Q -258.832 866.412 -258.853 866.371 Q -258.873 866.330 -258.892 866.288 Q -258.911 866.246 -258.930 866.204 Q -258.948 866.162 -258.966 866.120 Q -258.983 866.077 -258.999 866.034 Q -259.016 865.991 -259.031 865.948 Q -259.047 865.905 -259.061 865.861 Q -259.076 865.818 -259.089 865.774 Q -259.102 865.730 -259.115 865.686 Q -259.127 865.641 -259.139 865.597 Q -259.150 865.552 -259.161 865.508 Q -259.171 865.463 -259.180 865.418 Q -259.190 865.373 -259.198 865.328 Q -259.206 865.283 -259.214 865.238 Q -259.221 865.192 -259.227 865.147 Q -259.234 865.101 -259.239 865.056 Q -259.244 865.010 -259.248 864.964 Q -259.252 864.919 -259.256 864.873 Q -259.259 864.827 -259.261 864.781 Q -259.263 864.736 -259.264 864.690 Q -259.265 864.644 -259.265 864.598 Q -259.265 864.552 -259.264 864.506 Q -259.263 864.460 -259.261 864.415 Q -259.259 864.369 -259.256 864.323 Q -259.252 864.277 -259.248 864.231 Q -259.244 864.186 -259.239 864.140 Q -259.234 864.095 -259.227 864.049 Q -259.221 864.004 -259.214 863.958 Q -259.206 863.913 -259.198 863.868 Q -259.190 863.823 -259.180 863.778 Q -259.171 863.733 -259.161 863.688 Q -259.150 863.644 -259.139 863.599 Q -259.127 863.555 -259.115 863.510 Q -259.102 863.466 -259.089 863.422 Q -259.076 863.378 -259.061 863.335 Q -259.047 863.291 -259.031 863.248 Q -259.016 863.205 -258.999 863.162 Q -258.983 863.119 -258.966 863.076 Q -258.948 863.034 -258.930 862.992 Q -258.911 862.950 -258.892 862.908 Q -258.873 862.866 -258.853 862.825 Q -258.832 862.784 -258.811 862.743 Q -258.790 862.702 -258.768 862.662 Q -258.746 862.621 -258.723 862.582 Q -258.699 862.542 -258.676 862.502 Q -258.652 862.463 -258.627 862.424 Q -258.602 862.386 -258.576 862.348 Q -258.550 862.309 -258.524 862.272 Q -258.497 862.234 -258.470 862.197 Q -258.442 862.160 -258.414 862.124 Q -258.386 862.087 -258.357 862.052 Q -258.328 862.016 -258.298 861.981 Q -258.268 861.946 -258.237 861.911 Q -258.206 861.877 -258.175 861.843 Q -258.143 861.810 -258.111 861.777 Q -258.079 861.744 -258.046 861.711 Q -258.013 861.679 -257.979 861.648 Q -257.945 861.616 -257.911 861.585 Q -257.876 861.555 -257.841 861.525 Q -257.806 861.495 -257.770 861.466 Q -257.735 861.436 -257.698 861.408 Q -257.662 861.380 -257.624 861.352 Q -257.587 861.325 -257.550 861.298 Q -257.512 861.271 -257.474 861.245 Q -257.435 861.219 -257.396 861.194 Q -257.357 861.169 -257.318 861.145 Q -257.278 861.121 -257.238 861.098 Q -257.198 861.075 -257.158 861.052 Q -257.117 861.030 -257.076 861.009 Q -257.035 860.987 -256.994 860.967 Q -256.952 860.946 -256.910 860.927 Q -256.868 860.907 -256.826 860.888 Q -256.783 860.870 -256.741 860.852 Q -256.698 860.834 -256.655 860.818 Q -256.611 860.801 -256.568 860.785 Q -256.524 860.770 -256.480 860.755 Q -256.436 860.740 -256.392 860.726 Q -256.348 860.712 -256.303 860.700 Q -256.259 860.687 -256.214 860.675 Q -256.169 860.663 -256.124 860.652 Q -256.079 860.642 -256.033 860.632 Q -255.988 860.622 -255.942 860.613 Q -255.897 860.605 -255.851 860.597 Q -255.805 860.589 -255.760 860.582 Q -255.714 860.576 -255.668 860.570 Q -255.622 860.564 -255.575 860.560 Q -255.529 860.555 -255.483 860.551 Q -255.437 860.548 -255.390 860.545 Q -255.344 860.543 -255.298 860.541 Q -255.251 860.539 -255.205 860.539 Z"></path>
    <path id="STROKE_66559cdd-d135-4c97-a768-7f99368d2e3f" opacity="1.000" fill="none" stroke="#f6ffd2" stroke-width="0.517" stroke-opacity="1.000" stroke-linecap="round" stroke-linejoin="round" d="M -255.425 864.630 L -192.454 832.234 "></path>
    <path id="STROKE_f4882dd8-bdd0-4396-9b1e-8355f4e71757" opacity="1.000" fill="none" stroke="#f6ffd2" stroke-width="0.517" stroke-opacity="1.000" stroke-linecap="round" stroke-linejoin="round" d="M -159.768 672.686 L -127.695 767.850 "></path>
    <path id="STROKE_9ef5839b-a756-4bd2-9d18-03bd248f1750" opacity="1.000" fill="none" stroke="#f6ffd2" stroke-width="0.517" stroke-opacity="1.000" stroke-linecap="round" stroke-linejoin="round" d="M -128.152 768.312 L -191.460 832.309 "></path>
    <path id="STROKE_1bb6b81f-e6e4-4d15-92cf-5fe3988b7817" opacity="1.000" fill="none" stroke="#f6ffd2" stroke-width="0.517" stroke-opacity="1.000" stroke-linecap="round" stroke-linejoin="round" d="M -127.184 769.017 L 6.810 866.773 "></path>
  </g>
</svg>