<?xml version="1.0" encoding="UTF-8" standalone="yes"?>
<svg xmlns="http://www.w3.org/2000/svg" xmlns:xlink="http://www.w3.org/1999/xlink" width="210.990px" height="381.028px" version="1.1" viewBox="-263.223 712.884 105.495 190.514">
  <!--
	Exported with Concepts: Smarter Sketching
	Version: 3410 on iOS 18.1
	https://concepts.app/
	-->
  <title>2EEDC6F7-0C62-4798-AE41-D163F0EE7F45</title>
  <desc>Drawing exported from Concepts: Smarter Sketching</desc>
  <defs></defs>
  <g id="Pen" opacity="1.000">
    <path id="STROKE_e84a89f8-a52b-40a5-95fa-aa6f0b57fe39" opacity="1.000" fill="none" stroke="#f6ffd2" stroke-width="nan" stroke-opacity="nan" stroke-linecap="round" stroke-linejoin="round" d="M -256.000 864.000 L -256.000 864.000 "></path>
    <path id="STROKE_1e700d91-9f18-4833-9402-3e318acedb06" opacity="1.000" fill="none" stroke="#f6ffd2" stroke-width="2.026" stroke-opacity="1.000" stroke-linecap="round" stroke-linejoin="round" d="M -256.043 860.247 Q -256.000 860.247 -255.957 860.247 Q -255.913 860.248 -255.870 860.249 Q -255.826 860.251 -255.783 860.253 Q -255.740 860.256 -255.696 860.259 Q -255.653 860.262 -255.610 860.267 Q -255.567 860.271 -255.524 860.276 Q -255.480 860.281 -255.438 860.288 Q -255.395 860.294 -255.352 860.301 Q -255.309 860.308 -255.266 860.316 Q -255.224 860.324 -255.181 860.333 Q -255.139 860.342 -255.097 860.352 Q -255.054 860.362 -255.012 860.373 Q -254.970 860.384 -254.929 860.396 Q -254.887 860.408 -254.846 860.421 Q -254.804 860.433 -254.763 860.447 Q -254.722 860.461 -254.681 860.475 Q -254.640 860.490 -254.600 860.505 Q -254.560 860.521 -254.520 860.537 Q -254.479 860.553 -254.440 860.571 Q -254.400 860.588 -254.361 860.606 Q -254.322 860.624 -254.283 860.643 Q -254.244 860.662 -254.205 860.682 Q -254.167 860.701 -254.129 860.722 Q -254.091 860.743 -254.054 860.764 Q -254.016 860.786 -253.979 860.808 Q -253.942 860.830 -253.906 860.853 Q -253.870 860.877 -253.834 860.900 Q -253.798 860.924 -253.763 860.949 Q -253.727 860.974 -253.693 860.999 Q -253.658 861.025 -253.624 861.051 Q -253.590 861.077 -253.556 861.104 Q -253.523 861.131 -253.490 861.159 Q -253.457 861.187 -253.425 861.215 Q -253.392 861.243 -253.361 861.273 Q -253.329 861.302 -253.298 861.331 Q -253.267 861.361 -253.237 861.392 Q -253.207 861.422 -253.178 861.453 Q -253.148 861.484 -253.119 861.516 Q -253.091 861.548 -253.063 861.581 Q -253.035 861.613 -253.007 861.646 Q -252.980 861.679 -252.954 861.713 Q -252.927 861.746 -252.902 861.781 Q -252.876 861.815 -252.851 861.849 Q -252.826 861.884 -252.802 861.919 Q -252.778 861.955 -252.755 861.991 Q -252.731 862.026 -252.709 862.063 Q -252.687 862.099 -252.665 862.136 Q -252.643 862.173 -252.623 862.210 Q -252.602 862.247 -252.582 862.285 Q -252.562 862.323 -252.543 862.361 Q -252.524 862.399 -252.506 862.438 Q -252.488 862.476 -252.471 862.515 Q -252.454 862.554 -252.438 862.593 Q -252.421 862.633 -252.406 862.672 Q -252.391 862.712 -252.376 862.752 Q -252.362 862.792 -252.348 862.832 Q -252.335 862.873 -252.322 862.913 Q -252.310 862.954 -252.298 862.995 Q -252.286 863.035 -252.276 863.077 Q -252.265 863.118 -252.255 863.159 Q -252.245 863.200 -252.237 863.242 Q -252.228 863.283 -252.220 863.325 Q -252.212 863.367 -252.205 863.409 Q -252.199 863.451 -252.193 863.493 Q -252.187 863.535 -252.182 863.577 Q -252.177 863.619 -252.173 863.661 Q -252.169 863.703 -252.166 863.746 Q -252.163 863.788 -252.161 863.830 Q -252.159 863.873 -252.158 863.915 Q -252.157 863.958 -252.157 864.000 Q -252.157 864.042 -252.158 864.085 Q -252.159 864.127 -252.161 864.170 Q -252.163 864.212 -252.166 864.254 Q -252.169 864.297 -252.173 864.339 Q -252.177 864.381 -252.182 864.423 Q -252.187 864.465 -252.193 864.507 Q -252.199 864.549 -252.205 864.591 Q -252.212 864.633 -252.220 864.675 Q -252.228 864.717 -252.237 864.758 Q -252.245 864.800 -252.255 864.841 Q -252.265 864.882 -252.276 864.923 Q -252.286 864.964 -252.298 865.005 Q -252.310 865.046 -252.322 865.087 Q -252.335 865.127 -252.348 865.168 Q -252.362 865.208 -252.376 865.248 Q -252.391 865.288 -252.406 865.328 Q -252.421 865.367 -252.438 865.407 Q -252.454 865.446 -252.471 865.485 Q -252.488 865.524 -252.506 865.562 Q -252.524 865.601 -252.543 865.639 Q -252.562 865.677 -252.582 865.715 Q -252.602 865.753 -252.623 865.790 Q -252.643 865.827 -252.665 865.864 Q -252.687 865.901 -252.709 865.937 Q -252.731 865.974 -252.755 866.009 Q -252.778 866.045 -252.802 866.081 Q -252.826 866.116 -252.851 866.151 Q -252.876 866.185 -252.902 866.219 Q -252.927 866.254 -252.954 866.287 Q -252.980 866.321 -253.007 866.354 Q -253.035 866.387 -253.063 866.419 Q -253.091 866.452 -253.119 866.484 Q -253.148 866.515 -253.178 866.547 Q -253.207 866.578 -253.237 866.608 Q -253.267 866.639 -253.298 866.669 Q -253.329 866.698 -253.361 866.727 Q -253.392 866.757 -253.425 866.785 Q -253.457 866.813 -253.490 866.841 Q -253.523 866.869 -253.556 866.896 Q -253.590 866.923 -253.624 866.949 Q -253.658 866.975 -253.693 867.001 Q -253.727 867.026 -253.763 867.051 Q -253.798 867.076 -253.834 867.100 Q -253.870 867.123 -253.906 867.147 Q -253.942 867.170 -253.979 867.192 Q -254.016 867.214 -254.054 867.236 Q -254.091 867.257 -254.129 867.278 Q -254.167 867.299 -254.205 867.318 Q -254.244 867.338 -254.283 867.357 Q -254.322 867.376 -254.361 867.394 Q -254.400 867.412 -254.440 867.429 Q -254.479 867.447 -254.520 867.463 Q -254.560 867.479 -254.600 867.495 Q -254.640 867.510 -254.681 867.525 Q -254.722 867.539 -254.763 867.553 Q -254.804 867.567 -254.846 867.579 Q -254.887 867.592 -254.929 867.604 Q -254.971 867.616 -255.012 867.627 Q -255.054 867.638 -255.097 867.648 Q -255.139 867.658 -255.181 867.667 Q -255.224 867.676 -255.266 867.684 Q -255.309 867.692 -255.352 867.699 Q -255.395 867.706 -255.438 867.712 Q -255.480 867.719 -255.524 867.724 Q -255.567 867.729 -255.610 867.733 Q -255.653 867.738 -255.696 867.741 Q -255.740 867.744 -255.783 867.747 Q -255.826 867.749 -255.870 867.751 Q -255.913 867.752 -255.957 867.753 Q -256.000 867.753 -256.043 867.753 Q -256.087 867.752 -256.130 867.751 Q -256.174 867.749 -256.217 867.747 Q -256.260 867.744 -256.304 867.741 Q -256.347 867.738 -256.390 867.733 Q -256.433 867.729 -256.476 867.724 Q -256.520 867.719 -256.562 867.712 Q -256.605 867.706 -256.648 867.699 Q -256.691 867.692 -256.734 867.684 Q -256.776 867.676 -256.819 867.667 Q -256.861 867.658 -256.903 867.648 Q -256.946 867.638 -256.988 867.627 Q -257.029 867.616 -257.071 867.604 Q -257.113 867.592 -257.154 867.579 Q -257.196 867.567 -257.237 867.553 Q -257.278 867.539 -257.319 867.525 Q -257.360 867.510 -257.400 867.495 Q -257.440 867.479 -257.480 867.463 Q -257.521 867.447 -257.560 867.430 Q -257.600 867.412 -257.639 867.394 Q -257.678 867.376 -257.717 867.357 Q -257.756 867.338 -257.795 867.318 Q -257.833 867.299 -257.871 867.278 Q -257.909 867.257 -257.946 867.236 Q -257.984 867.214 -258.021 867.192 Q -258.058 867.170 -258.094 867.147 Q -258.130 867.123 -258.166 867.100 Q -258.202 867.076 -258.237 867.051 Q -258.273 867.026 -258.307 867.001 Q -258.342 866.975 -258.376 866.949 Q -258.410 866.923 -258.444 866.896 Q -258.477 866.869 -258.510 866.841 Q -258.543 866.814 -258.575 866.785 Q -258.608 866.757 -258.639 866.727 Q -258.671 866.698 -258.702 866.669 Q -258.733 866.639 -258.763 866.608 Q -258.793 866.578 -258.822 866.547 Q -258.852 866.515 -258.881 866.484 Q -258.909 866.452 -258.937 866.419 Q -258.965 866.387 -258.993 866.354 Q -259.020 866.321 -259.046 866.287 Q -259.073 866.254 -259.098 866.219 Q -259.124 866.185 -259.149 866.151 Q -259.174 866.116 -259.198 866.080 Q -259.222 866.045 -259.245 866.009 Q -259.269 865.974 -259.291 865.937 Q -259.313 865.901 -259.335 865.864 Q -259.357 865.827 -259.377 865.790 Q -259.398 865.753 -259.418 865.715 Q -259.438 865.677 -259.457 865.639 Q -259.476 865.601 -259.494 865.562 Q -259.512 865.524 -259.529 865.485 Q -259.546 865.446 -259.562 865.407 Q -259.579 865.367 -259.594 865.328 Q -259.609 865.288 -259.624 865.248 Q -259.638 865.208 -259.652 865.168 Q -259.665 865.127 -259.678 865.087 Q -259.690 865.046 -259.702 865.005 Q -259.714 864.964 -259.724 864.923 Q -259.735 864.882 -259.745 864.841 Q -259.755 864.800 -259.763 864.758 Q -259.772 864.716 -259.780 864.675 Q -259.788 864.633 -259.795 864.591 Q -259.801 864.549 -259.807 864.507 Q -259.813 864.465 -259.818 864.423 Q -259.823 864.381 -259.827 864.339 Q -259.831 864.297 -259.834 864.254 Q -259.837 864.212 -259.839 864.170 Q -259.841 864.127 -259.842 864.085 Q -259.843 864.042 -259.843 864.000 Q -259.843 863.958 -259.842 863.915 Q -259.841 863.873 -259.839 863.830 Q -259.837 863.788 -259.834 863.746 Q -259.831 863.703 -259.827 863.661 Q -259.823 863.619 -259.818 863.577 Q -259.813 863.535 -259.807 863.493 Q -259.801 863.451 -259.795 863.409 Q -259.788 863.367 -259.780 863.325 Q -259.772 863.283 -259.763 863.242 Q -259.755 863.200 -259.745 863.159 Q -259.735 863.118 -259.724 863.077 Q -259.714 863.035 -259.702 862.995 Q -259.690 862.954 -259.678 862.913 Q -259.665 862.873 -259.652 862.832 Q -259.638 862.792 -259.624 862.752 Q -259.609 862.712 -259.594 862.672 Q -259.579 862.633 -259.562 862.593 Q -259.546 862.554 -259.529 862.515 Q -259.512 862.476 -259.494 862.438 Q -259.476 862.399 -259.457 862.361 Q -259.438 862.323 -259.418 862.285 Q -259.398 862.247 -259.377 862.210 Q -259.356 862.173 -259.335 862.136 Q -259.313 862.099 -259.291 862.063 Q -259.269 862.026 -259.245 861.991 Q -259.222 861.955 -259.198 861.919 Q -259.174 861.884 -259.149 861.849 Q -259.124 861.815 -259.098 861.780 Q -259.073 861.746 -259.046 861.713 Q -259.020 861.679 -258.993 861.646 Q -258.965 861.613 -258.937 861.581 Q -258.909 861.548 -258.881 861.516 Q -258.852 861.484 -258.822 861.453 Q -258.793 861.422 -258.763 861.392 Q -258.733 861.361 -258.702 861.331 Q -258.671 861.302 -258.639 861.272 Q -258.608 861.243 -258.575 861.215 Q -258.543 861.186 -258.510 861.159 Q -258.477 861.131 -258.444 861.104 Q -258.410 861.077 -258.376 861.051 Q -258.342 861.025 -258.307 860.999 Q -258.273 860.974 -258.237 860.949 Q -258.202 860.924 -258.166 860.900 Q -258.130 860.877 -258.094 860.853 Q -258.058 860.830 -258.021 860.808 Q -257.984 860.786 -257.946 860.764 Q -257.909 860.743 -257.871 860.722 Q -257.833 860.701 -257.795 860.682 Q -257.756 860.662 -257.717 860.643 Q -257.678 860.624 -257.639 860.606 Q -257.600 860.588 -257.560 860.570 Q -257.521 860.553 -257.480 860.537 Q -257.440 860.521 -257.400 860.505 Q -257.359 860.490 -257.319 860.475 Q -257.278 860.461 -257.237 860.447 Q -257.196 860.433 -257.154 860.421 Q -257.113 860.408 -257.071 860.396 Q -257.029 860.384 -256.987 860.373 Q -256.945 860.362 -256.903 860.352 Q -256.861 860.342 -256.819 860.333 Q -256.776 860.324 -256.734 860.316 Q -256.691 860.308 -256.648 860.301 Q -256.605 860.294 -256.562 860.288 Q -256.519 860.281 -256.476 860.276 Q -256.433 860.271 -256.390 860.267 Q -256.347 860.262 -256.304 860.259 Q -256.260 860.256 -256.217 860.253 Q -256.174 860.251 -256.130 860.249 Q -256.087 860.248 -256.043 860.247 Z"></path>
    <path id="STROKE_0f885563-3a5d-4f77-bd1b-24d7b3272c36" opacity="1.000" fill="none" stroke="#f6ffd2" stroke-width="nan" stroke-opacity="nan" stroke-linecap="round" stroke-linejoin="round" d="M -223.601 896.265 L -223.601 896.265 "></path>
    <path id="STROKE_f1c70ffe-cf37-4a3b-a58e-c2d48c4e5501" opacity="1.000" fill="none" stroke="#f6ffd2" stroke-width="2.026" stroke-opacity="1.000" stroke-linecap="round" stroke-linejoin="round" d="M -223.644 892.512 Q -223.601 892.512 -223.558 892.512 Q -223.514 892.513 -223.471 892.514 Q -223.427 892.516 -223.384 892.518 Q -223.341 892.520 -223.297 892.524 Q -223.254 892.527 -223.211 892.531 Q -223.168 892.536 -223.125 892.541 Q -223.082 892.546 -223.039 892.552 Q -222.996 892.559 -222.953 892.566 Q -222.910 892.573 -222.867 892.581 Q -222.825 892.589 -222.782 892.598 Q -222.740 892.607 -222.698 892.617 Q -222.656 892.627 -222.614 892.638 Q -222.572 892.649 -222.530 892.661 Q -222.488 892.673 -222.447 892.685 Q -222.405 892.698 -222.364 892.712 Q -222.323 892.725 -222.282 892.740 Q -222.242 892.754 -222.201 892.770 Q -222.161 892.785 -222.121 892.802 Q -222.081 892.818 -222.041 892.835 Q -222.001 892.853 -221.962 892.871 Q -221.923 892.889 -221.884 892.908 Q -221.845 892.927 -221.806 892.946 Q -221.768 892.966 -221.730 892.987 Q -221.692 893.008 -221.655 893.029 Q -221.617 893.050 -221.580 893.073 Q -221.543 893.095 -221.507 893.118 Q -221.471 893.141 -221.435 893.165 Q -221.399 893.189 -221.364 893.214 Q -221.328 893.238 -221.294 893.264 Q -221.259 893.289 -221.225 893.316 Q -221.191 893.342 -221.157 893.369 Q -221.124 893.396 -221.091 893.424 Q -221.058 893.451 -221.026 893.480 Q -220.993 893.508 -220.962 893.537 Q -220.930 893.566 -220.899 893.596 Q -220.869 893.626 -220.838 893.656 Q -220.808 893.687 -220.779 893.718 Q -220.749 893.749 -220.720 893.781 Q -220.692 893.813 -220.664 893.845 Q -220.636 893.878 -220.608 893.911 Q -220.581 893.944 -220.555 893.977 Q -220.528 894.011 -220.503 894.045 Q -220.477 894.079 -220.452 894.114 Q -220.427 894.149 -220.403 894.184 Q -220.379 894.220 -220.356 894.255 Q -220.333 894.291 -220.310 894.328 Q -220.288 894.364 -220.266 894.401 Q -220.245 894.437 -220.224 894.475 Q -220.203 894.512 -220.183 894.550 Q -220.163 894.587 -220.144 894.626 Q -220.126 894.664 -220.107 894.702 Q -220.089 894.741 -220.072 894.780 Q -220.055 894.819 -220.039 894.858 Q -220.022 894.897 -220.007 894.937 Q -219.992 894.977 -219.977 895.017 Q -219.963 895.057 -219.949 895.097 Q -219.936 895.137 -219.923 895.178 Q -219.911 895.219 -219.899 895.259 Q -219.887 895.300 -219.877 895.341 Q -219.866 895.382 -219.856 895.424 Q -219.847 895.465 -219.838 895.507 Q -219.829 895.548 -219.821 895.590 Q -219.813 895.632 -219.807 895.674 Q -219.800 895.715 -219.794 895.757 Q -219.788 895.799 -219.783 895.842 Q -219.778 895.884 -219.774 895.926 Q -219.770 895.968 -219.767 896.010 Q -219.764 896.053 -219.762 896.095 Q -219.761 896.138 -219.760 896.180 Q -219.759 896.222 -219.759 896.265 Q -219.759 896.307 -219.760 896.350 Q -219.760 896.392 -219.762 896.434 Q -219.764 896.477 -219.767 896.519 Q -219.770 896.561 -219.774 896.604 Q -219.778 896.646 -219.783 896.688 Q -219.788 896.730 -219.794 896.772 Q -219.800 896.814 -219.807 896.856 Q -219.813 896.898 -219.821 896.940 Q -219.829 896.981 -219.838 897.023 Q -219.847 897.064 -219.856 897.106 Q -219.866 897.147 -219.877 897.188 Q -219.887 897.229 -219.899 897.270 Q -219.911 897.311 -219.923 897.352 Q -219.936 897.392 -219.949 897.432 Q -219.963 897.473 -219.977 897.513 Q -219.992 897.553 -220.007 897.592 Q -220.022 897.632 -220.039 897.671 Q -220.055 897.711 -220.072 897.750 Q -220.089 897.789 -220.107 897.827 Q -220.126 897.866 -220.144 897.904 Q -220.163 897.942 -220.183 897.980 Q -220.203 898.018 -220.224 898.055 Q -220.245 898.092 -220.266 898.129 Q -220.288 898.166 -220.310 898.202 Q -220.333 898.238 -220.356 898.274 Q -220.379 898.310 -220.403 898.345 Q -220.427 898.381 -220.452 898.415 Q -220.477 898.450 -220.503 898.484 Q -220.528 898.518 -220.555 898.552 Q -220.581 898.586 -220.608 898.619 Q -220.636 898.652 -220.664 898.684 Q -220.692 898.717 -220.720 898.748 Q -220.749 898.780 -220.779 898.811 Q -220.808 898.842 -220.838 898.873 Q -220.868 898.903 -220.899 898.933 Q -220.930 898.963 -220.962 898.992 Q -220.993 899.021 -221.026 899.050 Q -221.058 899.078 -221.091 899.106 Q -221.124 899.134 -221.157 899.161 Q -221.191 899.188 -221.225 899.214 Q -221.259 899.240 -221.294 899.266 Q -221.328 899.291 -221.364 899.316 Q -221.399 899.340 -221.435 899.364 Q -221.471 899.388 -221.507 899.411 Q -221.543 899.434 -221.580 899.457 Q -221.617 899.479 -221.655 899.500 Q -221.692 899.522 -221.730 899.543 Q -221.768 899.563 -221.806 899.583 Q -221.845 899.603 -221.884 899.622 Q -221.923 899.641 -221.962 899.659 Q -222.001 899.677 -222.041 899.694 Q -222.080 899.711 -222.121 899.728 Q -222.161 899.744 -222.201 899.760 Q -222.242 899.775 -222.282 899.790 Q -222.323 899.804 -222.364 899.818 Q -222.405 899.831 -222.447 899.844 Q -222.488 899.857 -222.530 899.869 Q -222.572 899.881 -222.614 899.891 Q -222.656 899.902 -222.698 899.912 Q -222.740 899.922 -222.782 899.931 Q -222.825 899.940 -222.867 899.948 Q -222.910 899.957 -222.953 899.964 Q -222.996 899.971 -223.039 899.977 Q -223.082 899.983 -223.125 899.989 Q -223.168 899.994 -223.211 899.998 Q -223.254 900.002 -223.297 900.006 Q -223.341 900.009 -223.384 900.012 Q -223.427 900.014 -223.471 900.015 Q -223.514 900.017 -223.558 900.017 Q -223.601 900.018 -223.645 900.017 Q -223.688 900.017 -223.731 900.015 Q -223.775 900.014 -223.818 900.011 Q -223.861 900.009 -223.905 900.006 Q -223.948 900.002 -223.991 899.998 Q -224.034 899.994 -224.077 899.989 Q -224.121 899.983 -224.164 899.977 Q -224.207 899.971 -224.249 899.964 Q -224.292 899.957 -224.335 899.948 Q -224.377 899.940 -224.420 899.931 Q -224.462 899.922 -224.504 899.912 Q -224.547 899.902 -224.589 899.891 Q -224.631 899.881 -224.672 899.869 Q -224.714 899.857 -224.755 899.844 Q -224.797 899.831 -224.838 899.818 Q -224.879 899.804 -224.920 899.790 Q -224.961 899.775 -225.001 899.760 Q -225.041 899.744 -225.082 899.728 Q -225.122 899.711 -225.161 899.694 Q -225.201 899.677 -225.240 899.659 Q -225.280 899.641 -225.318 899.622 Q -225.357 899.603 -225.396 899.583 Q -225.434 899.563 -225.472 899.543 Q -225.510 899.522 -225.547 899.500 Q -225.585 899.479 -225.622 899.457 Q -225.659 899.434 -225.695 899.411 Q -225.731 899.388 -225.767 899.364 Q -225.803 899.340 -225.839 899.316 Q -225.874 899.291 -225.909 899.266 Q -225.943 899.240 -225.977 899.214 Q -226.012 899.188 -226.045 899.161 Q -226.079 899.134 -226.111 899.106 Q -226.144 899.078 -226.177 899.050 Q -226.209 899.021 -226.240 898.992 Q -226.272 898.963 -226.303 898.933 Q -226.334 898.904 -226.364 898.873 Q -226.394 898.843 -226.423 898.811 Q -226.453 898.780 -226.482 898.748 Q -226.510 898.717 -226.538 898.684 Q -226.566 898.652 -226.594 898.619 Q -226.621 898.586 -226.647 898.552 Q -226.674 898.518 -226.699 898.484 Q -226.725 898.450 -226.750 898.415 Q -226.775 898.381 -226.799 898.345 Q -226.823 898.310 -226.846 898.274 Q -226.870 898.238 -226.892 898.202 Q -226.914 898.166 -226.936 898.129 Q -226.958 898.092 -226.978 898.055 Q -226.999 898.018 -227.019 897.980 Q -227.039 897.942 -227.058 897.904 Q -227.077 897.866 -227.095 897.827 Q -227.113 897.789 -227.130 897.750 Q -227.147 897.711 -227.163 897.671 Q -227.180 897.632 -227.195 897.592 Q -227.210 897.553 -227.225 897.513 Q -227.239 897.473 -227.253 897.432 Q -227.266 897.392 -227.279 897.352 Q -227.292 897.311 -227.303 897.270 Q -227.315 897.229 -227.325 897.188 Q -227.336 897.147 -227.346 897.106 Q -227.356 897.064 -227.364 897.023 Q -227.373 896.981 -227.381 896.940 Q -227.389 896.898 -227.396 896.856 Q -227.402 896.814 -227.408 896.772 Q -227.414 896.730 -227.419 896.688 Q -227.424 896.646 -227.428 896.604 Q -227.432 896.561 -227.435 896.519 Q -227.438 896.477 -227.440 896.434 Q -227.442 896.392 -227.443 896.350 Q -227.444 896.307 -227.444 896.265 Q -227.444 896.222 -227.443 896.180 Q -227.442 896.138 -227.440 896.095 Q -227.438 896.053 -227.435 896.010 Q -227.432 895.968 -227.428 895.926 Q -227.424 895.884 -227.419 895.842 Q -227.414 895.799 -227.408 895.757 Q -227.402 895.715 -227.396 895.673 Q -227.389 895.632 -227.381 895.590 Q -227.373 895.548 -227.364 895.507 Q -227.356 895.465 -227.346 895.424 Q -227.336 895.382 -227.325 895.341 Q -227.315 895.300 -227.303 895.259 Q -227.291 895.219 -227.279 895.178 Q -227.266 895.137 -227.253 895.097 Q -227.239 895.057 -227.225 895.017 Q -227.210 894.977 -227.195 894.937 Q -227.180 894.897 -227.163 894.858 Q -227.147 894.819 -227.130 894.780 Q -227.113 894.741 -227.095 894.702 Q -227.077 894.664 -227.058 894.625 Q -227.039 894.587 -227.019 894.550 Q -226.999 894.512 -226.978 894.475 Q -226.958 894.437 -226.936 894.401 Q -226.914 894.364 -226.892 894.327 Q -226.870 894.291 -226.846 894.255 Q -226.823 894.219 -226.799 894.184 Q -226.775 894.149 -226.750 894.114 Q -226.725 894.079 -226.699 894.045 Q -226.674 894.011 -226.647 893.977 Q -226.621 893.944 -226.594 893.911 Q -226.566 893.878 -226.538 893.845 Q -226.510 893.813 -226.482 893.781 Q -226.453 893.749 -226.423 893.718 Q -226.394 893.687 -226.364 893.656 Q -226.334 893.626 -226.303 893.596 Q -226.272 893.566 -226.240 893.537 Q -226.209 893.508 -226.176 893.480 Q -226.144 893.451 -226.111 893.424 Q -226.078 893.396 -226.045 893.369 Q -226.011 893.342 -225.977 893.316 Q -225.943 893.289 -225.908 893.264 Q -225.874 893.238 -225.838 893.214 Q -225.803 893.189 -225.767 893.165 Q -225.731 893.141 -225.695 893.118 Q -225.659 893.095 -225.622 893.073 Q -225.585 893.050 -225.547 893.029 Q -225.510 893.007 -225.472 892.987 Q -225.434 892.966 -225.396 892.946 Q -225.357 892.927 -225.318 892.908 Q -225.279 892.889 -225.240 892.871 Q -225.201 892.852 -225.161 892.835 Q -225.122 892.818 -225.081 892.802 Q -225.041 892.785 -225.001 892.770 Q -224.961 892.754 -224.920 892.740 Q -224.879 892.725 -224.838 892.712 Q -224.797 892.698 -224.755 892.685 Q -224.714 892.673 -224.672 892.661 Q -224.630 892.649 -224.589 892.638 Q -224.547 892.627 -224.504 892.617 Q -224.462 892.607 -224.420 892.598 Q -224.377 892.589 -224.335 892.581 Q -224.292 892.573 -224.249 892.566 Q -224.206 892.559 -224.163 892.552 Q -224.120 892.546 -224.077 892.541 Q -224.034 892.536 -223.991 892.531 Q -223.948 892.527 -223.905 892.524 Q -223.861 892.520 -223.818 892.518 Q -223.775 892.516 -223.731 892.514 Q -223.688 892.513 -223.644 892.512 Z"></path>
    <path id="STROKE_00da699d-b32b-43ee-ab73-ed1c422d007d" opacity="1.000" fill="none" stroke="#f6ffd2" stroke-width="nan" stroke-opacity="nan" stroke-linecap="round" stroke-linejoin="round" d="M -192.366 831.802 L -192.366 831.802 "></path>
    <path id="STROKE_0ff0015e-29f7-49b1-9257-dc0e281e3ddd" opacity="1.000" fill="none" stroke="#f6ffd2" stroke-width="2.026" stroke-opacity="1.000" stroke-linecap="round" stroke-linejoin="round" d="M -192.409 828.050 Q -192.366 828.049 -192.323 828.050 Q -192.279 828.050 -192.236 828.052 Q -192.192 828.053 -192.149 828.055 Q -192.106 828.058 -192.062 828.061 Q -192.019 828.064 -191.976 828.069 Q -191.933 828.073 -191.890 828.078 Q -191.846 828.084 -191.804 828.090 Q -191.761 828.096 -191.718 828.103 Q -191.675 828.110 -191.632 828.118 Q -191.590 828.126 -191.547 828.135 Q -191.505 828.145 -191.463 828.155 Q -191.420 828.164 -191.378 828.175 Q -191.337 828.186 -191.295 828.198 Q -191.253 828.210 -191.212 828.223 Q -191.170 828.235 -191.129 828.249 Q -191.088 828.263 -191.047 828.277 Q -191.006 828.292 -190.966 828.307 Q -190.926 828.323 -190.886 828.339 Q -190.845 828.355 -190.806 828.373 Q -190.766 828.390 -190.727 828.408 Q -190.688 828.426 -190.649 828.445 Q -190.610 828.464 -190.571 828.484 Q -190.533 828.504 -190.495 828.524 Q -190.457 828.545 -190.420 828.566 Q -190.382 828.588 -190.345 828.610 Q -190.308 828.632 -190.272 828.656 Q -190.236 828.679 -190.200 828.703 Q -190.164 828.726 -190.129 828.751 Q -190.093 828.776 -190.059 828.801 Q -190.024 828.827 -189.990 828.853 Q -189.956 828.879 -189.922 828.906 Q -189.889 828.933 -189.856 828.961 Q -189.823 828.989 -189.791 829.017 Q -189.758 829.046 -189.727 829.075 Q -189.695 829.104 -189.664 829.134 Q -189.633 829.163 -189.603 829.194 Q -189.573 829.224 -189.544 829.255 Q -189.514 829.287 -189.485 829.318 Q -189.457 829.350 -189.429 829.383 Q -189.401 829.415 -189.373 829.448 Q -189.346 829.481 -189.320 829.515 Q -189.293 829.548 -189.268 829.583 Q -189.242 829.617 -189.217 829.652 Q -189.192 829.686 -189.168 829.722 Q -189.144 829.757 -189.121 829.793 Q -189.097 829.829 -189.075 829.865 Q -189.053 829.901 -189.031 829.938 Q -189.010 829.975 -188.989 830.012 Q -188.968 830.049 -188.948 830.087 Q -188.928 830.125 -188.909 830.163 Q -188.890 830.201 -188.872 830.240 Q -188.854 830.278 -188.837 830.317 Q -188.820 830.356 -188.804 830.395 Q -188.787 830.435 -188.772 830.474 Q -188.757 830.514 -188.742 830.554 Q -188.728 830.594 -188.714 830.634 Q -188.701 830.675 -188.688 830.715 Q -188.676 830.756 -188.664 830.797 Q -188.652 830.838 -188.642 830.879 Q -188.631 830.920 -188.621 830.961 Q -188.611 831.003 -188.603 831.044 Q -188.594 831.086 -188.586 831.127 Q -188.578 831.169 -188.571 831.211 Q -188.565 831.253 -188.559 831.295 Q -188.553 831.337 -188.548 831.379 Q -188.543 831.421 -188.539 831.463 Q -188.535 831.506 -188.532 831.548 Q -188.529 831.590 -188.527 831.633 Q -188.525 831.675 -188.524 831.717 Q -188.523 831.760 -188.523 831.802 Q -188.523 831.845 -188.524 831.887 Q -188.525 831.929 -188.527 831.972 Q -188.529 832.014 -188.532 832.056 Q -188.535 832.099 -188.539 832.141 Q -188.543 832.183 -188.548 832.225 Q -188.553 832.267 -188.559 832.309 Q -188.565 832.352 -188.571 832.393 Q -188.578 832.435 -188.586 832.477 Q -188.594 832.519 -188.603 832.560 Q -188.611 832.602 -188.621 832.643 Q -188.631 832.684 -188.642 832.726 Q -188.652 832.767 -188.664 832.807 Q -188.676 832.848 -188.688 832.889 Q -188.701 832.930 -188.714 832.970 Q -188.728 833.010 -188.742 833.050 Q -188.757 833.090 -188.772 833.130 Q -188.787 833.169 -188.804 833.209 Q -188.820 833.248 -188.837 833.287 Q -188.854 833.326 -188.872 833.365 Q -188.890 833.403 -188.909 833.441 Q -188.928 833.479 -188.948 833.517 Q -188.968 833.555 -188.989 833.592 Q -189.010 833.629 -189.031 833.666 Q -189.053 833.703 -189.075 833.739 Q -189.097 833.776 -189.121 833.812 Q -189.144 833.847 -189.168 833.883 Q -189.192 833.918 -189.217 833.953 Q -189.242 833.987 -189.268 834.022 Q -189.293 834.056 -189.320 834.089 Q -189.346 834.123 -189.373 834.156 Q -189.401 834.189 -189.429 834.222 Q -189.457 834.254 -189.485 834.286 Q -189.514 834.318 -189.544 834.349 Q -189.573 834.380 -189.603 834.410 Q -189.633 834.441 -189.664 834.471 Q -189.695 834.500 -189.727 834.530 Q -189.758 834.559 -189.791 834.587 Q -189.823 834.616 -189.856 834.643 Q -189.889 834.671 -189.922 834.698 Q -189.956 834.725 -189.990 834.751 Q -190.024 834.777 -190.059 834.803 Q -190.093 834.828 -190.129 834.853 Q -190.164 834.878 -190.200 834.902 Q -190.236 834.926 -190.272 834.949 Q -190.308 834.972 -190.345 834.994 Q -190.382 835.016 -190.420 835.038 Q -190.457 835.059 -190.495 835.080 Q -190.533 835.101 -190.571 835.120 Q -190.610 835.140 -190.649 835.159 Q -190.688 835.178 -190.727 835.196 Q -190.766 835.214 -190.806 835.232 Q -190.845 835.249 -190.886 835.265 Q -190.926 835.281 -190.966 835.297 Q -191.006 835.312 -191.047 835.327 Q -191.088 835.342 -191.129 835.355 Q -191.170 835.369 -191.212 835.382 Q -191.253 835.394 -191.295 835.406 Q -191.337 835.418 -191.378 835.429 Q -191.420 835.440 -191.463 835.450 Q -191.505 835.460 -191.547 835.469 Q -191.590 835.478 -191.632 835.486 Q -191.675 835.494 -191.718 835.501 Q -191.761 835.508 -191.804 835.515 Q -191.846 835.521 -191.890 835.526 Q -191.933 835.531 -191.976 835.536 Q -192.019 835.540 -192.062 835.543 Q -192.106 835.547 -192.149 835.549 Q -192.192 835.551 -192.236 835.553 Q -192.279 835.554 -192.323 835.555 Q -192.366 835.555 -192.409 835.555 Q -192.453 835.554 -192.496 835.553 Q -192.540 835.551 -192.583 835.549 Q -192.626 835.546 -192.670 835.543 Q -192.713 835.540 -192.756 835.536 Q -192.799 835.531 -192.842 835.526 Q -192.886 835.521 -192.928 835.515 Q -192.971 835.508 -193.014 835.501 Q -193.057 835.494 -193.100 835.486 Q -193.142 835.478 -193.185 835.469 Q -193.227 835.460 -193.269 835.450 Q -193.312 835.440 -193.354 835.429 Q -193.396 835.418 -193.437 835.406 Q -193.479 835.394 -193.520 835.382 Q -193.562 835.369 -193.603 835.355 Q -193.644 835.341 -193.685 835.327 Q -193.726 835.312 -193.766 835.297 Q -193.806 835.281 -193.847 835.265 Q -193.887 835.249 -193.926 835.232 Q -193.966 835.214 -194.005 835.196 Q -194.045 835.178 -194.083 835.159 Q -194.122 835.140 -194.161 835.120 Q -194.199 835.101 -194.237 835.080 Q -194.275 835.059 -194.312 835.038 Q -194.350 835.016 -194.387 834.994 Q -194.424 834.972 -194.460 834.949 Q -194.496 834.926 -194.532 834.902 Q -194.568 834.878 -194.603 834.853 Q -194.639 834.828 -194.673 834.803 Q -194.708 834.777 -194.742 834.751 Q -194.776 834.725 -194.810 834.698 Q -194.843 834.671 -194.876 834.643 Q -194.909 834.616 -194.941 834.587 Q -194.974 834.559 -195.005 834.530 Q -195.037 834.501 -195.068 834.471 Q -195.099 834.441 -195.129 834.410 Q -195.159 834.380 -195.188 834.349 Q -195.218 834.318 -195.247 834.286 Q -195.275 834.254 -195.303 834.222 Q -195.331 834.189 -195.359 834.156 Q -195.386 834.123 -195.412 834.089 Q -195.439 834.056 -195.464 834.022 Q -195.490 833.987 -195.515 833.953 Q -195.540 833.918 -195.564 833.883 Q -195.588 833.847 -195.611 833.812 Q -195.635 833.776 -195.657 833.739 Q -195.679 833.703 -195.701 833.666 Q -195.723 833.629 -195.743 833.592 Q -195.764 833.555 -195.784 833.517 Q -195.804 833.479 -195.823 833.441 Q -195.842 833.403 -195.860 833.365 Q -195.878 833.326 -195.895 833.287 Q -195.912 833.248 -195.928 833.209 Q -195.945 833.169 -195.960 833.130 Q -195.975 833.090 -195.990 833.050 Q -196.004 833.010 -196.018 832.970 Q -196.031 832.930 -196.044 832.889 Q -196.056 832.848 -196.068 832.807 Q -196.080 832.767 -196.090 832.726 Q -196.101 832.684 -196.111 832.643 Q -196.121 832.602 -196.129 832.560 Q -196.138 832.519 -196.146 832.477 Q -196.154 832.435 -196.161 832.393 Q -196.167 832.352 -196.173 832.309 Q -196.179 832.267 -196.184 832.225 Q -196.189 832.183 -196.193 832.141 Q -196.197 832.099 -196.200 832.056 Q -196.203 832.014 -196.205 831.972 Q -196.207 831.929 -196.208 831.887 Q -196.209 831.845 -196.209 831.802 Q -196.209 831.760 -196.208 831.717 Q -196.207 831.675 -196.205 831.633 Q -196.203 831.590 -196.200 831.548 Q -196.197 831.505 -196.193 831.463 Q -196.189 831.421 -196.184 831.379 Q -196.179 831.337 -196.173 831.295 Q -196.167 831.253 -196.161 831.211 Q -196.154 831.169 -196.146 831.127 Q -196.138 831.086 -196.129 831.044 Q -196.121 831.002 -196.111 830.961 Q -196.101 830.920 -196.090 830.879 Q -196.080 830.838 -196.068 830.797 Q -196.056 830.756 -196.044 830.715 Q -196.031 830.675 -196.018 830.634 Q -196.004 830.594 -195.990 830.554 Q -195.975 830.514 -195.960 830.474 Q -195.945 830.435 -195.928 830.395 Q -195.912 830.356 -195.895 830.317 Q -195.878 830.278 -195.860 830.240 Q -195.842 830.201 -195.823 830.163 Q -195.804 830.125 -195.784 830.087 Q -195.764 830.049 -195.743 830.012 Q -195.723 829.975 -195.701 829.938 Q -195.679 829.901 -195.657 829.865 Q -195.635 829.829 -195.611 829.793 Q -195.588 829.757 -195.564 829.722 Q -195.540 829.686 -195.515 829.652 Q -195.490 829.617 -195.464 829.583 Q -195.439 829.548 -195.412 829.515 Q -195.386 829.481 -195.359 829.448 Q -195.331 829.415 -195.303 829.383 Q -195.275 829.350 -195.247 829.318 Q -195.218 829.287 -195.188 829.255 Q -195.159 829.224 -195.129 829.194 Q -195.099 829.163 -195.068 829.134 Q -195.037 829.104 -195.005 829.075 Q -194.974 829.045 -194.941 829.017 Q -194.909 828.989 -194.876 828.961 Q -194.843 828.933 -194.810 828.906 Q -194.776 828.879 -194.742 828.853 Q -194.708 828.827 -194.673 828.801 Q -194.639 828.776 -194.603 828.751 Q -194.568 828.726 -194.532 828.703 Q -194.496 828.679 -194.460 828.656 Q -194.424 828.632 -194.387 828.610 Q -194.350 828.588 -194.312 828.566 Q -194.275 828.545 -194.237 828.524 Q -194.199 828.504 -194.161 828.484 Q -194.122 828.464 -194.083 828.445 Q -194.044 828.426 -194.005 828.408 Q -193.966 828.390 -193.926 828.373 Q -193.887 828.355 -193.846 828.339 Q -193.806 828.323 -193.766 828.307 Q -193.725 828.292 -193.685 828.277 Q -193.644 828.263 -193.603 828.249 Q -193.562 828.235 -193.520 828.223 Q -193.479 828.210 -193.437 828.198 Q -193.395 828.186 -193.353 828.175 Q -193.312 828.164 -193.269 828.155 Q -193.227 828.145 -193.185 828.136 Q -193.142 828.127 -193.100 828.118 Q -193.057 828.110 -193.014 828.103 Q -192.971 828.096 -192.928 828.090 Q -192.885 828.083 -192.842 828.078 Q -192.799 828.073 -192.756 828.069 Q -192.713 828.064 -192.670 828.061 Q -192.626 828.058 -192.583 828.055 Q -192.540 828.053 -192.496 828.052 Q -192.453 828.050 -192.409 828.050 Z"></path>
    <path id="STROKE_e17740ab-f7e5-4485-8a36-eb37ec85d884" opacity="1.000" fill="none" stroke="#f6ffd2" stroke-width="nan" stroke-opacity="nan" stroke-linecap="round" stroke-linejoin="round" d="M -164.951 869.128 L -164.951 869.128 "></path>
    <path id="STROKE_bde7ccbc-24a1-4d9d-be5d-bb1942937fa9" opacity="1.000" fill="none" stroke="#f6ffd2" stroke-width="2.026" stroke-opacity="1.000" stroke-linecap="round" stroke-linejoin="round" d="M -164.994 865.375 Q -164.951 865.375 -164.907 865.375 Q -164.864 865.376 -164.820 865.377 Q -164.777 865.379 -164.734 865.381 Q -164.690 865.384 -164.647 865.387 Q -164.604 865.390 -164.561 865.395 Q -164.517 865.399 -164.474 865.404 Q -164.431 865.409 -164.388 865.416 Q -164.345 865.422 -164.302 865.429 Q -164.260 865.436 -164.217 865.444 Q -164.174 865.452 -164.132 865.461 Q -164.089 865.470 -164.047 865.480 Q -164.005 865.490 -163.963 865.501 Q -163.921 865.512 -163.879 865.524 Q -163.838 865.536 -163.796 865.548 Q -163.755 865.561 -163.714 865.575 Q -163.673 865.589 -163.632 865.603 Q -163.591 865.618 -163.551 865.633 Q -163.510 865.648 -163.470 865.665 Q -163.430 865.681 -163.390 865.698 Q -163.351 865.716 -163.311 865.734 Q -163.272 865.752 -163.233 865.771 Q -163.194 865.790 -163.156 865.810 Q -163.118 865.829 -163.080 865.850 Q -163.042 865.871 -163.004 865.892 Q -162.967 865.914 -162.930 865.936 Q -162.893 865.958 -162.857 865.981 Q -162.820 866.004 -162.784 866.028 Q -162.749 866.052 -162.713 866.077 Q -162.678 866.102 -162.643 866.127 Q -162.608 866.153 -162.574 866.179 Q -162.540 866.205 -162.507 866.232 Q -162.473 866.259 -162.440 866.287 Q -162.407 866.314 -162.375 866.343 Q -162.343 866.371 -162.311 866.400 Q -162.280 866.430 -162.249 866.459 Q -162.218 866.489 -162.188 866.520 Q -162.158 866.550 -162.128 866.581 Q -162.099 866.612 -162.070 866.644 Q -162.041 866.676 -162.013 866.708 Q -161.985 866.741 -161.958 866.774 Q -161.931 866.807 -161.904 866.841 Q -161.878 866.874 -161.852 866.908 Q -161.827 866.943 -161.802 866.977 Q -161.777 867.012 -161.753 867.047 Q -161.729 867.083 -161.705 867.119 Q -161.682 867.154 -161.660 867.191 Q -161.637 867.227 -161.616 867.264 Q -161.594 867.301 -161.573 867.338 Q -161.553 867.375 -161.533 867.413 Q -161.513 867.451 -161.494 867.489 Q -161.475 867.527 -161.457 867.565 Q -161.439 867.604 -161.422 867.643 Q -161.405 867.682 -161.388 867.721 Q -161.372 867.761 -161.357 867.800 Q -161.341 867.840 -161.327 867.880 Q -161.312 867.920 -161.299 867.960 Q -161.285 868.000 -161.273 868.041 Q -161.260 868.082 -161.249 868.123 Q -161.237 868.163 -161.226 868.204 Q -161.216 868.246 -161.206 868.287 Q -161.196 868.328 -161.187 868.370 Q -161.179 868.411 -161.171 868.453 Q -161.163 868.495 -161.156 868.537 Q -161.149 868.578 -161.143 868.621 Q -161.138 868.663 -161.133 868.705 Q -161.128 868.747 -161.124 868.789 Q -161.120 868.831 -161.117 868.874 Q -161.114 868.916 -161.112 868.958 Q -161.110 869.001 -161.109 869.043 Q -161.108 869.086 -161.108 869.128 Q -161.108 869.170 -161.109 869.213 Q -161.110 869.255 -161.112 869.297 Q -161.114 869.340 -161.117 869.382 Q -161.120 869.424 -161.124 869.467 Q -161.128 869.509 -161.133 869.551 Q -161.138 869.593 -161.143 869.635 Q -161.149 869.677 -161.156 869.719 Q -161.163 869.761 -161.171 869.803 Q -161.179 869.844 -161.187 869.886 Q -161.196 869.928 -161.206 869.969 Q -161.216 870.010 -161.226 870.051 Q -161.237 870.092 -161.249 870.133 Q -161.260 870.174 -161.273 870.215 Q -161.285 870.255 -161.299 870.296 Q -161.312 870.336 -161.327 870.376 Q -161.341 870.416 -161.357 870.456 Q -161.372 870.495 -161.388 870.535 Q -161.405 870.574 -161.422 870.613 Q -161.439 870.652 -161.457 870.690 Q -161.475 870.729 -161.494 870.767 Q -161.513 870.805 -161.533 870.843 Q -161.553 870.881 -161.573 870.918 Q -161.594 870.955 -161.616 870.992 Q -161.637 871.029 -161.660 871.065 Q -161.682 871.102 -161.705 871.137 Q -161.729 871.173 -161.753 871.208 Q -161.777 871.244 -161.802 871.279 Q -161.827 871.313 -161.852 871.347 Q -161.878 871.382 -161.904 871.415 Q -161.931 871.449 -161.958 871.482 Q -161.985 871.515 -162.013 871.547 Q -162.041 871.580 -162.070 871.612 Q -162.099 871.643 -162.128 871.675 Q -162.158 871.706 -162.188 871.736 Q -162.218 871.767 -162.249 871.797 Q -162.280 871.826 -162.311 871.855 Q -162.343 871.885 -162.375 871.913 Q -162.407 871.941 -162.440 871.969 Q -162.473 871.997 -162.507 872.024 Q -162.540 872.051 -162.574 872.077 Q -162.608 872.103 -162.643 872.129 Q -162.678 872.154 -162.713 872.179 Q -162.749 872.204 -162.784 872.227 Q -162.820 872.251 -162.857 872.274 Q -162.893 872.298 -162.930 872.320 Q -162.967 872.342 -163.004 872.364 Q -163.042 872.385 -163.080 872.406 Q -163.118 872.427 -163.156 872.446 Q -163.194 872.466 -163.233 872.485 Q -163.272 872.504 -163.311 872.522 Q -163.351 872.540 -163.390 872.557 Q -163.430 872.575 -163.470 872.591 Q -163.510 872.607 -163.551 872.623 Q -163.591 872.638 -163.632 872.653 Q -163.673 872.667 -163.714 872.681 Q -163.755 872.695 -163.796 872.707 Q -163.838 872.720 -163.879 872.732 Q -163.921 872.744 -163.963 872.755 Q -164.005 872.766 -164.047 872.776 Q -164.090 872.785 -164.132 872.794 Q -164.174 872.804 -164.217 872.812 Q -164.260 872.820 -164.302 872.827 Q -164.345 872.834 -164.388 872.840 Q -164.431 872.846 -164.474 872.852 Q -164.517 872.857 -164.561 872.861 Q -164.604 872.866 -164.647 872.869 Q -164.690 872.872 -164.734 872.875 Q -164.777 872.877 -164.820 872.879 Q -164.864 872.880 -164.907 872.880 Q -164.951 872.881 -164.994 872.880 Q -165.038 872.880 -165.081 872.879 Q -165.124 872.877 -165.168 872.875 Q -165.211 872.872 -165.254 872.869 Q -165.298 872.866 -165.341 872.861 Q -165.384 872.857 -165.427 872.852 Q -165.470 872.846 -165.513 872.840 Q -165.556 872.834 -165.599 872.827 Q -165.642 872.820 -165.684 872.812 Q -165.727 872.804 -165.769 872.795 Q -165.812 872.786 -165.854 872.776 Q -165.896 872.766 -165.938 872.755 Q -165.980 872.744 -166.022 872.732 Q -166.064 872.720 -166.105 872.707 Q -166.146 872.695 -166.188 872.681 Q -166.229 872.667 -166.269 872.653 Q -166.310 872.638 -166.351 872.623 Q -166.391 872.607 -166.431 872.591 Q -166.471 872.575 -166.511 872.557 Q -166.551 872.540 -166.590 872.522 Q -166.629 872.504 -166.668 872.485 Q -166.707 872.466 -166.745 872.446 Q -166.784 872.426 -166.822 872.406 Q -166.859 872.385 -166.897 872.364 Q -166.934 872.342 -166.971 872.320 Q -167.008 872.298 -167.045 872.275 Q -167.081 872.251 -167.117 872.227 Q -167.153 872.204 -167.188 872.179 Q -167.223 872.154 -167.258 872.129 Q -167.293 872.103 -167.327 872.077 Q -167.361 872.051 -167.395 872.024 Q -167.428 871.997 -167.461 871.969 Q -167.494 871.941 -167.526 871.913 Q -167.558 871.885 -167.590 871.855 Q -167.621 871.826 -167.652 871.797 Q -167.683 871.767 -167.713 871.736 Q -167.744 871.706 -167.773 871.674 Q -167.803 871.643 -167.831 871.612 Q -167.860 871.580 -167.888 871.547 Q -167.916 871.515 -167.943 871.482 Q -167.970 871.449 -167.997 871.415 Q -168.023 871.382 -168.049 871.347 Q -168.075 871.313 -168.100 871.278 Q -168.125 871.244 -168.149 871.208 Q -168.173 871.173 -168.196 871.137 Q -168.219 871.102 -168.242 871.065 Q -168.264 871.029 -168.286 870.992 Q -168.307 870.955 -168.328 870.918 Q -168.349 870.881 -168.368 870.843 Q -168.388 870.805 -168.407 870.767 Q -168.426 870.729 -168.444 870.690 Q -168.462 870.652 -168.480 870.613 Q -168.497 870.574 -168.513 870.535 Q -168.529 870.495 -168.545 870.456 Q -168.560 870.416 -168.574 870.376 Q -168.589 870.336 -168.602 870.296 Q -168.616 870.255 -168.629 870.215 Q -168.641 870.174 -168.653 870.133 Q -168.664 870.092 -168.675 870.051 Q -168.686 870.010 -168.695 869.969 Q -168.705 869.927 -168.714 869.886 Q -168.723 869.844 -168.731 869.803 Q -168.738 869.761 -168.745 869.719 Q -168.752 869.677 -168.758 869.635 Q -168.764 869.593 -168.769 869.551 Q -168.774 869.509 -168.777 869.467 Q -168.781 869.424 -168.784 869.382 Q -168.787 869.340 -168.789 869.297 Q -168.791 869.255 -168.792 869.213 Q -168.793 869.170 -168.793 869.128 Q -168.793 869.085 -168.792 869.043 Q -168.791 869.001 -168.789 868.958 Q -168.787 868.916 -168.784 868.874 Q -168.781 868.831 -168.777 868.789 Q -168.774 868.747 -168.769 868.705 Q -168.764 868.663 -168.758 868.621 Q -168.752 868.579 -168.745 868.537 Q -168.738 868.495 -168.731 868.453 Q -168.723 868.411 -168.714 868.370 Q -168.705 868.328 -168.695 868.287 Q -168.686 868.246 -168.675 868.204 Q -168.664 868.163 -168.653 868.122 Q -168.641 868.082 -168.629 868.041 Q -168.616 868.000 -168.602 867.960 Q -168.589 867.920 -168.574 867.880 Q -168.560 867.840 -168.545 867.800 Q -168.529 867.760 -168.513 867.721 Q -168.497 867.682 -168.480 867.643 Q -168.462 867.604 -168.444 867.565 Q -168.426 867.527 -168.407 867.489 Q -168.388 867.451 -168.368 867.413 Q -168.349 867.375 -168.328 867.338 Q -168.307 867.301 -168.286 867.264 Q -168.264 867.227 -168.242 867.191 Q -168.219 867.154 -168.196 867.119 Q -168.173 867.083 -168.149 867.047 Q -168.125 867.012 -168.100 866.977 Q -168.075 866.943 -168.049 866.908 Q -168.023 866.874 -167.997 866.841 Q -167.970 866.807 -167.943 866.774 Q -167.916 866.741 -167.888 866.708 Q -167.860 866.676 -167.831 866.644 Q -167.802 866.612 -167.773 866.581 Q -167.744 866.550 -167.713 866.520 Q -167.683 866.489 -167.652 866.459 Q -167.621 866.430 -167.590 866.400 Q -167.558 866.371 -167.526 866.343 Q -167.494 866.314 -167.461 866.287 Q -167.428 866.259 -167.395 866.232 Q -167.361 866.205 -167.327 866.179 Q -167.293 866.153 -167.258 866.127 Q -167.223 866.102 -167.188 866.077 Q -167.153 866.052 -167.117 866.028 Q -167.081 866.004 -167.045 865.981 Q -167.008 865.958 -166.971 865.936 Q -166.934 865.914 -166.897 865.892 Q -166.859 865.871 -166.822 865.850 Q -166.784 865.829 -166.745 865.810 Q -166.707 865.790 -166.668 865.771 Q -166.629 865.752 -166.590 865.734 Q -166.551 865.716 -166.511 865.698 Q -166.471 865.681 -166.431 865.665 Q -166.391 865.648 -166.351 865.633 Q -166.310 865.618 -166.269 865.603 Q -166.229 865.589 -166.187 865.575 Q -166.146 865.561 -166.105 865.548 Q -166.063 865.536 -166.022 865.524 Q -165.980 865.512 -165.938 865.501 Q -165.896 865.490 -165.854 865.480 Q -165.812 865.470 -165.769 865.461 Q -165.727 865.452 -165.684 865.444 Q -165.642 865.436 -165.599 865.429 Q -165.556 865.422 -165.513 865.416 Q -165.470 865.409 -165.427 865.404 Q -165.384 865.399 -165.341 865.395 Q -165.298 865.390 -165.254 865.387 Q -165.211 865.383 -165.168 865.381 Q -165.124 865.379 -165.081 865.377 Q -165.037 865.376 -164.994 865.375 Z"></path>
    <path id="STROKE_804a7118-479c-4896-b068-cafd480c0cad" opacity="1.000" fill="none" stroke="#f6ffd2" stroke-width="nan" stroke-opacity="nan" stroke-linecap="round" stroke-linejoin="round" d="M -207.306 780.588 L -207.306 780.588 "></path>
    <path id="STROKE_e707c1cf-58a6-49ec-b06c-595804a1745b" opacity="1.000" fill="none" stroke="#f6ffd2" stroke-width="2.026" stroke-opacity="1.000" stroke-linecap="round" stroke-linejoin="round" d="M -207.349 776.836 Q -207.306 776.835 -207.262 776.836 Q -207.219 776.836 -207.175 776.837 Q -207.132 776.839 -207.089 776.841 Q -207.045 776.844 -207.002 776.847 Q -206.959 776.850 -206.915 776.855 Q -206.872 776.859 -206.829 776.864 Q -206.786 776.869 -206.743 776.876 Q -206.700 776.882 -206.657 776.889 Q -206.615 776.896 -206.572 776.904 Q -206.529 776.912 -206.487 776.921 Q -206.444 776.930 -206.402 776.940 Q -206.360 776.950 -206.318 776.961 Q -206.276 776.972 -206.234 776.984 Q -206.193 776.996 -206.151 777.009 Q -206.110 777.021 -206.069 777.035 Q -206.028 777.049 -205.987 777.063 Q -205.946 777.078 -205.906 777.093 Q -205.865 777.109 -205.825 777.125 Q -205.785 777.141 -205.745 777.159 Q -205.706 777.176 -205.666 777.194 Q -205.627 777.212 -205.588 777.231 Q -205.549 777.250 -205.511 777.270 Q -205.473 777.290 -205.435 777.310 Q -205.397 777.331 -205.359 777.352 Q -205.322 777.374 -205.285 777.396 Q -205.248 777.418 -205.212 777.442 Q -205.175 777.465 -205.139 777.489 Q -205.103 777.512 -205.068 777.537 Q -205.033 777.562 -204.998 777.587 Q -204.963 777.613 -204.929 777.639 Q -204.895 777.665 -204.862 777.692 Q -204.828 777.719 -204.795 777.747 Q -204.762 777.775 -204.730 777.803 Q -204.698 777.831 -204.666 777.861 Q -204.635 777.890 -204.604 777.920 Q -204.573 777.949 -204.543 777.980 Q -204.513 778.010 -204.483 778.041 Q -204.454 778.073 -204.425 778.104 Q -204.396 778.136 -204.368 778.169 Q -204.340 778.201 -204.313 778.234 Q -204.286 778.267 -204.259 778.301 Q -204.233 778.334 -204.207 778.369 Q -204.181 778.403 -204.157 778.438 Q -204.132 778.472 -204.108 778.508 Q -204.084 778.543 -204.060 778.579 Q -204.037 778.615 -204.015 778.651 Q -203.992 778.687 -203.971 778.724 Q -203.949 778.761 -203.928 778.798 Q -203.908 778.835 -203.888 778.873 Q -203.868 778.911 -203.849 778.949 Q -203.830 778.987 -203.812 779.026 Q -203.794 779.064 -203.777 779.103 Q -203.759 779.142 -203.743 779.181 Q -203.727 779.221 -203.712 779.260 Q -203.696 779.300 -203.682 779.340 Q -203.667 779.380 -203.654 779.420 Q -203.640 779.461 -203.628 779.501 Q -203.615 779.542 -203.604 779.583 Q -203.592 779.624 -203.581 779.665 Q -203.571 779.706 -203.561 779.747 Q -203.551 779.788 -203.542 779.830 Q -203.534 779.872 -203.526 779.913 Q -203.518 779.955 -203.511 779.997 Q -203.504 780.039 -203.498 780.081 Q -203.492 780.123 -203.488 780.165 Q -203.483 780.207 -203.479 780.249 Q -203.475 780.292 -203.472 780.334 Q -203.469 780.376 -203.467 780.418 Q -203.465 780.461 -203.464 780.503 Q -203.463 780.546 -203.463 780.588 Q -203.463 780.630 -203.464 780.673 Q -203.465 780.715 -203.467 780.758 Q -203.469 780.800 -203.472 780.842 Q -203.475 780.885 -203.479 780.927 Q -203.483 780.969 -203.488 781.011 Q -203.492 781.053 -203.498 781.095 Q -203.504 781.137 -203.511 781.179 Q -203.518 781.221 -203.526 781.263 Q -203.534 781.305 -203.542 781.346 Q -203.551 781.388 -203.561 781.429 Q -203.571 781.470 -203.581 781.511 Q -203.592 781.553 -203.604 781.594 Q -203.615 781.634 -203.628 781.675 Q -203.640 781.715 -203.654 781.756 Q -203.667 781.796 -203.682 781.836 Q -203.696 781.876 -203.712 781.916 Q -203.727 781.955 -203.743 781.995 Q -203.760 782.034 -203.777 782.073 Q -203.794 782.112 -203.812 782.151 Q -203.830 782.189 -203.849 782.227 Q -203.868 782.265 -203.888 782.303 Q -203.908 782.341 -203.928 782.378 Q -203.949 782.415 -203.971 782.452 Q -203.992 782.489 -204.015 782.525 Q -204.037 782.562 -204.060 782.597 Q -204.084 782.633 -204.108 782.669 Q -204.132 782.704 -204.157 782.739 Q -204.181 782.773 -204.207 782.808 Q -204.233 782.842 -204.259 782.875 Q -204.286 782.909 -204.313 782.942 Q -204.340 782.975 -204.368 783.008 Q -204.396 783.040 -204.425 783.072 Q -204.454 783.104 -204.483 783.135 Q -204.513 783.166 -204.543 783.196 Q -204.573 783.227 -204.604 783.257 Q -204.635 783.286 -204.666 783.316 Q -204.698 783.345 -204.730 783.373 Q -204.762 783.402 -204.795 783.429 Q -204.828 783.457 -204.862 783.484 Q -204.895 783.511 -204.929 783.537 Q -204.963 783.563 -204.998 783.589 Q -205.033 783.614 -205.068 783.639 Q -205.103 783.664 -205.139 783.688 Q -205.175 783.712 -205.212 783.735 Q -205.248 783.758 -205.285 783.780 Q -205.322 783.802 -205.359 783.824 Q -205.397 783.845 -205.435 783.866 Q -205.473 783.887 -205.511 783.906 Q -205.549 783.926 -205.588 783.945 Q -205.627 783.964 -205.666 783.982 Q -205.706 784.000 -205.745 784.018 Q -205.785 784.035 -205.825 784.051 Q -205.865 784.067 -205.906 784.083 Q -205.946 784.098 -205.987 784.113 Q -206.028 784.127 -206.069 784.141 Q -206.110 784.155 -206.151 784.167 Q -206.193 784.180 -206.234 784.192 Q -206.276 784.204 -206.318 784.215 Q -206.360 784.226 -206.402 784.236 Q -206.444 784.246 -206.487 784.255 Q -206.529 784.264 -206.572 784.272 Q -206.615 784.280 -206.657 784.287 Q -206.700 784.294 -206.743 784.300 Q -206.786 784.307 -206.829 784.312 Q -206.872 784.317 -206.915 784.321 Q -206.959 784.326 -207.002 784.329 Q -207.045 784.332 -207.089 784.335 Q -207.132 784.337 -207.175 784.339 Q -207.219 784.340 -207.262 784.341 Q -207.306 784.341 -207.349 784.341 Q -207.392 784.340 -207.436 784.339 Q -207.479 784.337 -207.523 784.335 Q -207.566 784.332 -207.609 784.329 Q -207.653 784.326 -207.696 784.321 Q -207.739 784.317 -207.782 784.312 Q -207.825 784.307 -207.868 784.300 Q -207.911 784.294 -207.954 784.287 Q -207.997 784.280 -208.039 784.272 Q -208.082 784.264 -208.124 784.255 Q -208.167 784.246 -208.209 784.236 Q -208.251 784.226 -208.293 784.215 Q -208.335 784.204 -208.377 784.192 Q -208.418 784.180 -208.460 784.167 Q -208.501 784.155 -208.542 784.141 Q -208.584 784.127 -208.624 784.113 Q -208.665 784.098 -208.706 784.083 Q -208.746 784.067 -208.786 784.051 Q -208.826 784.035 -208.866 784.018 Q -208.906 784.000 -208.945 783.982 Q -208.984 783.964 -209.023 783.945 Q -209.062 783.926 -209.100 783.906 Q -209.139 783.887 -209.176 783.866 Q -209.214 783.845 -209.252 783.824 Q -209.289 783.802 -209.326 783.780 Q -209.363 783.758 -209.400 783.735 Q -209.436 783.712 -209.472 783.688 Q -209.508 783.664 -209.543 783.639 Q -209.578 783.614 -209.613 783.589 Q -209.648 783.563 -209.682 783.537 Q -209.716 783.511 -209.750 783.484 Q -209.783 783.457 -209.816 783.429 Q -209.849 783.402 -209.881 783.373 Q -209.913 783.345 -209.945 783.316 Q -209.976 783.286 -210.007 783.257 Q -210.038 783.227 -210.068 783.196 Q -210.099 783.166 -210.128 783.135 Q -210.157 783.104 -210.186 783.072 Q -210.215 783.040 -210.243 783.008 Q -210.271 782.975 -210.298 782.942 Q -210.325 782.909 -210.352 782.875 Q -210.378 782.842 -210.404 782.808 Q -210.430 782.773 -210.455 782.739 Q -210.479 782.704 -210.504 782.669 Q -210.528 782.633 -210.551 782.598 Q -210.574 782.562 -210.597 782.525 Q -210.619 782.489 -210.641 782.452 Q -210.662 782.415 -210.683 782.378 Q -210.704 782.341 -210.723 782.303 Q -210.743 782.265 -210.762 782.227 Q -210.781 782.189 -210.799 782.151 Q -210.817 782.112 -210.835 782.073 Q -210.852 782.034 -210.868 781.995 Q -210.884 781.955 -210.900 781.916 Q -210.915 781.876 -210.929 781.836 Q -210.944 781.796 -210.957 781.756 Q -210.971 781.715 -210.983 781.675 Q -210.996 781.634 -211.008 781.594 Q -211.019 781.553 -211.030 781.511 Q -211.041 781.470 -211.050 781.429 Q -211.060 781.388 -211.069 781.346 Q -211.078 781.305 -211.085 781.263 Q -211.093 781.221 -211.100 781.179 Q -211.107 781.137 -211.113 781.095 Q -211.119 781.053 -211.124 781.011 Q -211.129 780.969 -211.132 780.927 Q -211.136 780.885 -211.139 780.842 Q -211.142 780.800 -211.144 780.758 Q -211.146 780.715 -211.147 780.673 Q -211.148 780.630 -211.148 780.588 Q -211.148 780.546 -211.147 780.503 Q -211.146 780.461 -211.144 780.418 Q -211.142 780.376 -211.139 780.334 Q -211.136 780.291 -211.132 780.249 Q -211.128 780.207 -211.124 780.165 Q -211.119 780.123 -211.113 780.081 Q -211.107 780.039 -211.100 779.997 Q -211.093 779.955 -211.085 779.913 Q -211.078 779.871 -211.069 779.830 Q -211.060 779.788 -211.050 779.747 Q -211.041 779.706 -211.030 779.665 Q -211.019 779.624 -211.008 779.583 Q -210.996 779.542 -210.983 779.501 Q -210.971 779.461 -210.957 779.420 Q -210.944 779.380 -210.929 779.340 Q -210.915 779.300 -210.900 779.260 Q -210.884 779.221 -210.868 779.181 Q -210.852 779.142 -210.834 779.103 Q -210.817 779.064 -210.799 779.026 Q -210.781 778.987 -210.762 778.949 Q -210.743 778.911 -210.723 778.873 Q -210.703 778.835 -210.683 778.798 Q -210.662 778.761 -210.641 778.724 Q -210.619 778.687 -210.597 778.651 Q -210.574 778.614 -210.551 778.579 Q -210.528 778.543 -210.504 778.508 Q -210.479 778.472 -210.455 778.438 Q -210.430 778.403 -210.404 778.369 Q -210.378 778.334 -210.352 778.301 Q -210.325 778.267 -210.298 778.234 Q -210.271 778.201 -210.243 778.169 Q -210.215 778.136 -210.186 778.104 Q -210.157 778.073 -210.128 778.041 Q -210.098 778.010 -210.068 777.980 Q -210.038 777.949 -210.007 777.919 Q -209.976 777.890 -209.945 777.860 Q -209.913 777.831 -209.881 777.803 Q -209.849 777.775 -209.816 777.747 Q -209.783 777.719 -209.750 777.692 Q -209.716 777.665 -209.682 777.639 Q -209.648 777.613 -209.613 777.587 Q -209.578 777.562 -209.543 777.537 Q -209.508 777.512 -209.472 777.489 Q -209.436 777.465 -209.400 777.441 Q -209.363 777.418 -209.326 777.396 Q -209.289 777.374 -209.252 777.352 Q -209.214 777.331 -209.176 777.310 Q -209.138 777.289 -209.100 777.270 Q -209.062 777.250 -209.023 777.231 Q -208.984 777.212 -208.945 777.194 Q -208.905 777.176 -208.866 777.159 Q -208.826 777.141 -208.786 777.125 Q -208.746 777.109 -208.706 777.093 Q -208.665 777.078 -208.624 777.063 Q -208.583 777.049 -208.542 777.035 Q -208.501 777.021 -208.460 777.009 Q -208.418 776.996 -208.377 776.984 Q -208.335 776.972 -208.293 776.961 Q -208.251 776.950 -208.209 776.940 Q -208.167 776.931 -208.124 776.922 Q -208.082 776.912 -208.039 776.904 Q -207.997 776.896 -207.954 776.889 Q -207.911 776.882 -207.868 776.876 Q -207.825 776.869 -207.782 776.864 Q -207.739 776.859 -207.696 776.855 Q -207.652 776.850 -207.609 776.847 Q -207.566 776.844 -207.522 776.841 Q -207.479 776.839 -207.436 776.837 Q -207.392 776.836 -207.349 776.836 Z"></path>
    <path id="STROKE_83bc51e3-40fb-46de-b00b-40d570ea9822" opacity="1.000" fill="none" stroke="#f6ffd2" stroke-width="nan" stroke-opacity="nan" stroke-linecap="round" stroke-linejoin="round" d="M -192.263 720.017 L -192.263 720.017 "></path>
    <path id="STROKE_d709939f-cefd-457e-a611-710c97924fa7" opacity="1.000" fill="none" stroke="#f6ffd2" stroke-width="2.026" stroke-opacity="1.000" stroke-linecap="round" stroke-linejoin="round" d="M -192.307 716.265 Q -192.263 716.264 -192.220 716.265 Q -192.177 716.265 -192.133 716.267 Q -192.090 716.268 -192.046 716.271 Q -192.003 716.273 -191.960 716.276 Q -191.916 716.280 -191.873 716.284 Q -191.830 716.288 -191.787 716.294 Q -191.744 716.299 -191.701 716.305 Q -191.658 716.311 -191.615 716.318 Q -191.572 716.325 -191.530 716.334 Q -191.487 716.342 -191.445 716.351 Q -191.402 716.360 -191.360 716.370 Q -191.318 716.380 -191.276 716.391 Q -191.234 716.401 -191.192 716.413 Q -191.150 716.425 -191.109 716.438 Q -191.068 716.451 -191.027 716.464 Q -190.985 716.478 -190.945 716.492 Q -190.904 716.507 -190.863 716.522 Q -190.823 716.538 -190.783 716.554 Q -190.743 716.571 -190.703 716.588 Q -190.663 716.605 -190.624 716.623 Q -190.585 716.641 -190.546 716.660 Q -190.507 716.679 -190.469 716.699 Q -190.430 716.719 -190.392 716.740 Q -190.355 716.760 -190.317 716.782 Q -190.280 716.803 -190.243 716.825 Q -190.206 716.848 -190.169 716.871 Q -190.133 716.894 -190.097 716.918 Q -190.061 716.942 -190.026 716.966 Q -189.991 716.991 -189.956 717.017 Q -189.921 717.042 -189.887 717.068 Q -189.853 717.094 -189.819 717.121 Q -189.786 717.148 -189.753 717.176 Q -189.720 717.204 -189.688 717.232 Q -189.656 717.261 -189.624 717.290 Q -189.593 717.319 -189.562 717.349 Q -189.531 717.379 -189.501 717.409 Q -189.470 717.440 -189.441 717.471 Q -189.412 717.502 -189.383 717.534 Q -189.354 717.565 -189.326 717.598 Q -189.298 717.630 -189.271 717.663 Q -189.244 717.696 -189.217 717.730 Q -189.191 717.764 -189.165 717.798 Q -189.139 717.832 -189.114 717.867 Q -189.089 717.901 -189.065 717.937 Q -189.041 717.972 -189.018 718.008 Q -188.995 718.044 -188.972 718.080 Q -188.950 718.116 -188.928 718.153 Q -188.907 718.190 -188.886 718.227 Q -188.865 718.265 -188.846 718.302 Q -188.826 718.340 -188.807 718.378 Q -188.788 718.416 -188.770 718.455 Q -188.752 718.493 -188.734 718.532 Q -188.717 718.571 -188.701 718.611 Q -188.685 718.650 -188.669 718.690 Q -188.654 718.729 -188.640 718.769 Q -188.625 718.809 -188.612 718.850 Q -188.598 718.890 -188.586 718.931 Q -188.573 718.971 -188.561 719.012 Q -188.550 719.053 -188.539 719.094 Q -188.528 719.135 -188.519 719.176 Q -188.509 719.218 -188.500 719.259 Q -188.491 719.301 -188.483 719.342 Q -188.476 719.384 -188.469 719.426 Q -188.462 719.468 -188.456 719.510 Q -188.450 719.552 -188.445 719.594 Q -188.440 719.636 -188.437 719.679 Q -188.433 719.721 -188.430 719.763 Q -188.427 719.805 -188.425 719.848 Q -188.423 719.890 -188.422 719.932 Q -188.421 719.975 -188.421 720.017 Q -188.421 720.060 -188.422 720.102 Q -188.423 720.145 -188.425 720.187 Q -188.427 720.229 -188.430 720.272 Q -188.433 720.314 -188.437 720.356 Q -188.440 720.398 -188.445 720.441 Q -188.450 720.483 -188.456 720.525 Q -188.462 720.567 -188.469 720.609 Q -188.476 720.650 -188.483 720.692 Q -188.491 720.734 -188.500 720.776 Q -188.509 720.817 -188.519 720.858 Q -188.528 720.900 -188.539 720.941 Q -188.550 720.982 -188.561 721.023 Q -188.573 721.064 -188.586 721.104 Q -188.598 721.145 -188.612 721.185 Q -188.625 721.225 -188.640 721.265 Q -188.654 721.305 -188.669 721.345 Q -188.685 721.385 -188.701 721.424 Q -188.717 721.463 -188.734 721.502 Q -188.752 721.541 -188.770 721.580 Q -188.788 721.618 -188.807 721.656 Q -188.826 721.695 -188.846 721.732 Q -188.865 721.770 -188.886 721.807 Q -188.907 721.845 -188.928 721.881 Q -188.950 721.918 -188.972 721.955 Q -188.995 721.991 -189.018 722.027 Q -189.041 722.063 -189.065 722.098 Q -189.089 722.133 -189.114 722.168 Q -189.139 722.203 -189.165 722.237 Q -189.191 722.271 -189.217 722.305 Q -189.244 722.338 -189.271 722.371 Q -189.298 722.404 -189.326 722.437 Q -189.354 722.469 -189.383 722.501 Q -189.412 722.533 -189.441 722.564 Q -189.470 722.595 -189.501 722.626 Q -189.531 722.656 -189.562 722.686 Q -189.593 722.716 -189.624 722.745 Q -189.656 722.774 -189.688 722.802 Q -189.720 722.831 -189.753 722.859 Q -189.786 722.886 -189.819 722.913 Q -189.853 722.940 -189.887 722.966 Q -189.921 722.993 -189.956 723.018 Q -189.991 723.044 -190.026 723.068 Q -190.061 723.093 -190.097 723.117 Q -190.133 723.141 -190.169 723.164 Q -190.206 723.187 -190.243 723.209 Q -190.280 723.232 -190.317 723.253 Q -190.355 723.275 -190.392 723.295 Q -190.430 723.316 -190.469 723.336 Q -190.507 723.355 -190.546 723.374 Q -190.585 723.393 -190.624 723.411 Q -190.663 723.430 -190.703 723.447 Q -190.743 723.464 -190.783 723.480 Q -190.823 723.497 -190.863 723.512 Q -190.904 723.528 -190.945 723.542 Q -190.985 723.557 -191.027 723.570 Q -191.068 723.584 -191.109 723.597 Q -191.150 723.609 -191.192 723.621 Q -191.234 723.633 -191.276 723.644 Q -191.318 723.655 -191.360 723.665 Q -191.402 723.675 -191.445 723.684 Q -191.487 723.693 -191.530 723.701 Q -191.572 723.709 -191.615 723.716 Q -191.658 723.723 -191.701 723.730 Q -191.744 723.736 -191.787 723.741 Q -191.830 723.746 -191.873 723.751 Q -191.916 723.755 -191.960 723.758 Q -192.003 723.762 -192.046 723.764 Q -192.090 723.767 -192.133 723.768 Q -192.177 723.769 -192.220 723.770 Q -192.263 723.770 -192.307 723.770 Q -192.350 723.769 -192.394 723.768 Q -192.437 723.767 -192.480 723.764 Q -192.524 723.762 -192.567 723.758 Q -192.610 723.755 -192.654 723.751 Q -192.697 723.746 -192.740 723.741 Q -192.783 723.736 -192.826 723.730 Q -192.869 723.724 -192.912 723.716 Q -192.954 723.709 -192.997 723.701 Q -193.040 723.693 -193.082 723.684 Q -193.125 723.675 -193.167 723.665 Q -193.209 723.655 -193.251 723.644 Q -193.293 723.633 -193.335 723.621 Q -193.376 723.610 -193.418 723.597 Q -193.459 723.584 -193.500 723.570 Q -193.541 723.557 -193.582 723.542 Q -193.623 723.528 -193.663 723.512 Q -193.704 723.497 -193.744 723.480 Q -193.784 723.464 -193.824 723.447 Q -193.863 723.430 -193.903 723.411 Q -193.942 723.393 -193.981 723.374 Q -194.020 723.355 -194.058 723.336 Q -194.096 723.316 -194.134 723.295 Q -194.172 723.275 -194.210 723.253 Q -194.247 723.232 -194.284 723.209 Q -194.321 723.187 -194.357 723.164 Q -194.394 723.141 -194.430 723.117 Q -194.466 723.093 -194.501 723.068 Q -194.536 723.044 -194.571 723.018 Q -194.606 722.993 -194.640 722.966 Q -194.674 722.940 -194.707 722.913 Q -194.741 722.886 -194.774 722.859 Q -194.807 722.831 -194.839 722.802 Q -194.871 722.774 -194.903 722.745 Q -194.934 722.716 -194.965 722.686 Q -194.996 722.656 -195.026 722.626 Q -195.056 722.595 -195.086 722.564 Q -195.115 722.533 -195.144 722.501 Q -195.173 722.469 -195.201 722.437 Q -195.229 722.404 -195.256 722.371 Q -195.283 722.338 -195.310 722.305 Q -195.336 722.271 -195.362 722.237 Q -195.387 722.203 -195.412 722.168 Q -195.437 722.133 -195.461 722.098 Q -195.485 722.062 -195.509 722.027 Q -195.532 721.991 -195.554 721.955 Q -195.577 721.918 -195.598 721.881 Q -195.620 721.845 -195.641 721.807 Q -195.661 721.770 -195.681 721.732 Q -195.701 721.695 -195.720 721.656 Q -195.739 721.618 -195.757 721.580 Q -195.775 721.541 -195.792 721.502 Q -195.809 721.463 -195.826 721.424 Q -195.842 721.385 -195.857 721.345 Q -195.873 721.305 -195.887 721.265 Q -195.902 721.225 -195.915 721.185 Q -195.929 721.145 -195.941 721.104 Q -195.954 721.064 -195.965 721.023 Q -195.977 720.982 -195.988 720.941 Q -195.998 720.900 -196.008 720.858 Q -196.018 720.817 -196.027 720.775 Q -196.035 720.734 -196.043 720.692 Q -196.051 720.650 -196.058 720.609 Q -196.065 720.567 -196.071 720.525 Q -196.076 720.483 -196.081 720.441 Q -196.086 720.398 -196.090 720.356 Q -196.094 720.314 -196.097 720.272 Q -196.100 720.229 -196.102 720.187 Q -196.104 720.145 -196.105 720.102 Q -196.106 720.060 -196.106 720.017 Q -196.106 719.975 -196.105 719.932 Q -196.104 719.890 -196.102 719.848 Q -196.100 719.805 -196.097 719.763 Q -196.094 719.721 -196.090 719.678 Q -196.086 719.636 -196.081 719.594 Q -196.076 719.552 -196.071 719.510 Q -196.065 719.468 -196.058 719.426 Q -196.051 719.384 -196.043 719.342 Q -196.035 719.301 -196.027 719.259 Q -196.018 719.218 -196.008 719.176 Q -195.998 719.135 -195.988 719.094 Q -195.977 719.053 -195.965 719.012 Q -195.954 718.971 -195.941 718.930 Q -195.929 718.890 -195.915 718.850 Q -195.902 718.809 -195.887 718.769 Q -195.873 718.729 -195.857 718.690 Q -195.842 718.650 -195.826 718.611 Q -195.809 718.571 -195.792 718.532 Q -195.775 718.493 -195.757 718.455 Q -195.739 718.416 -195.720 718.378 Q -195.701 718.340 -195.681 718.302 Q -195.661 718.265 -195.641 718.227 Q -195.620 718.190 -195.598 718.153 Q -195.577 718.116 -195.554 718.080 Q -195.532 718.044 -195.509 718.008 Q -195.485 717.972 -195.461 717.937 Q -195.437 717.901 -195.412 717.867 Q -195.387 717.832 -195.362 717.798 Q -195.336 717.764 -195.310 717.730 Q -195.283 717.696 -195.256 717.663 Q -195.229 717.630 -195.201 717.598 Q -195.173 717.565 -195.144 717.534 Q -195.115 717.502 -195.086 717.471 Q -195.056 717.440 -195.026 717.409 Q -194.996 717.379 -194.965 717.349 Q -194.934 717.319 -194.903 717.290 Q -194.871 717.261 -194.839 717.232 Q -194.807 717.204 -194.774 717.176 Q -194.741 717.148 -194.707 717.121 Q -194.674 717.094 -194.640 717.068 Q -194.606 717.042 -194.571 717.017 Q -194.536 716.991 -194.501 716.966 Q -194.465 716.942 -194.430 716.918 Q -194.394 716.894 -194.357 716.871 Q -194.321 716.848 -194.284 716.825 Q -194.247 716.803 -194.210 716.781 Q -194.172 716.760 -194.134 716.739 Q -194.096 716.719 -194.058 716.699 Q -194.019 716.679 -193.981 716.660 Q -193.942 716.641 -193.903 716.623 Q -193.863 716.605 -193.824 716.588 Q -193.784 716.571 -193.744 716.554 Q -193.704 716.538 -193.663 716.522 Q -193.623 716.507 -193.582 716.492 Q -193.541 716.478 -193.500 716.464 Q -193.459 716.451 -193.418 716.438 Q -193.376 716.425 -193.334 716.413 Q -193.293 716.401 -193.251 716.391 Q -193.209 716.380 -193.167 716.370 Q -193.124 716.360 -193.082 716.351 Q -193.040 716.342 -192.997 716.334 Q -192.954 716.326 -192.912 716.318 Q -192.869 716.311 -192.826 716.305 Q -192.783 716.299 -192.740 716.294 Q -192.697 716.288 -192.653 716.284 Q -192.610 716.280 -192.567 716.276 Q -192.524 716.273 -192.480 716.271 Q -192.437 716.268 -192.394 716.267 Q -192.350 716.265 -192.307 716.265 Z"></path>
    <path id="STROKE_4004f188-ccfe-47aa-95fa-5a5f3e75cb13" opacity="1.000" fill="none" stroke="#f6ffd2" stroke-width="0.517" stroke-opacity="1.000" stroke-linecap="round" stroke-linejoin="round" d="M -255.818 864.181 L -223.366 896.501 "></path>
    <path id="STROKE_c4a75aaa-cbd6-4509-a0c7-722d8fd49b83" opacity="1.000" fill="none" stroke="#f6ffd2" stroke-width="0.517" stroke-opacity="1.000" stroke-linecap="round" stroke-linejoin="round" d="M -192.718 831.977 L -255.405 863.768 "></path>
    <path id="STROKE_9ade1bd9-865a-4cd7-94f5-3e0efa7d0254" opacity="1.000" fill="none" stroke="#f6ffd2" stroke-width="0.517" stroke-opacity="1.000" stroke-linecap="round" stroke-linejoin="round" d="M -192.212 832.011 L -164.688 869.336 "></path>
    <path id="STROKE_d8cf7020-13de-4c7b-b882-bd95c0dfed60" opacity="1.000" fill="none" stroke="#f6ffd2" stroke-width="0.517" stroke-opacity="1.000" stroke-linecap="round" stroke-linejoin="round" d="M -207.221 780.875 L -192.188 832.086 "></path>
    <path id="STROKE_8d55420c-accd-4d56-b8f1-3de00ee7ea13" opacity="1.000" fill="none" stroke="#f6ffd2" stroke-width="0.517" stroke-opacity="1.000" stroke-linecap="round" stroke-linejoin="round" d="M -192.348 720.356 L -207.377 780.641 "></path>
  </g>
</svg>