<?xml version="1.0" encoding="UTF-8" standalone="yes"?>
<svg xmlns="http://www.w3.org/2000/svg" xmlns:xlink="http://www.w3.org/1999/xlink" width="365.795px" height="623.382px" version="1.1" viewBox="-235.449 596.155 182.898 311.691">
  <!--
	Exported with Concepts: Smarter Sketching
	Version: 3410 on iOS 18.1
	https://concepts.app/
	-->
  <title>3CB077C7-6CB9-4846-8222-A362D22E77A5</title>
  <desc>Drawing exported from Concepts: Smarter Sketching</desc>
  <defs></defs>
  <g id="Pen" opacity="1.000">
    <path id="STROKE_ef46b1a0-6d2b-48c4-b897-62fa0edcac9e" opacity="1.000" fill="none" stroke="#f6ffd2" stroke-width="nan" stroke-opacity="nan" stroke-linecap="round" stroke-linejoin="round" d="M -160.000 896.000 L -160.000 896.000 "></path>
    <path id="STROKE_79fe9ccc-47c3-4f72-b99c-32e43e61992a" opacity="1.000" fill="none" stroke="#f6ffd2" stroke-width="nan" stroke-opacity="nan" stroke-linecap="round" stroke-linejoin="round" d="M -224.000 864.000 L -224.000 864.000 "></path>
    <path id="STROKE_3f684431-8de3-4108-b4fa-dbe96a626ea5" opacity="1.000" fill="none" stroke="#f6ffd2" stroke-width="nan" stroke-opacity="nan" stroke-linecap="round" stroke-linejoin="round" d="M -96.000 800.000 L -96.000 800.000 "></path>
    <path id="STROKE_9af89f25-e701-4ef3-a779-cfc5282f59a3" opacity="1.000" fill="none" stroke="#f6ffd2" stroke-width="nan" stroke-opacity="nan" stroke-linecap="round" stroke-linejoin="round" d="M -64.000 896.000 L -64.000 896.000 "></path>
    <path id="STROKE_49f3a771-0836-4603-a6d2-c774950c5e27" opacity="1.000" fill="none" stroke="#f6ffd2" stroke-width="nan" stroke-opacity="nan" stroke-linecap="round" stroke-linejoin="round" d="M -128.000 672.000 L -128.000 672.000 "></path>
    <path id="STROKE_736c8e2a-3092-402f-95f3-42b74adc66d2" opacity="1.000" fill="none" stroke="#f6ffd2" stroke-width="nan" stroke-opacity="nan" stroke-linecap="round" stroke-linejoin="round" d="M -64.000 608.000 L -64.000 608.000 "></path>
    <path id="STROKE_f8f42ed2-f917-47a5-8859-f71449e19c9e" opacity="1.000" fill="none" stroke="#f6ffd2" stroke-width="2.001" stroke-opacity="1.000" stroke-linecap="round" stroke-linejoin="round" d="M -224.078 856.711 Q -224.000 856.711 -223.922 856.711 Q -223.844 856.712 -223.766 856.715 Q -223.689 856.718 -223.611 856.723 Q -223.533 856.727 -223.455 856.734 Q -223.378 856.740 -223.300 856.749 Q -223.223 856.757 -223.145 856.767 Q -223.068 856.777 -222.991 856.790 Q -222.914 856.802 -222.837 856.815 Q -222.760 856.829 -222.684 856.845 Q -222.608 856.861 -222.531 856.878 Q -222.455 856.896 -222.380 856.915 Q -222.304 856.935 -222.229 856.956 Q -222.153 856.977 -222.078 857.000 Q -222.004 857.023 -221.929 857.048 Q -221.855 857.072 -221.781 857.099 Q -221.708 857.125 -221.634 857.154 Q -221.561 857.182 -221.489 857.212 Q -221.416 857.242 -221.344 857.274 Q -221.272 857.305 -221.201 857.339 Q -221.130 857.372 -221.060 857.407 Q -220.989 857.443 -220.919 857.479 Q -220.850 857.516 -220.781 857.555 Q -220.712 857.593 -220.644 857.633 Q -220.576 857.673 -220.509 857.715 Q -220.442 857.757 -220.375 857.800 Q -220.309 857.844 -220.244 857.888 Q -220.178 857.933 -220.114 857.980 Q -220.050 858.026 -219.986 858.074 Q -219.923 858.122 -219.861 858.172 Q -219.799 858.221 -219.737 858.272 Q -219.676 858.323 -219.616 858.375 Q -219.556 858.428 -219.497 858.482 Q -219.438 858.535 -219.380 858.591 Q -219.322 858.646 -219.266 858.702 Q -219.209 858.759 -219.154 858.817 Q -219.098 858.875 -219.044 858.934 Q -218.990 858.993 -218.937 859.054 Q -218.884 859.114 -218.833 859.176 Q -218.781 859.238 -218.731 859.301 Q -218.681 859.364 -218.632 859.428 Q -218.583 859.492 -218.536 859.557 Q -218.488 859.623 -218.442 859.689 Q -218.396 859.755 -218.351 859.823 Q -218.307 859.890 -218.263 859.959 Q -218.220 860.028 -218.179 860.097 Q -218.137 860.167 -218.097 860.237 Q -218.056 860.308 -218.018 860.379 Q -217.979 860.451 -217.942 860.523 Q -217.905 860.596 -217.869 860.669 Q -217.834 860.742 -217.800 860.816 Q -217.765 860.890 -217.733 860.965 Q -217.701 861.040 -217.670 861.116 Q -217.639 861.191 -217.610 861.268 Q -217.581 861.344 -217.553 861.421 Q -217.525 861.498 -217.500 861.576 Q -217.474 861.654 -217.449 861.732 Q -217.425 861.810 -217.403 861.889 Q -217.380 861.968 -217.359 862.047 Q -217.338 862.127 -217.319 862.206 Q -217.300 862.286 -217.283 862.367 Q -217.265 862.447 -217.249 862.527 Q -217.234 862.608 -217.220 862.689 Q -217.206 862.770 -217.193 862.852 Q -217.181 862.933 -217.171 863.015 Q -217.160 863.096 -217.151 863.178 Q -217.142 863.260 -217.135 863.342 Q -217.128 863.424 -217.123 863.506 Q -217.118 863.588 -217.114 863.671 Q -217.111 863.753 -217.109 863.835 Q -217.107 863.918 -217.107 864.000 Q -217.107 864.082 -217.109 864.165 Q -217.111 864.247 -217.114 864.329 Q -217.118 864.412 -217.123 864.494 Q -217.128 864.576 -217.135 864.658 Q -217.142 864.740 -217.151 864.822 Q -217.160 864.904 -217.171 864.985 Q -217.181 865.067 -217.193 865.148 Q -217.206 865.230 -217.220 865.311 Q -217.234 865.392 -217.249 865.473 Q -217.265 865.553 -217.283 865.633 Q -217.300 865.714 -217.319 865.794 Q -217.338 865.873 -217.359 865.953 Q -217.380 866.032 -217.403 866.111 Q -217.425 866.190 -217.449 866.268 Q -217.474 866.346 -217.500 866.424 Q -217.525 866.502 -217.553 866.579 Q -217.581 866.656 -217.610 866.732 Q -217.639 866.809 -217.670 866.884 Q -217.701 866.960 -217.733 867.035 Q -217.765 867.110 -217.799 867.184 Q -217.834 867.258 -217.869 867.331 Q -217.905 867.404 -217.942 867.477 Q -217.979 867.549 -218.018 867.621 Q -218.056 867.692 -218.097 867.763 Q -218.137 867.833 -218.179 867.903 Q -218.220 867.972 -218.263 868.041 Q -218.307 868.110 -218.351 868.177 Q -218.396 868.245 -218.442 868.311 Q -218.488 868.377 -218.536 868.443 Q -218.583 868.508 -218.632 868.572 Q -218.681 868.636 -218.731 868.699 Q -218.781 868.762 -218.833 868.824 Q -218.884 868.886 -218.937 868.946 Q -218.990 869.007 -219.044 869.066 Q -219.098 869.125 -219.154 869.183 Q -219.209 869.241 -219.266 869.298 Q -219.322 869.354 -219.380 869.409 Q -219.438 869.465 -219.497 869.518 Q -219.556 869.572 -219.616 869.625 Q -219.676 869.677 -219.737 869.728 Q -219.799 869.779 -219.861 869.828 Q -219.923 869.878 -219.986 869.926 Q -220.050 869.974 -220.114 870.020 Q -220.178 870.067 -220.244 870.112 Q -220.309 870.157 -220.375 870.200 Q -220.442 870.243 -220.509 870.285 Q -220.576 870.327 -220.644 870.367 Q -220.712 870.407 -220.781 870.445 Q -220.850 870.484 -220.919 870.521 Q -220.989 870.557 -221.060 870.593 Q -221.130 870.628 -221.201 870.661 Q -221.272 870.695 -221.344 870.726 Q -221.416 870.758 -221.489 870.788 Q -221.561 870.818 -221.634 870.846 Q -221.708 870.875 -221.781 870.901 Q -221.855 870.928 -221.929 870.952 Q -222.004 870.977 -222.078 871.000 Q -222.153 871.023 -222.229 871.044 Q -222.304 871.065 -222.380 871.085 Q -222.455 871.104 -222.531 871.122 Q -222.607 871.139 -222.684 871.155 Q -222.760 871.171 -222.837 871.185 Q -222.914 871.198 -222.991 871.211 Q -223.068 871.223 -223.145 871.233 Q -223.223 871.243 -223.300 871.251 Q -223.378 871.260 -223.455 871.266 Q -223.533 871.273 -223.611 871.277 Q -223.688 871.282 -223.766 871.285 Q -223.844 871.288 -223.922 871.289 Q -224.000 871.289 -224.078 871.289 Q -224.156 871.288 -224.234 871.285 Q -224.311 871.282 -224.389 871.277 Q -224.467 871.273 -224.545 871.266 Q -224.622 871.260 -224.700 871.251 Q -224.777 871.243 -224.855 871.233 Q -224.932 871.223 -225.009 871.211 Q -225.086 871.198 -225.163 871.185 Q -225.240 871.171 -225.316 871.155 Q -225.393 871.139 -225.469 871.122 Q -225.545 871.104 -225.620 871.085 Q -225.696 871.065 -225.771 871.044 Q -225.847 871.023 -225.922 871.000 Q -225.996 870.977 -226.071 870.952 Q -226.145 870.928 -226.219 870.901 Q -226.292 870.875 -226.366 870.846 Q -226.439 870.818 -226.511 870.788 Q -226.584 870.758 -226.656 870.726 Q -226.728 870.695 -226.799 870.661 Q -226.870 870.628 -226.940 870.593 Q -227.011 870.557 -227.081 870.521 Q -227.150 870.484 -227.219 870.445 Q -227.288 870.407 -227.356 870.367 Q -227.424 870.327 -227.491 870.285 Q -227.558 870.243 -227.625 870.200 Q -227.691 870.157 -227.756 870.112 Q -227.822 870.067 -227.886 870.020 Q -227.950 869.974 -228.014 869.926 Q -228.077 869.878 -228.139 869.828 Q -228.201 869.779 -228.263 869.728 Q -228.324 869.677 -228.384 869.625 Q -228.444 869.572 -228.503 869.518 Q -228.562 869.465 -228.620 869.409 Q -228.678 869.354 -228.734 869.298 Q -228.791 869.241 -228.846 869.183 Q -228.902 869.125 -228.956 869.066 Q -229.010 869.007 -229.063 868.946 Q -229.116 868.886 -229.167 868.824 Q -229.219 868.762 -229.269 868.699 Q -229.319 868.636 -229.368 868.572 Q -229.417 868.508 -229.464 868.443 Q -229.512 868.377 -229.558 868.311 Q -229.604 868.245 -229.649 868.177 Q -229.693 868.110 -229.737 868.041 Q -229.780 867.972 -229.821 867.903 Q -229.863 867.833 -229.903 867.763 Q -229.944 867.692 -229.982 867.621 Q -230.021 867.549 -230.058 867.477 Q -230.095 867.404 -230.131 867.331 Q -230.166 867.258 -230.200 867.184 Q -230.235 867.110 -230.267 867.035 Q -230.299 866.960 -230.330 866.884 Q -230.361 866.809 -230.390 866.732 Q -230.419 866.656 -230.447 866.579 Q -230.475 866.502 -230.500 866.424 Q -230.526 866.346 -230.551 866.268 Q -230.575 866.190 -230.597 866.111 Q -230.620 866.032 -230.641 865.953 Q -230.662 865.873 -230.681 865.794 Q -230.700 865.714 -230.717 865.633 Q -230.735 865.553 -230.751 865.472 Q -230.766 865.392 -230.780 865.311 Q -230.794 865.230 -230.807 865.148 Q -230.819 865.067 -230.829 864.985 Q -230.840 864.904 -230.849 864.822 Q -230.858 864.740 -230.865 864.658 Q -230.872 864.576 -230.877 864.494 Q -230.882 864.412 -230.886 864.329 Q -230.889 864.247 -230.891 864.165 Q -230.893 864.082 -230.893 864.000 Q -230.893 863.918 -230.891 863.835 Q -230.889 863.753 -230.886 863.671 Q -230.882 863.588 -230.877 863.506 Q -230.872 863.424 -230.865 863.342 Q -230.858 863.260 -230.849 863.178 Q -230.840 863.096 -230.829 863.015 Q -230.819 862.933 -230.807 862.852 Q -230.794 862.770 -230.780 862.689 Q -230.766 862.608 -230.751 862.527 Q -230.735 862.447 -230.717 862.366 Q -230.700 862.286 -230.681 862.206 Q -230.662 862.127 -230.641 862.047 Q -230.620 861.968 -230.597 861.889 Q -230.575 861.810 -230.551 861.732 Q -230.526 861.654 -230.500 861.576 Q -230.475 861.498 -230.447 861.421 Q -230.419 861.344 -230.390 861.268 Q -230.361 861.191 -230.330 861.116 Q -230.299 861.040 -230.267 860.965 Q -230.234 860.890 -230.200 860.816 Q -230.166 860.742 -230.131 860.669 Q -230.095 860.596 -230.058 860.523 Q -230.021 860.451 -229.982 860.379 Q -229.944 860.308 -229.903 860.237 Q -229.863 860.167 -229.821 860.097 Q -229.780 860.027 -229.736 859.959 Q -229.693 859.890 -229.649 859.823 Q -229.604 859.755 -229.558 859.689 Q -229.512 859.622 -229.464 859.557 Q -229.417 859.492 -229.368 859.428 Q -229.319 859.364 -229.269 859.301 Q -229.219 859.238 -229.167 859.176 Q -229.116 859.114 -229.063 859.054 Q -229.010 858.993 -228.956 858.934 Q -228.902 858.875 -228.846 858.817 Q -228.791 858.759 -228.734 858.702 Q -228.678 858.646 -228.620 858.590 Q -228.562 858.535 -228.503 858.481 Q -228.444 858.428 -228.384 858.375 Q -228.324 858.323 -228.263 858.272 Q -228.201 858.221 -228.139 858.172 Q -228.077 858.122 -228.013 858.074 Q -227.950 858.026 -227.886 857.980 Q -227.821 857.933 -227.756 857.888 Q -227.691 857.843 -227.625 857.800 Q -227.558 857.757 -227.491 857.715 Q -227.424 857.673 -227.356 857.633 Q -227.288 857.593 -227.219 857.555 Q -227.150 857.516 -227.080 857.479 Q -227.011 857.443 -226.940 857.407 Q -226.870 857.372 -226.799 857.339 Q -226.728 857.305 -226.656 857.274 Q -226.584 857.242 -226.511 857.212 Q -226.439 857.182 -226.366 857.154 Q -226.292 857.125 -226.219 857.099 Q -226.145 857.072 -226.071 857.048 Q -225.996 857.023 -225.921 857.000 Q -225.847 856.977 -225.771 856.956 Q -225.696 856.935 -225.620 856.915 Q -225.545 856.896 -225.469 856.878 Q -225.392 856.861 -225.316 856.845 Q -225.239 856.829 -225.163 856.815 Q -225.086 856.802 -225.009 856.790 Q -224.932 856.777 -224.855 856.767 Q -224.777 856.757 -224.700 856.749 Q -224.622 856.740 -224.545 856.734 Q -224.467 856.727 -224.389 856.723 Q -224.311 856.718 -224.234 856.715 Q -224.156 856.712 -224.078 856.711 Z"></path>
    <path id="STROKE_41ee1a8e-93ea-48f6-9736-06bd0029f3c9" opacity="1.000" fill="none" stroke="#f6ffd2" stroke-width="nan" stroke-opacity="nan" stroke-linecap="round" stroke-linejoin="round" d="M -160.000 896.000 L -160.000 896.000 "></path>
    <path id="STROKE_fc51b9b1-a113-4349-ac11-f3c82113bf51" opacity="1.000" fill="none" stroke="#f6ffd2" stroke-width="2.001" stroke-opacity="1.000" stroke-linecap="round" stroke-linejoin="round" d="M -160.078 888.711 Q -160.000 888.711 -159.922 888.711 Q -159.844 888.712 -159.766 888.715 Q -159.689 888.718 -159.611 888.723 Q -159.533 888.727 -159.455 888.734 Q -159.378 888.740 -159.300 888.749 Q -159.223 888.757 -159.145 888.767 Q -159.068 888.777 -158.991 888.790 Q -158.914 888.802 -158.837 888.816 Q -158.760 888.829 -158.684 888.845 Q -158.607 888.861 -158.531 888.878 Q -158.455 888.896 -158.380 888.915 Q -158.304 888.935 -158.229 888.956 Q -158.153 888.977 -158.078 889.000 Q -158.004 889.023 -157.929 889.048 Q -157.855 889.072 -157.781 889.099 Q -157.708 889.125 -157.634 889.154 Q -157.561 889.182 -157.489 889.212 Q -157.416 889.242 -157.344 889.274 Q -157.272 889.306 -157.201 889.339 Q -157.130 889.372 -157.060 889.408 Q -156.989 889.443 -156.919 889.479 Q -156.850 889.516 -156.781 889.555 Q -156.712 889.593 -156.644 889.633 Q -156.576 889.673 -156.509 889.715 Q -156.442 889.757 -156.375 889.800 Q -156.309 889.844 -156.244 889.888 Q -156.178 889.933 -156.114 889.980 Q -156.050 890.026 -155.986 890.074 Q -155.923 890.122 -155.861 890.172 Q -155.799 890.221 -155.737 890.272 Q -155.676 890.323 -155.616 890.375 Q -155.556 890.428 -155.497 890.482 Q -155.438 890.535 -155.380 890.591 Q -155.322 890.646 -155.266 890.702 Q -155.209 890.759 -155.154 890.817 Q -155.098 890.875 -155.044 890.934 Q -154.990 890.993 -154.937 891.054 Q -154.884 891.114 -154.833 891.176 Q -154.781 891.238 -154.731 891.301 Q -154.681 891.364 -154.632 891.428 Q -154.583 891.492 -154.536 891.557 Q -154.488 891.623 -154.442 891.689 Q -154.396 891.755 -154.351 891.823 Q -154.307 891.890 -154.263 891.959 Q -154.220 892.028 -154.179 892.097 Q -154.137 892.167 -154.097 892.237 Q -154.056 892.308 -154.018 892.379 Q -153.979 892.451 -153.942 892.523 Q -153.905 892.596 -153.869 892.669 Q -153.834 892.742 -153.800 892.816 Q -153.766 892.890 -153.733 892.965 Q -153.701 893.040 -153.670 893.116 Q -153.639 893.191 -153.610 893.268 Q -153.581 893.344 -153.553 893.421 Q -153.525 893.498 -153.500 893.576 Q -153.474 893.654 -153.449 893.732 Q -153.425 893.810 -153.403 893.889 Q -153.380 893.968 -153.359 894.047 Q -153.338 894.127 -153.319 894.206 Q -153.300 894.286 -153.283 894.367 Q -153.265 894.447 -153.249 894.527 Q -153.234 894.608 -153.220 894.689 Q -153.206 894.770 -153.193 894.852 Q -153.181 894.933 -153.171 895.015 Q -153.160 895.096 -153.151 895.178 Q -153.142 895.260 -153.135 895.342 Q -153.128 895.424 -153.123 895.506 Q -153.118 895.588 -153.114 895.671 Q -153.111 895.753 -153.109 895.835 Q -153.107 895.918 -153.107 896.000 Q -153.107 896.082 -153.109 896.165 Q -153.111 896.247 -153.114 896.329 Q -153.118 896.412 -153.123 896.494 Q -153.128 896.576 -153.135 896.658 Q -153.142 896.740 -153.151 896.822 Q -153.160 896.904 -153.171 896.985 Q -153.181 897.067 -153.193 897.148 Q -153.206 897.230 -153.220 897.311 Q -153.234 897.392 -153.249 897.472 Q -153.265 897.553 -153.283 897.633 Q -153.300 897.714 -153.319 897.794 Q -153.338 897.873 -153.359 897.953 Q -153.380 898.032 -153.403 898.111 Q -153.425 898.190 -153.449 898.268 Q -153.474 898.346 -153.500 898.424 Q -153.525 898.502 -153.553 898.579 Q -153.581 898.656 -153.610 898.732 Q -153.639 898.809 -153.670 898.884 Q -153.701 898.960 -153.733 899.035 Q -153.765 899.110 -153.800 899.184 Q -153.834 899.258 -153.869 899.331 Q -153.905 899.404 -153.942 899.477 Q -153.979 899.549 -154.018 899.621 Q -154.056 899.692 -154.097 899.763 Q -154.137 899.833 -154.179 899.903 Q -154.220 899.972 -154.263 900.041 Q -154.307 900.109 -154.351 900.177 Q -154.396 900.245 -154.442 900.311 Q -154.488 900.377 -154.536 900.443 Q -154.583 900.508 -154.632 900.572 Q -154.681 900.636 -154.731 900.699 Q -154.781 900.762 -154.833 900.824 Q -154.884 900.886 -154.937 900.946 Q -154.990 901.007 -155.044 901.066 Q -155.098 901.125 -155.154 901.183 Q -155.209 901.241 -155.266 901.298 Q -155.322 901.354 -155.380 901.409 Q -155.438 901.465 -155.497 901.518 Q -155.556 901.572 -155.616 901.625 Q -155.676 901.677 -155.737 901.728 Q -155.799 901.779 -155.861 901.828 Q -155.923 901.878 -155.986 901.926 Q -156.050 901.974 -156.114 902.020 Q -156.178 902.067 -156.244 902.112 Q -156.309 902.157 -156.375 902.200 Q -156.442 902.243 -156.509 902.285 Q -156.576 902.327 -156.644 902.367 Q -156.712 902.407 -156.781 902.445 Q -156.850 902.484 -156.919 902.521 Q -156.989 902.557 -157.060 902.593 Q -157.130 902.628 -157.201 902.661 Q -157.272 902.695 -157.344 902.726 Q -157.416 902.758 -157.489 902.788 Q -157.561 902.818 -157.634 902.846 Q -157.708 902.875 -157.781 902.901 Q -157.855 902.928 -157.929 902.952 Q -158.004 902.977 -158.078 903.000 Q -158.153 903.023 -158.229 903.044 Q -158.304 903.065 -158.380 903.085 Q -158.455 903.104 -158.531 903.122 Q -158.607 903.139 -158.684 903.155 Q -158.760 903.171 -158.837 903.185 Q -158.914 903.198 -158.991 903.211 Q -159.068 903.223 -159.145 903.233 Q -159.223 903.243 -159.300 903.251 Q -159.378 903.260 -159.455 903.266 Q -159.533 903.273 -159.611 903.277 Q -159.689 903.282 -159.766 903.285 Q -159.844 903.288 -159.922 903.289 Q -160.000 903.290 -160.078 903.289 Q -160.156 903.288 -160.234 903.285 Q -160.311 903.282 -160.389 903.277 Q -160.467 903.273 -160.545 903.266 Q -160.622 903.260 -160.700 903.251 Q -160.777 903.243 -160.855 903.233 Q -160.932 903.223 -161.009 903.211 Q -161.086 903.198 -161.163 903.185 Q -161.240 903.171 -161.316 903.155 Q -161.393 903.139 -161.469 903.122 Q -161.545 903.104 -161.620 903.085 Q -161.696 903.065 -161.771 903.044 Q -161.847 903.023 -161.922 903.000 Q -161.996 902.977 -162.071 902.952 Q -162.145 902.928 -162.219 902.901 Q -162.292 902.875 -162.366 902.846 Q -162.439 902.818 -162.511 902.788 Q -162.584 902.758 -162.656 902.726 Q -162.728 902.695 -162.799 902.661 Q -162.870 902.628 -162.940 902.593 Q -163.011 902.557 -163.081 902.521 Q -163.150 902.484 -163.219 902.445 Q -163.288 902.407 -163.356 902.367 Q -163.424 902.327 -163.491 902.285 Q -163.558 902.243 -163.625 902.200 Q -163.691 902.157 -163.756 902.112 Q -163.822 902.067 -163.886 902.020 Q -163.950 901.974 -164.014 901.926 Q -164.077 901.878 -164.139 901.828 Q -164.201 901.779 -164.263 901.728 Q -164.324 901.677 -164.384 901.625 Q -164.444 901.572 -164.503 901.518 Q -164.562 901.465 -164.620 901.409 Q -164.678 901.354 -164.734 901.298 Q -164.791 901.241 -164.846 901.183 Q -164.902 901.125 -164.956 901.066 Q -165.010 901.007 -165.063 900.946 Q -165.116 900.886 -165.167 900.824 Q -165.219 900.762 -165.269 900.699 Q -165.319 900.636 -165.368 900.572 Q -165.417 900.508 -165.464 900.443 Q -165.512 900.377 -165.558 900.311 Q -165.604 900.245 -165.649 900.177 Q -165.693 900.110 -165.737 900.041 Q -165.780 899.972 -165.821 899.903 Q -165.863 899.833 -165.903 899.763 Q -165.944 899.692 -165.982 899.621 Q -166.021 899.549 -166.058 899.477 Q -166.095 899.404 -166.131 899.331 Q -166.166 899.258 -166.200 899.184 Q -166.235 899.110 -166.267 899.035 Q -166.299 898.960 -166.330 898.884 Q -166.361 898.809 -166.390 898.732 Q -166.419 898.656 -166.447 898.579 Q -166.475 898.502 -166.500 898.424 Q -166.526 898.346 -166.551 898.268 Q -166.575 898.190 -166.597 898.111 Q -166.620 898.032 -166.641 897.953 Q -166.662 897.873 -166.681 897.794 Q -166.700 897.714 -166.717 897.633 Q -166.735 897.553 -166.751 897.472 Q -166.766 897.392 -166.780 897.311 Q -166.794 897.230 -166.807 897.148 Q -166.819 897.067 -166.829 896.985 Q -166.840 896.904 -166.849 896.822 Q -166.858 896.740 -166.865 896.658 Q -166.872 896.576 -166.877 896.494 Q -166.882 896.412 -166.886 896.329 Q -166.889 896.247 -166.891 896.165 Q -166.893 896.082 -166.893 896.000 Q -166.893 895.918 -166.891 895.835 Q -166.889 895.753 -166.886 895.671 Q -166.882 895.588 -166.877 895.506 Q -166.872 895.424 -166.865 895.342 Q -166.858 895.260 -166.849 895.178 Q -166.840 895.096 -166.829 895.015 Q -166.819 894.933 -166.807 894.852 Q -166.794 894.770 -166.780 894.689 Q -166.766 894.608 -166.751 894.527 Q -166.735 894.447 -166.717 894.366 Q -166.700 894.286 -166.681 894.206 Q -166.662 894.127 -166.641 894.047 Q -166.620 893.968 -166.597 893.889 Q -166.575 893.810 -166.551 893.732 Q -166.526 893.654 -166.500 893.576 Q -166.475 893.498 -166.447 893.421 Q -166.419 893.344 -166.390 893.268 Q -166.361 893.191 -166.330 893.116 Q -166.299 893.040 -166.267 892.965 Q -166.234 892.890 -166.200 892.816 Q -166.166 892.742 -166.131 892.669 Q -166.095 892.596 -166.058 892.523 Q -166.021 892.451 -165.982 892.379 Q -165.944 892.308 -165.903 892.237 Q -165.863 892.167 -165.821 892.097 Q -165.780 892.028 -165.736 891.959 Q -165.693 891.890 -165.649 891.823 Q -165.604 891.755 -165.558 891.689 Q -165.512 891.623 -165.464 891.557 Q -165.417 891.492 -165.368 891.428 Q -165.319 891.364 -165.269 891.301 Q -165.219 891.238 -165.167 891.176 Q -165.116 891.114 -165.063 891.054 Q -165.010 890.993 -164.956 890.934 Q -164.902 890.875 -164.846 890.817 Q -164.791 890.759 -164.734 890.702 Q -164.678 890.646 -164.620 890.591 Q -164.562 890.535 -164.503 890.481 Q -164.444 890.428 -164.384 890.375 Q -164.324 890.323 -164.263 890.272 Q -164.201 890.221 -164.139 890.172 Q -164.077 890.122 -164.013 890.074 Q -163.950 890.026 -163.886 889.980 Q -163.821 889.933 -163.756 889.888 Q -163.691 889.844 -163.625 889.800 Q -163.558 889.757 -163.491 889.715 Q -163.424 889.673 -163.356 889.633 Q -163.288 889.593 -163.219 889.555 Q -163.150 889.516 -163.080 889.479 Q -163.011 889.443 -162.940 889.407 Q -162.870 889.372 -162.799 889.339 Q -162.728 889.305 -162.656 889.274 Q -162.584 889.242 -162.511 889.212 Q -162.439 889.182 -162.366 889.154 Q -162.292 889.125 -162.219 889.099 Q -162.145 889.072 -162.071 889.048 Q -161.996 889.023 -161.921 889.000 Q -161.847 888.977 -161.771 888.956 Q -161.696 888.935 -161.620 888.915 Q -161.545 888.896 -161.469 888.878 Q -161.392 888.861 -161.316 888.845 Q -161.239 888.829 -161.163 888.815 Q -161.086 888.802 -161.009 888.790 Q -160.932 888.777 -160.854 888.767 Q -160.777 888.757 -160.700 888.749 Q -160.622 888.740 -160.545 888.734 Q -160.467 888.727 -160.389 888.723 Q -160.311 888.718 -160.234 888.715 Q -160.156 888.712 -160.078 888.711 Z"></path>
    <path id="STROKE_44316912-1c61-4b1d-a7a8-ea1c818e47e2" opacity="1.000" fill="none" stroke="#f6ffd2" stroke-width="nan" stroke-opacity="nan" stroke-linecap="round" stroke-linejoin="round" d="M -64.000 896.000 L -64.000 896.000 "></path>
    <path id="STROKE_fc0ff668-3682-40d0-a775-d67863984f2e" opacity="1.000" fill="none" stroke="#f6ffd2" stroke-width="nan" stroke-opacity="nan" stroke-linecap="round" stroke-linejoin="round" d="M -64.000 896.000 L -64.000 896.000 "></path>
    <path id="STROKE_5eef15ff-ee78-41e7-b4c4-e8339126a76b" opacity="1.000" fill="none" stroke="#f6ffd2" stroke-width="2.001" stroke-opacity="1.000" stroke-linecap="round" stroke-linejoin="round" d="M -64.078 888.711 Q -64.000 888.711 -63.922 888.711 Q -63.844 888.712 -63.766 888.715 Q -63.689 888.718 -63.611 888.723 Q -63.533 888.727 -63.455 888.734 Q -63.378 888.740 -63.300 888.749 Q -63.223 888.757 -63.145 888.767 Q -63.068 888.777 -62.991 888.790 Q -62.914 888.802 -62.837 888.816 Q -62.760 888.829 -62.684 888.845 Q -62.608 888.861 -62.531 888.878 Q -62.455 888.896 -62.380 888.915 Q -62.304 888.935 -62.229 888.956 Q -62.153 888.977 -62.079 889.000 Q -62.004 889.023 -61.929 889.048 Q -61.855 889.072 -61.781 889.099 Q -61.708 889.125 -61.634 889.154 Q -61.561 889.182 -61.489 889.212 Q -61.416 889.242 -61.344 889.274 Q -61.272 889.306 -61.201 889.339 Q -61.130 889.372 -61.060 889.408 Q -60.989 889.443 -60.919 889.479 Q -60.850 889.516 -60.781 889.555 Q -60.712 889.593 -60.644 889.633 Q -60.576 889.673 -60.509 889.715 Q -60.442 889.757 -60.375 889.800 Q -60.309 889.844 -60.244 889.888 Q -60.178 889.933 -60.114 889.980 Q -60.050 890.026 -59.986 890.074 Q -59.923 890.122 -59.861 890.172 Q -59.799 890.221 -59.737 890.272 Q -59.676 890.323 -59.616 890.375 Q -59.556 890.428 -59.497 890.482 Q -59.438 890.535 -59.380 890.591 Q -59.322 890.646 -59.266 890.702 Q -59.209 890.759 -59.154 890.817 Q -59.098 890.875 -59.044 890.934 Q -58.990 890.993 -58.937 891.054 Q -58.884 891.114 -58.833 891.176 Q -58.781 891.238 -58.731 891.301 Q -58.681 891.364 -58.632 891.428 Q -58.583 891.492 -58.536 891.557 Q -58.488 891.623 -58.442 891.689 Q -58.396 891.755 -58.351 891.823 Q -58.307 891.890 -58.264 891.959 Q -58.220 892.028 -58.179 892.097 Q -58.137 892.167 -58.097 892.237 Q -58.056 892.308 -58.018 892.379 Q -57.979 892.451 -57.942 892.523 Q -57.905 892.596 -57.869 892.669 Q -57.834 892.742 -57.800 892.816 Q -57.766 892.890 -57.733 892.965 Q -57.701 893.040 -57.670 893.116 Q -57.639 893.191 -57.610 893.268 Q -57.581 893.344 -57.553 893.421 Q -57.526 893.498 -57.500 893.576 Q -57.474 893.654 -57.449 893.732 Q -57.425 893.810 -57.403 893.889 Q -57.380 893.968 -57.359 894.047 Q -57.338 894.127 -57.319 894.206 Q -57.300 894.286 -57.283 894.367 Q -57.265 894.447 -57.249 894.527 Q -57.234 894.608 -57.220 894.689 Q -57.206 894.770 -57.193 894.852 Q -57.181 894.933 -57.171 895.015 Q -57.160 895.096 -57.151 895.178 Q -57.142 895.260 -57.135 895.342 Q -57.128 895.424 -57.123 895.506 Q -57.118 895.588 -57.114 895.671 Q -57.111 895.753 -57.109 895.835 Q -57.107 895.918 -57.107 896.000 Q -57.107 896.082 -57.109 896.165 Q -57.111 896.247 -57.114 896.329 Q -57.118 896.412 -57.123 896.494 Q -57.128 896.576 -57.135 896.658 Q -57.142 896.740 -57.151 896.822 Q -57.160 896.904 -57.171 896.985 Q -57.181 897.067 -57.193 897.148 Q -57.206 897.230 -57.220 897.311 Q -57.234 897.392 -57.249 897.472 Q -57.265 897.553 -57.283 897.633 Q -57.300 897.714 -57.319 897.794 Q -57.338 897.873 -57.359 897.953 Q -57.380 898.032 -57.403 898.111 Q -57.425 898.190 -57.449 898.268 Q -57.474 898.346 -57.500 898.424 Q -57.525 898.502 -57.553 898.579 Q -57.581 898.656 -57.610 898.732 Q -57.639 898.809 -57.670 898.884 Q -57.701 898.960 -57.733 899.035 Q -57.766 899.110 -57.800 899.184 Q -57.834 899.258 -57.869 899.331 Q -57.905 899.404 -57.942 899.477 Q -57.979 899.549 -58.018 899.621 Q -58.056 899.692 -58.097 899.763 Q -58.137 899.833 -58.179 899.903 Q -58.220 899.972 -58.263 900.041 Q -58.307 900.109 -58.351 900.177 Q -58.396 900.245 -58.442 900.311 Q -58.488 900.377 -58.536 900.443 Q -58.583 900.508 -58.632 900.572 Q -58.681 900.636 -58.731 900.699 Q -58.781 900.762 -58.833 900.824 Q -58.884 900.886 -58.937 900.946 Q -58.990 901.007 -59.044 901.066 Q -59.098 901.125 -59.154 901.183 Q -59.209 901.241 -59.266 901.298 Q -59.322 901.354 -59.380 901.409 Q -59.438 901.465 -59.497 901.518 Q -59.556 901.572 -59.616 901.625 Q -59.676 901.677 -59.737 901.728 Q -59.799 901.779 -59.861 901.828 Q -59.923 901.878 -59.986 901.926 Q -60.050 901.974 -60.114 902.020 Q -60.178 902.067 -60.244 902.112 Q -60.309 902.157 -60.375 902.200 Q -60.442 902.243 -60.509 902.285 Q -60.576 902.327 -60.644 902.367 Q -60.712 902.407 -60.781 902.445 Q -60.850 902.484 -60.919 902.521 Q -60.989 902.557 -61.060 902.593 Q -61.130 902.628 -61.201 902.661 Q -61.272 902.695 -61.344 902.726 Q -61.416 902.758 -61.489 902.788 Q -61.561 902.818 -61.634 902.846 Q -61.708 902.875 -61.781 902.901 Q -61.855 902.928 -61.929 902.952 Q -62.004 902.977 -62.078 903.000 Q -62.153 903.023 -62.229 903.044 Q -62.304 903.065 -62.380 903.085 Q -62.455 903.104 -62.531 903.122 Q -62.607 903.139 -62.684 903.155 Q -62.760 903.171 -62.837 903.185 Q -62.914 903.198 -62.991 903.211 Q -63.068 903.223 -63.145 903.233 Q -63.223 903.243 -63.300 903.251 Q -63.378 903.260 -63.455 903.266 Q -63.533 903.273 -63.611 903.277 Q -63.689 903.282 -63.766 903.285 Q -63.844 903.288 -63.922 903.289 Q -64.000 903.290 -64.078 903.289 Q -64.156 903.288 -64.234 903.285 Q -64.312 903.282 -64.389 903.277 Q -64.467 903.273 -64.545 903.266 Q -64.622 903.260 -64.700 903.251 Q -64.777 903.243 -64.855 903.233 Q -64.932 903.223 -65.009 903.211 Q -65.086 903.198 -65.163 903.185 Q -65.240 903.171 -65.316 903.155 Q -65.393 903.139 -65.469 903.122 Q -65.545 903.104 -65.620 903.085 Q -65.696 903.065 -65.771 903.044 Q -65.847 903.023 -65.922 903.000 Q -65.996 902.977 -66.071 902.952 Q -66.145 902.928 -66.219 902.901 Q -66.292 902.875 -66.366 902.846 Q -66.439 902.818 -66.511 902.788 Q -66.584 902.758 -66.656 902.726 Q -66.728 902.695 -66.799 902.661 Q -66.870 902.628 -66.940 902.593 Q -67.011 902.557 -67.081 902.521 Q -67.150 902.484 -67.219 902.445 Q -67.288 902.407 -67.356 902.367 Q -67.424 902.327 -67.491 902.285 Q -67.558 902.243 -67.625 902.200 Q -67.691 902.157 -67.756 902.112 Q -67.822 902.067 -67.886 902.020 Q -67.950 901.974 -68.014 901.926 Q -68.077 901.878 -68.139 901.828 Q -68.201 901.779 -68.263 901.728 Q -68.324 901.677 -68.384 901.625 Q -68.444 901.572 -68.503 901.518 Q -68.562 901.465 -68.620 901.409 Q -68.678 901.354 -68.734 901.298 Q -68.791 901.241 -68.846 901.183 Q -68.902 901.125 -68.956 901.066 Q -69.010 901.007 -69.063 900.946 Q -69.116 900.886 -69.167 900.824 Q -69.219 900.762 -69.269 900.699 Q -69.319 900.636 -69.368 900.572 Q -69.417 900.508 -69.464 900.443 Q -69.512 900.377 -69.558 900.311 Q -69.604 900.245 -69.649 900.177 Q -69.693 900.110 -69.737 900.041 Q -69.780 899.972 -69.821 899.903 Q -69.863 899.833 -69.903 899.763 Q -69.944 899.692 -69.982 899.621 Q -70.021 899.549 -70.058 899.477 Q -70.095 899.404 -70.131 899.331 Q -70.166 899.258 -70.201 899.184 Q -70.235 899.110 -70.267 899.035 Q -70.299 898.960 -70.330 898.884 Q -70.361 898.809 -70.390 898.732 Q -70.419 898.656 -70.447 898.579 Q -70.475 898.502 -70.500 898.424 Q -70.526 898.346 -70.551 898.268 Q -70.575 898.190 -70.597 898.111 Q -70.620 898.032 -70.641 897.953 Q -70.662 897.873 -70.681 897.794 Q -70.700 897.714 -70.718 897.633 Q -70.735 897.553 -70.751 897.472 Q -70.766 897.392 -70.780 897.311 Q -70.794 897.230 -70.807 897.148 Q -70.819 897.067 -70.830 896.985 Q -70.840 896.904 -70.849 896.822 Q -70.858 896.740 -70.865 896.658 Q -70.872 896.576 -70.877 896.494 Q -70.882 896.412 -70.886 896.329 Q -70.889 896.247 -70.891 896.165 Q -70.893 896.082 -70.893 896.000 Q -70.893 895.918 -70.891 895.835 Q -70.889 895.753 -70.886 895.671 Q -70.882 895.588 -70.877 895.506 Q -70.872 895.424 -70.865 895.342 Q -70.858 895.260 -70.849 895.178 Q -70.840 895.096 -70.830 895.015 Q -70.819 894.933 -70.807 894.852 Q -70.794 894.770 -70.780 894.689 Q -70.766 894.608 -70.751 894.527 Q -70.735 894.447 -70.717 894.366 Q -70.700 894.286 -70.681 894.206 Q -70.662 894.127 -70.641 894.047 Q -70.620 893.968 -70.597 893.889 Q -70.575 893.810 -70.551 893.732 Q -70.526 893.654 -70.500 893.576 Q -70.475 893.498 -70.447 893.421 Q -70.419 893.344 -70.390 893.268 Q -70.361 893.191 -70.330 893.116 Q -70.299 893.040 -70.267 892.965 Q -70.235 892.890 -70.200 892.816 Q -70.166 892.742 -70.131 892.669 Q -70.095 892.596 -70.058 892.523 Q -70.021 892.451 -69.982 892.379 Q -69.944 892.308 -69.903 892.237 Q -69.863 892.167 -69.821 892.097 Q -69.780 892.028 -69.737 891.959 Q -69.693 891.890 -69.649 891.823 Q -69.604 891.755 -69.558 891.689 Q -69.512 891.623 -69.464 891.557 Q -69.417 891.492 -69.368 891.428 Q -69.319 891.364 -69.269 891.301 Q -69.219 891.238 -69.167 891.176 Q -69.116 891.114 -69.063 891.054 Q -69.010 890.993 -68.956 890.934 Q -68.902 890.875 -68.846 890.817 Q -68.791 890.759 -68.734 890.702 Q -68.678 890.646 -68.620 890.591 Q -68.562 890.535 -68.503 890.481 Q -68.444 890.428 -68.384 890.375 Q -68.324 890.323 -68.263 890.272 Q -68.201 890.221 -68.139 890.172 Q -68.077 890.122 -68.014 890.074 Q -67.950 890.026 -67.886 889.980 Q -67.822 889.933 -67.756 889.888 Q -67.691 889.844 -67.625 889.800 Q -67.558 889.757 -67.491 889.715 Q -67.424 889.673 -67.356 889.633 Q -67.288 889.593 -67.219 889.555 Q -67.150 889.516 -67.081 889.479 Q -67.011 889.443 -66.940 889.407 Q -66.870 889.372 -66.799 889.339 Q -66.728 889.305 -66.656 889.274 Q -66.584 889.242 -66.511 889.212 Q -66.439 889.182 -66.366 889.154 Q -66.292 889.125 -66.219 889.099 Q -66.145 889.072 -66.071 889.048 Q -65.996 889.023 -65.921 889.000 Q -65.847 888.977 -65.771 888.956 Q -65.696 888.935 -65.620 888.915 Q -65.545 888.896 -65.469 888.878 Q -65.392 888.861 -65.316 888.845 Q -65.240 888.829 -65.163 888.815 Q -65.086 888.802 -65.009 888.790 Q -64.932 888.777 -64.855 888.767 Q -64.777 888.757 -64.700 888.749 Q -64.622 888.740 -64.545 888.734 Q -64.467 888.727 -64.389 888.723 Q -64.311 888.718 -64.234 888.715 Q -64.156 888.712 -64.078 888.711 Z"></path>
    <path id="STROKE_8993a953-6781-4316-ab09-fc34ae578b19" opacity="1.000" fill="none" stroke="#f6ffd2" stroke-width="nan" stroke-opacity="nan" stroke-linecap="round" stroke-linejoin="round" d="M -96.000 800.000 L -96.000 800.000 "></path>
    <path id="STROKE_4feff00c-14a0-450a-90de-15b2fdd5f8b8" opacity="1.000" fill="none" stroke="#f6ffd2" stroke-width="nan" stroke-opacity="nan" stroke-linecap="round" stroke-linejoin="round" d="M -96.000 800.000 L -96.000 800.000 "></path>
    <path id="STROKE_ab154e2a-16ab-4683-a727-a2349b0ff2b2" opacity="1.000" fill="none" stroke="#f6ffd2" stroke-width="2.001" stroke-opacity="1.000" stroke-linecap="round" stroke-linejoin="round" d="M -96.078 792.711 Q -96.000 792.711 -95.922 792.711 Q -95.844 792.712 -95.766 792.715 Q -95.689 792.718 -95.611 792.723 Q -95.533 792.727 -95.455 792.734 Q -95.378 792.740 -95.300 792.749 Q -95.223 792.757 -95.145 792.767 Q -95.068 792.777 -94.991 792.790 Q -94.914 792.802 -94.837 792.815 Q -94.760 792.829 -94.684 792.845 Q -94.608 792.861 -94.531 792.878 Q -94.455 792.896 -94.380 792.915 Q -94.304 792.935 -94.229 792.956 Q -94.153 792.977 -94.079 793.000 Q -94.004 793.023 -93.929 793.048 Q -93.855 793.072 -93.781 793.099 Q -93.708 793.125 -93.634 793.154 Q -93.561 793.182 -93.489 793.212 Q -93.416 793.242 -93.344 793.274 Q -93.272 793.305 -93.201 793.339 Q -93.130 793.372 -93.060 793.408 Q -92.989 793.443 -92.919 793.479 Q -92.850 793.516 -92.781 793.555 Q -92.712 793.593 -92.644 793.633 Q -92.576 793.673 -92.509 793.715 Q -92.442 793.757 -92.375 793.800 Q -92.309 793.844 -92.244 793.888 Q -92.178 793.933 -92.114 793.980 Q -92.050 794.026 -91.986 794.074 Q -91.923 794.122 -91.861 794.172 Q -91.799 794.221 -91.737 794.272 Q -91.676 794.323 -91.616 794.375 Q -91.556 794.428 -91.497 794.482 Q -91.438 794.535 -91.380 794.591 Q -91.322 794.646 -91.266 794.702 Q -91.209 794.759 -91.154 794.817 Q -91.098 794.875 -91.044 794.934 Q -90.990 794.993 -90.937 795.054 Q -90.884 795.114 -90.833 795.176 Q -90.781 795.238 -90.731 795.301 Q -90.681 795.364 -90.632 795.428 Q -90.583 795.492 -90.536 795.557 Q -90.488 795.623 -90.442 795.689 Q -90.396 795.755 -90.351 795.823 Q -90.307 795.890 -90.264 795.959 Q -90.220 796.028 -90.179 796.097 Q -90.137 796.167 -90.097 796.237 Q -90.056 796.308 -90.018 796.379 Q -89.979 796.451 -89.942 796.523 Q -89.905 796.596 -89.869 796.669 Q -89.834 796.742 -89.800 796.816 Q -89.766 796.890 -89.733 796.965 Q -89.701 797.040 -89.670 797.116 Q -89.639 797.191 -89.610 797.268 Q -89.581 797.344 -89.553 797.421 Q -89.525 797.498 -89.500 797.576 Q -89.474 797.654 -89.449 797.732 Q -89.425 797.810 -89.403 797.889 Q -89.380 797.968 -89.359 798.047 Q -89.338 798.127 -89.319 798.206 Q -89.300 798.286 -89.283 798.367 Q -89.265 798.447 -89.249 798.527 Q -89.234 798.608 -89.220 798.689 Q -89.206 798.770 -89.193 798.852 Q -89.181 798.933 -89.171 799.015 Q -89.160 799.096 -89.151 799.178 Q -89.142 799.260 -89.135 799.342 Q -89.128 799.424 -89.123 799.506 Q -89.118 799.588 -89.114 799.671 Q -89.111 799.753 -89.109 799.835 Q -89.107 799.918 -89.107 800.000 Q -89.107 800.082 -89.109 800.165 Q -89.111 800.247 -89.114 800.329 Q -89.118 800.412 -89.123 800.494 Q -89.128 800.576 -89.135 800.658 Q -89.142 800.740 -89.151 800.822 Q -89.160 800.904 -89.171 800.985 Q -89.181 801.067 -89.193 801.148 Q -89.206 801.230 -89.220 801.311 Q -89.234 801.392 -89.249 801.473 Q -89.265 801.553 -89.283 801.633 Q -89.300 801.714 -89.319 801.794 Q -89.338 801.873 -89.359 801.953 Q -89.380 802.032 -89.403 802.111 Q -89.425 802.190 -89.449 802.268 Q -89.474 802.346 -89.500 802.424 Q -89.525 802.502 -89.553 802.579 Q -89.581 802.656 -89.610 802.732 Q -89.639 802.809 -89.670 802.884 Q -89.701 802.960 -89.733 803.035 Q -89.766 803.110 -89.800 803.184 Q -89.834 803.258 -89.869 803.331 Q -89.905 803.404 -89.942 803.477 Q -89.979 803.549 -90.018 803.621 Q -90.056 803.692 -90.097 803.763 Q -90.137 803.833 -90.179 803.903 Q -90.220 803.972 -90.263 804.041 Q -90.307 804.110 -90.351 804.177 Q -90.396 804.245 -90.442 804.311 Q -90.488 804.377 -90.536 804.443 Q -90.583 804.508 -90.632 804.572 Q -90.681 804.636 -90.731 804.699 Q -90.781 804.762 -90.833 804.824 Q -90.884 804.886 -90.937 804.946 Q -90.990 805.007 -91.044 805.066 Q -91.098 805.125 -91.154 805.183 Q -91.209 805.241 -91.266 805.298 Q -91.322 805.354 -91.380 805.409 Q -91.438 805.465 -91.497 805.518 Q -91.556 805.572 -91.616 805.625 Q -91.676 805.677 -91.737 805.728 Q -91.799 805.779 -91.861 805.828 Q -91.923 805.878 -91.986 805.926 Q -92.050 805.974 -92.114 806.020 Q -92.178 806.067 -92.244 806.112 Q -92.309 806.157 -92.375 806.200 Q -92.442 806.243 -92.509 806.285 Q -92.576 806.327 -92.644 806.367 Q -92.712 806.407 -92.781 806.445 Q -92.850 806.484 -92.919 806.521 Q -92.989 806.557 -93.060 806.593 Q -93.130 806.628 -93.201 806.661 Q -93.272 806.695 -93.344 806.726 Q -93.416 806.758 -93.489 806.788 Q -93.561 806.818 -93.634 806.846 Q -93.708 806.875 -93.781 806.901 Q -93.855 806.928 -93.929 806.952 Q -94.004 806.977 -94.078 807.000 Q -94.153 807.023 -94.229 807.044 Q -94.304 807.065 -94.380 807.085 Q -94.455 807.104 -94.531 807.122 Q -94.607 807.139 -94.684 807.155 Q -94.760 807.171 -94.837 807.185 Q -94.914 807.198 -94.991 807.211 Q -95.068 807.223 -95.145 807.233 Q -95.223 807.243 -95.300 807.251 Q -95.378 807.260 -95.455 807.266 Q -95.533 807.273 -95.611 807.277 Q -95.689 807.282 -95.766 807.285 Q -95.844 807.288 -95.922 807.289 Q -96.000 807.290 -96.078 807.289 Q -96.156 807.288 -96.234 807.285 Q -96.312 807.282 -96.389 807.277 Q -96.467 807.273 -96.545 807.266 Q -96.622 807.260 -96.700 807.251 Q -96.777 807.243 -96.855 807.233 Q -96.932 807.223 -97.009 807.211 Q -97.086 807.198 -97.163 807.185 Q -97.240 807.171 -97.316 807.155 Q -97.393 807.139 -97.469 807.122 Q -97.545 807.104 -97.620 807.085 Q -97.696 807.065 -97.771 807.044 Q -97.847 807.023 -97.922 807.000 Q -97.996 806.977 -98.071 806.952 Q -98.145 806.928 -98.219 806.901 Q -98.292 806.875 -98.366 806.846 Q -98.439 806.818 -98.511 806.788 Q -98.584 806.758 -98.656 806.726 Q -98.728 806.695 -98.799 806.661 Q -98.870 806.628 -98.940 806.593 Q -99.011 806.557 -99.081 806.521 Q -99.150 806.484 -99.219 806.445 Q -99.288 806.407 -99.356 806.367 Q -99.424 806.327 -99.491 806.285 Q -99.558 806.243 -99.625 806.200 Q -99.691 806.157 -99.756 806.112 Q -99.822 806.067 -99.886 806.020 Q -99.950 805.974 -100.014 805.926 Q -100.077 805.878 -100.139 805.828 Q -100.201 805.779 -100.263 805.728 Q -100.324 805.677 -100.384 805.625 Q -100.444 805.572 -100.503 805.518 Q -100.562 805.465 -100.620 805.409 Q -100.678 805.354 -100.734 805.298 Q -100.791 805.241 -100.846 805.183 Q -100.902 805.125 -100.956 805.066 Q -101.010 805.007 -101.063 804.946 Q -101.116 804.886 -101.167 804.824 Q -101.219 804.762 -101.269 804.699 Q -101.319 804.636 -101.368 804.572 Q -101.417 804.508 -101.464 804.443 Q -101.512 804.377 -101.558 804.311 Q -101.604 804.245 -101.649 804.177 Q -101.693 804.110 -101.737 804.041 Q -101.780 803.972 -101.821 803.903 Q -101.863 803.833 -101.903 803.763 Q -101.944 803.692 -101.982 803.621 Q -102.021 803.549 -102.058 803.477 Q -102.095 803.404 -102.131 803.331 Q -102.166 803.258 -102.201 803.184 Q -102.235 803.110 -102.267 803.035 Q -102.299 802.960 -102.330 802.884 Q -102.361 802.809 -102.390 802.732 Q -102.419 802.656 -102.447 802.579 Q -102.475 802.502 -102.500 802.424 Q -102.526 802.346 -102.551 802.268 Q -102.575 802.190 -102.597 802.111 Q -102.620 802.032 -102.641 801.953 Q -102.662 801.873 -102.681 801.794 Q -102.700 801.714 -102.718 801.633 Q -102.735 801.553 -102.751 801.473 Q -102.766 801.392 -102.780 801.311 Q -102.794 801.230 -102.807 801.148 Q -102.819 801.067 -102.830 800.985 Q -102.840 800.904 -102.849 800.822 Q -102.858 800.740 -102.865 800.658 Q -102.872 800.576 -102.877 800.494 Q -102.882 800.412 -102.886 800.329 Q -102.889 800.247 -102.891 800.165 Q -102.893 800.082 -102.893 800.000 Q -102.893 799.918 -102.891 799.835 Q -102.889 799.753 -102.886 799.671 Q -102.882 799.588 -102.877 799.506 Q -102.872 799.424 -102.865 799.342 Q -102.858 799.260 -102.849 799.178 Q -102.840 799.096 -102.830 799.015 Q -102.819 798.933 -102.807 798.852 Q -102.794 798.770 -102.780 798.689 Q -102.766 798.608 -102.751 798.527 Q -102.735 798.447 -102.717 798.366 Q -102.700 798.286 -102.681 798.206 Q -102.662 798.127 -102.641 798.047 Q -102.620 797.968 -102.597 797.889 Q -102.575 797.810 -102.551 797.732 Q -102.526 797.654 -102.500 797.576 Q -102.475 797.498 -102.447 797.421 Q -102.419 797.344 -102.390 797.268 Q -102.361 797.191 -102.330 797.116 Q -102.299 797.040 -102.267 796.965 Q -102.235 796.890 -102.200 796.816 Q -102.166 796.742 -102.131 796.669 Q -102.095 796.596 -102.058 796.523 Q -102.021 796.451 -101.982 796.379 Q -101.944 796.308 -101.903 796.237 Q -101.863 796.167 -101.821 796.097 Q -101.780 796.027 -101.737 795.959 Q -101.693 795.890 -101.649 795.823 Q -101.604 795.755 -101.558 795.689 Q -101.512 795.622 -101.464 795.557 Q -101.417 795.492 -101.368 795.428 Q -101.319 795.364 -101.269 795.301 Q -101.219 795.238 -101.167 795.176 Q -101.116 795.114 -101.063 795.054 Q -101.010 794.993 -100.956 794.934 Q -100.902 794.875 -100.846 794.817 Q -100.791 794.759 -100.734 794.702 Q -100.678 794.646 -100.620 794.590 Q -100.562 794.535 -100.503 794.481 Q -100.444 794.428 -100.384 794.375 Q -100.324 794.323 -100.263 794.272 Q -100.201 794.221 -100.139 794.172 Q -100.077 794.122 -100.014 794.074 Q -99.950 794.026 -99.886 793.980 Q -99.822 793.933 -99.756 793.888 Q -99.691 793.843 -99.625 793.800 Q -99.558 793.757 -99.491 793.715 Q -99.424 793.673 -99.356 793.633 Q -99.288 793.593 -99.219 793.555 Q -99.150 793.516 -99.081 793.479 Q -99.011 793.443 -98.940 793.407 Q -98.870 793.372 -98.799 793.339 Q -98.728 793.305 -98.656 793.274 Q -98.584 793.242 -98.511 793.212 Q -98.439 793.182 -98.366 793.154 Q -98.292 793.125 -98.219 793.099 Q -98.145 793.072 -98.071 793.048 Q -97.996 793.023 -97.921 793.000 Q -97.847 792.977 -97.771 792.956 Q -97.696 792.935 -97.620 792.915 Q -97.545 792.896 -97.469 792.878 Q -97.392 792.861 -97.316 792.845 Q -97.239 792.829 -97.163 792.815 Q -97.086 792.802 -97.009 792.789 Q -96.932 792.777 -96.855 792.767 Q -96.777 792.757 -96.700 792.749 Q -96.622 792.740 -96.545 792.734 Q -96.467 792.727 -96.389 792.723 Q -96.311 792.718 -96.234 792.715 Q -96.156 792.712 -96.078 792.711 Z"></path>
    <path id="STROKE_436a7450-e1c7-449b-bee5-da944130df62" opacity="1.000" fill="none" stroke="#f6ffd2" stroke-width="nan" stroke-opacity="nan" stroke-linecap="round" stroke-linejoin="round" d="M -128.000 672.000 L -128.000 672.000 "></path>
    <path id="STROKE_0e907ab4-2ef1-404f-be12-ee128453e8e8" opacity="1.000" fill="none" stroke="#f6ffd2" stroke-width="nan" stroke-opacity="nan" stroke-linecap="round" stroke-linejoin="round" d="M -128.000 672.000 L -128.000 672.000 "></path>
    <path id="STROKE_344f636a-4a8d-4a91-8469-c414be3ae35d" opacity="1.000" fill="none" stroke="#f6ffd2" stroke-width="nan" stroke-opacity="nan" stroke-linecap="round" stroke-linejoin="round" d="M -128.000 672.000 L -128.000 672.000 "></path>
    <path id="STROKE_03bd2df5-ba63-4de6-8a06-24dcdd105110" opacity="1.000" fill="none" stroke="#f6ffd2" stroke-width="2.001" stroke-opacity="1.000" stroke-linecap="round" stroke-linejoin="round" d="M -128.078 664.711 Q -128.000 664.711 -127.922 664.711 Q -127.844 664.712 -127.766 664.715 Q -127.689 664.718 -127.611 664.723 Q -127.533 664.727 -127.455 664.734 Q -127.378 664.740 -127.300 664.749 Q -127.223 664.757 -127.145 664.767 Q -127.068 664.777 -126.991 664.790 Q -126.914 664.802 -126.837 664.815 Q -126.760 664.829 -126.684 664.845 Q -126.608 664.861 -126.531 664.878 Q -126.455 664.896 -126.380 664.915 Q -126.304 664.935 -126.229 664.956 Q -126.153 664.977 -126.079 665.000 Q -126.004 665.023 -125.929 665.048 Q -125.855 665.072 -125.781 665.099 Q -125.708 665.125 -125.634 665.154 Q -125.561 665.182 -125.489 665.212 Q -125.416 665.242 -125.344 665.274 Q -125.272 665.305 -125.201 665.339 Q -125.130 665.372 -125.060 665.407 Q -124.989 665.443 -124.919 665.479 Q -124.850 665.516 -124.781 665.555 Q -124.712 665.593 -124.644 665.633 Q -124.576 665.673 -124.509 665.715 Q -124.442 665.757 -124.375 665.800 Q -124.309 665.844 -124.244 665.888 Q -124.178 665.933 -124.114 665.980 Q -124.050 666.026 -123.986 666.074 Q -123.923 666.122 -123.861 666.172 Q -123.799 666.221 -123.737 666.272 Q -123.676 666.323 -123.616 666.375 Q -123.556 666.428 -123.497 666.482 Q -123.438 666.535 -123.380 666.591 Q -123.322 666.646 -123.266 666.702 Q -123.209 666.759 -123.154 666.817 Q -123.098 666.875 -123.044 666.934 Q -122.990 666.993 -122.937 667.054 Q -122.884 667.114 -122.833 667.176 Q -122.781 667.238 -122.731 667.301 Q -122.681 667.364 -122.632 667.428 Q -122.583 667.492 -122.536 667.557 Q -122.488 667.623 -122.442 667.689 Q -122.396 667.755 -122.351 667.823 Q -122.307 667.890 -122.263 667.959 Q -122.220 668.028 -122.179 668.097 Q -122.137 668.167 -122.097 668.237 Q -122.056 668.308 -122.018 668.379 Q -121.979 668.451 -121.942 668.523 Q -121.905 668.596 -121.869 668.669 Q -121.834 668.742 -121.800 668.816 Q -121.766 668.890 -121.733 668.965 Q -121.701 669.040 -121.670 669.116 Q -121.639 669.191 -121.610 669.268 Q -121.581 669.344 -121.553 669.421 Q -121.525 669.498 -121.500 669.576 Q -121.474 669.654 -121.449 669.732 Q -121.425 669.810 -121.403 669.889 Q -121.380 669.968 -121.359 670.047 Q -121.338 670.127 -121.319 670.206 Q -121.300 670.286 -121.283 670.367 Q -121.265 670.447 -121.249 670.527 Q -121.234 670.608 -121.220 670.689 Q -121.206 670.770 -121.193 670.852 Q -121.181 670.933 -121.171 671.015 Q -121.160 671.096 -121.151 671.178 Q -121.142 671.260 -121.135 671.342 Q -121.128 671.424 -121.123 671.506 Q -121.118 671.588 -121.114 671.671 Q -121.111 671.753 -121.109 671.835 Q -121.107 671.918 -121.107 672.000 Q -121.107 672.082 -121.109 672.165 Q -121.111 672.247 -121.114 672.329 Q -121.118 672.412 -121.123 672.494 Q -121.128 672.576 -121.135 672.658 Q -121.142 672.740 -121.151 672.822 Q -121.160 672.904 -121.171 672.985 Q -121.181 673.067 -121.193 673.148 Q -121.206 673.230 -121.220 673.311 Q -121.234 673.392 -121.249 673.472 Q -121.265 673.553 -121.283 673.633 Q -121.300 673.714 -121.319 673.794 Q -121.338 673.873 -121.359 673.953 Q -121.380 674.032 -121.403 674.111 Q -121.425 674.190 -121.449 674.268 Q -121.474 674.346 -121.500 674.424 Q -121.525 674.502 -121.553 674.579 Q -121.581 674.656 -121.610 674.732 Q -121.639 674.809 -121.670 674.884 Q -121.701 674.960 -121.733 675.035 Q -121.766 675.110 -121.800 675.184 Q -121.834 675.258 -121.869 675.331 Q -121.905 675.404 -121.942 675.477 Q -121.979 675.549 -122.018 675.621 Q -122.056 675.692 -122.097 675.763 Q -122.137 675.833 -122.179 675.903 Q -122.220 675.972 -122.263 676.041 Q -122.307 676.109 -122.351 676.177 Q -122.396 676.245 -122.442 676.311 Q -122.488 676.377 -122.536 676.443 Q -122.583 676.508 -122.632 676.572 Q -122.681 676.636 -122.731 676.699 Q -122.781 676.762 -122.833 676.824 Q -122.884 676.886 -122.937 676.946 Q -122.990 677.007 -123.044 677.066 Q -123.098 677.125 -123.154 677.183 Q -123.209 677.241 -123.266 677.298 Q -123.322 677.354 -123.380 677.409 Q -123.438 677.465 -123.497 677.518 Q -123.556 677.572 -123.616 677.625 Q -123.676 677.677 -123.737 677.728 Q -123.799 677.779 -123.861 677.828 Q -123.923 677.878 -123.986 677.926 Q -124.050 677.974 -124.114 678.020 Q -124.178 678.067 -124.244 678.112 Q -124.309 678.156 -124.375 678.200 Q -124.442 678.243 -124.509 678.285 Q -124.576 678.327 -124.644 678.367 Q -124.712 678.407 -124.781 678.445 Q -124.850 678.484 -124.919 678.521 Q -124.989 678.557 -125.060 678.593 Q -125.130 678.628 -125.201 678.661 Q -125.272 678.695 -125.344 678.726 Q -125.416 678.758 -125.489 678.788 Q -125.561 678.818 -125.634 678.846 Q -125.708 678.875 -125.781 678.901 Q -125.855 678.928 -125.929 678.952 Q -126.004 678.977 -126.078 679.000 Q -126.153 679.023 -126.229 679.044 Q -126.304 679.065 -126.380 679.085 Q -126.455 679.104 -126.531 679.122 Q -126.607 679.139 -126.684 679.155 Q -126.760 679.171 -126.837 679.185 Q -126.914 679.198 -126.991 679.211 Q -127.068 679.223 -127.145 679.233 Q -127.223 679.243 -127.300 679.251 Q -127.378 679.260 -127.455 679.266 Q -127.533 679.273 -127.611 679.277 Q -127.689 679.282 -127.766 679.285 Q -127.844 679.288 -127.922 679.289 Q -128.000 679.289 -128.078 679.289 Q -128.156 679.288 -128.234 679.285 Q -128.312 679.282 -128.389 679.277 Q -128.467 679.273 -128.545 679.266 Q -128.622 679.260 -128.700 679.251 Q -128.777 679.243 -128.855 679.233 Q -128.932 679.223 -129.009 679.211 Q -129.086 679.198 -129.163 679.185 Q -129.240 679.171 -129.316 679.155 Q -129.393 679.139 -129.469 679.122 Q -129.545 679.104 -129.620 679.085 Q -129.696 679.065 -129.771 679.044 Q -129.847 679.023 -129.922 679.000 Q -129.996 678.977 -130.071 678.952 Q -130.145 678.928 -130.219 678.901 Q -130.292 678.875 -130.366 678.846 Q -130.439 678.818 -130.511 678.788 Q -130.584 678.758 -130.656 678.726 Q -130.728 678.695 -130.799 678.661 Q -130.870 678.628 -130.940 678.593 Q -131.011 678.557 -131.081 678.521 Q -131.150 678.484 -131.219 678.445 Q -131.288 678.407 -131.356 678.367 Q -131.424 678.327 -131.491 678.285 Q -131.558 678.243 -131.625 678.200 Q -131.691 678.156 -131.756 678.112 Q -131.822 678.067 -131.886 678.020 Q -131.950 677.974 -132.014 677.926 Q -132.077 677.878 -132.139 677.828 Q -132.201 677.779 -132.263 677.728 Q -132.324 677.677 -132.384 677.625 Q -132.444 677.572 -132.503 677.518 Q -132.562 677.465 -132.620 677.409 Q -132.678 677.354 -132.734 677.298 Q -132.791 677.241 -132.846 677.183 Q -132.902 677.125 -132.956 677.066 Q -133.010 677.007 -133.063 676.946 Q -133.116 676.886 -133.167 676.824 Q -133.219 676.762 -133.269 676.699 Q -133.319 676.636 -133.368 676.572 Q -133.417 676.508 -133.464 676.443 Q -133.512 676.377 -133.558 676.311 Q -133.604 676.245 -133.649 676.177 Q -133.693 676.110 -133.737 676.041 Q -133.780 675.972 -133.821 675.903 Q -133.863 675.833 -133.903 675.763 Q -133.944 675.692 -133.982 675.621 Q -134.021 675.549 -134.058 675.477 Q -134.095 675.404 -134.131 675.331 Q -134.166 675.258 -134.201 675.184 Q -134.235 675.110 -134.267 675.035 Q -134.299 674.960 -134.330 674.884 Q -134.361 674.809 -134.390 674.732 Q -134.419 674.656 -134.447 674.579 Q -134.475 674.502 -134.500 674.424 Q -134.526 674.346 -134.551 674.268 Q -134.575 674.190 -134.597 674.111 Q -134.620 674.032 -134.641 673.953 Q -134.662 673.873 -134.681 673.794 Q -134.700 673.714 -134.717 673.633 Q -134.735 673.553 -134.751 673.472 Q -134.766 673.392 -134.780 673.311 Q -134.794 673.230 -134.807 673.148 Q -134.819 673.067 -134.830 672.985 Q -134.840 672.904 -134.849 672.822 Q -134.858 672.740 -134.865 672.658 Q -134.872 672.576 -134.877 672.494 Q -134.882 672.412 -134.886 672.329 Q -134.889 672.247 -134.891 672.165 Q -134.893 672.082 -134.893 672.000 Q -134.893 671.918 -134.891 671.835 Q -134.889 671.753 -134.886 671.671 Q -134.882 671.588 -134.877 671.506 Q -134.872 671.424 -134.865 671.342 Q -134.858 671.260 -134.849 671.178 Q -134.840 671.096 -134.830 671.015 Q -134.819 670.933 -134.807 670.852 Q -134.794 670.770 -134.780 670.689 Q -134.766 670.608 -134.751 670.527 Q -134.735 670.447 -134.717 670.366 Q -134.700 670.286 -134.681 670.206 Q -134.662 670.127 -134.641 670.047 Q -134.620 669.968 -134.597 669.889 Q -134.575 669.810 -134.551 669.732 Q -134.526 669.654 -134.500 669.576 Q -134.475 669.498 -134.447 669.421 Q -134.419 669.344 -134.390 669.268 Q -134.361 669.191 -134.330 669.116 Q -134.299 669.040 -134.267 668.965 Q -134.234 668.890 -134.200 668.816 Q -134.166 668.742 -134.131 668.669 Q -134.095 668.596 -134.058 668.523 Q -134.021 668.451 -133.982 668.379 Q -133.944 668.308 -133.903 668.237 Q -133.863 668.167 -133.821 668.097 Q -133.780 668.027 -133.737 667.959 Q -133.693 667.890 -133.649 667.823 Q -133.604 667.755 -133.558 667.689 Q -133.512 667.622 -133.464 667.557 Q -133.417 667.492 -133.368 667.428 Q -133.319 667.364 -133.269 667.301 Q -133.219 667.238 -133.167 667.176 Q -133.116 667.114 -133.063 667.054 Q -133.010 666.993 -132.956 666.934 Q -132.902 666.875 -132.846 666.817 Q -132.791 666.759 -132.734 666.702 Q -132.678 666.646 -132.620 666.590 Q -132.562 666.535 -132.503 666.481 Q -132.444 666.428 -132.384 666.375 Q -132.324 666.323 -132.263 666.272 Q -132.201 666.221 -132.139 666.172 Q -132.077 666.122 -132.014 666.074 Q -131.950 666.026 -131.886 665.980 Q -131.822 665.933 -131.756 665.888 Q -131.691 665.843 -131.625 665.800 Q -131.558 665.757 -131.491 665.715 Q -131.424 665.673 -131.356 665.633 Q -131.288 665.593 -131.219 665.555 Q -131.150 665.516 -131.081 665.479 Q -131.011 665.443 -130.940 665.407 Q -130.870 665.372 -130.799 665.339 Q -130.728 665.305 -130.656 665.274 Q -130.584 665.242 -130.511 665.212 Q -130.439 665.182 -130.366 665.154 Q -130.292 665.125 -130.219 665.099 Q -130.145 665.072 -130.071 665.048 Q -129.996 665.023 -129.921 665.000 Q -129.847 664.977 -129.771 664.956 Q -129.696 664.935 -129.620 664.915 Q -129.545 664.896 -129.469 664.878 Q -129.392 664.861 -129.316 664.845 Q -129.239 664.829 -129.163 664.815 Q -129.086 664.802 -129.009 664.789 Q -128.932 664.777 -128.855 664.767 Q -128.777 664.757 -128.700 664.749 Q -128.622 664.740 -128.545 664.734 Q -128.467 664.727 -128.389 664.723 Q -128.311 664.718 -128.234 664.715 Q -128.156 664.712 -128.078 664.711 Z"></path>
    <path id="STROKE_0ec56018-6d2b-4338-91e0-b007d20a0b77" opacity="1.000" fill="none" stroke="#f6ffd2" stroke-width="nan" stroke-opacity="nan" stroke-linecap="round" stroke-linejoin="round" d="M -64.000 608.000 L -64.000 608.000 "></path>
    <path id="STROKE_bbba894f-1099-4526-bb70-2a539d561497" opacity="1.000" fill="none" stroke="#f6ffd2" stroke-width="nan" stroke-opacity="nan" stroke-linecap="round" stroke-linejoin="round" d="M -64.000 608.000 L -64.000 608.000 "></path>
    <path id="STROKE_60b7fa36-cf95-4a76-a4e2-f92883af1a18" opacity="1.000" fill="none" stroke="#f6ffd2" stroke-width="nan" stroke-opacity="nan" stroke-linecap="round" stroke-linejoin="round" d="M -64.000 608.000 L -64.000 608.000 "></path>
    <path id="STROKE_cdcd4ec8-ed02-448f-9d7c-fc7d06edbdeb" opacity="1.000" fill="none" stroke="#f6ffd2" stroke-width="2.001" stroke-opacity="1.000" stroke-linecap="round" stroke-linejoin="round" d="M -64.078 600.711 Q -64.000 600.711 -63.922 600.711 Q -63.844 600.712 -63.766 600.715 Q -63.688 600.718 -63.611 600.723 Q -63.533 600.727 -63.455 600.734 Q -63.378 600.740 -63.300 600.749 Q -63.223 600.757 -63.145 600.767 Q -63.068 600.777 -62.991 600.790 Q -62.914 600.802 -62.837 600.815 Q -62.760 600.829 -62.684 600.845 Q -62.607 600.861 -62.531 600.878 Q -62.455 600.896 -62.380 600.915 Q -62.304 600.935 -62.229 600.956 Q -62.153 600.977 -62.078 601.000 Q -62.004 601.023 -61.929 601.048 Q -61.855 601.072 -61.781 601.099 Q -61.708 601.125 -61.634 601.154 Q -61.561 601.182 -61.489 601.212 Q -61.416 601.242 -61.344 601.274 Q -61.272 601.305 -61.201 601.339 Q -61.130 601.372 -61.060 601.407 Q -60.989 601.443 -60.919 601.479 Q -60.850 601.516 -60.781 601.555 Q -60.712 601.593 -60.644 601.633 Q -60.576 601.673 -60.509 601.715 Q -60.442 601.757 -60.375 601.800 Q -60.309 601.844 -60.244 601.888 Q -60.178 601.933 -60.114 601.980 Q -60.050 602.026 -59.986 602.074 Q -59.923 602.122 -59.861 602.172 Q -59.799 602.221 -59.737 602.272 Q -59.676 602.323 -59.616 602.375 Q -59.556 602.428 -59.497 602.482 Q -59.438 602.535 -59.380 602.591 Q -59.322 602.646 -59.266 602.702 Q -59.209 602.759 -59.154 602.817 Q -59.098 602.875 -59.044 602.934 Q -58.990 602.993 -58.937 603.054 Q -58.884 603.114 -58.833 603.176 Q -58.781 603.238 -58.731 603.301 Q -58.681 603.364 -58.632 603.428 Q -58.583 603.492 -58.536 603.557 Q -58.488 603.623 -58.442 603.689 Q -58.396 603.755 -58.351 603.823 Q -58.307 603.890 -58.263 603.959 Q -58.220 604.028 -58.179 604.097 Q -58.137 604.167 -58.097 604.237 Q -58.056 604.308 -58.018 604.379 Q -57.979 604.451 -57.942 604.523 Q -57.905 604.596 -57.869 604.669 Q -57.834 604.742 -57.799 604.816 Q -57.765 604.890 -57.733 604.965 Q -57.701 605.040 -57.670 605.116 Q -57.639 605.191 -57.610 605.268 Q -57.581 605.344 -57.553 605.421 Q -57.525 605.498 -57.500 605.576 Q -57.474 605.654 -57.449 605.732 Q -57.425 605.810 -57.403 605.889 Q -57.380 605.968 -57.359 606.047 Q -57.338 606.127 -57.319 606.206 Q -57.300 606.286 -57.283 606.367 Q -57.265 606.447 -57.249 606.527 Q -57.234 606.608 -57.220 606.689 Q -57.206 606.770 -57.193 606.852 Q -57.181 606.933 -57.170 607.015 Q -57.160 607.096 -57.151 607.178 Q -57.142 607.260 -57.135 607.342 Q -57.128 607.424 -57.123 607.506 Q -57.118 607.588 -57.114 607.671 Q -57.111 607.753 -57.109 607.835 Q -57.107 607.918 -57.107 608.000 Q -57.107 608.082 -57.109 608.165 Q -57.111 608.247 -57.114 608.329 Q -57.118 608.412 -57.123 608.494 Q -57.128 608.576 -57.135 608.658 Q -57.142 608.740 -57.151 608.822 Q -57.160 608.904 -57.170 608.985 Q -57.181 609.067 -57.193 609.148 Q -57.206 609.230 -57.220 609.311 Q -57.234 609.392 -57.249 609.472 Q -57.265 609.553 -57.282 609.633 Q -57.300 609.714 -57.319 609.794 Q -57.338 609.873 -57.359 609.953 Q -57.380 610.032 -57.403 610.111 Q -57.425 610.190 -57.449 610.268 Q -57.474 610.346 -57.500 610.424 Q -57.525 610.502 -57.553 610.579 Q -57.581 610.656 -57.610 610.732 Q -57.639 610.809 -57.670 610.884 Q -57.701 610.960 -57.733 611.035 Q -57.765 611.110 -57.799 611.184 Q -57.834 611.258 -57.869 611.331 Q -57.905 611.404 -57.942 611.477 Q -57.979 611.549 -58.018 611.621 Q -58.056 611.692 -58.097 611.763 Q -58.137 611.833 -58.179 611.903 Q -58.220 611.972 -58.263 612.041 Q -58.307 612.110 -58.351 612.177 Q -58.396 612.245 -58.442 612.311 Q -58.488 612.377 -58.536 612.443 Q -58.583 612.508 -58.632 612.572 Q -58.681 612.636 -58.731 612.699 Q -58.781 612.762 -58.833 612.824 Q -58.884 612.886 -58.937 612.946 Q -58.990 613.007 -59.044 613.066 Q -59.098 613.125 -59.154 613.183 Q -59.209 613.241 -59.266 613.298 Q -59.322 613.354 -59.380 613.409 Q -59.438 613.465 -59.497 613.518 Q -59.556 613.572 -59.616 613.625 Q -59.676 613.677 -59.737 613.728 Q -59.798 613.779 -59.861 613.828 Q -59.923 613.878 -59.986 613.926 Q -60.050 613.974 -60.114 614.020 Q -60.178 614.067 -60.244 614.112 Q -60.309 614.156 -60.375 614.200 Q -60.442 614.243 -60.509 614.285 Q -60.576 614.327 -60.644 614.367 Q -60.712 614.407 -60.781 614.445 Q -60.850 614.484 -60.919 614.521 Q -60.989 614.557 -61.060 614.593 Q -61.130 614.628 -61.201 614.661 Q -61.272 614.695 -61.344 614.726 Q -61.416 614.758 -61.489 614.788 Q -61.561 614.818 -61.634 614.846 Q -61.708 614.875 -61.781 614.901 Q -61.855 614.928 -61.929 614.952 Q -62.004 614.977 -62.078 615.000 Q -62.153 615.023 -62.229 615.044 Q -62.304 615.065 -62.380 615.085 Q -62.455 615.104 -62.531 615.122 Q -62.607 615.139 -62.684 615.155 Q -62.760 615.171 -62.837 615.185 Q -62.914 615.198 -62.991 615.211 Q -63.068 615.223 -63.145 615.233 Q -63.223 615.243 -63.300 615.251 Q -63.378 615.260 -63.455 615.266 Q -63.533 615.273 -63.611 615.277 Q -63.688 615.282 -63.766 615.285 Q -63.844 615.288 -63.922 615.289 Q -64.000 615.289 -64.078 615.289 Q -64.156 615.288 -64.234 615.285 Q -64.311 615.282 -64.389 615.277 Q -64.467 615.273 -64.545 615.266 Q -64.622 615.260 -64.700 615.251 Q -64.777 615.243 -64.855 615.233 Q -64.932 615.223 -65.009 615.211 Q -65.086 615.198 -65.163 615.185 Q -65.240 615.171 -65.316 615.155 Q -65.392 615.139 -65.469 615.122 Q -65.545 615.104 -65.620 615.085 Q -65.696 615.065 -65.771 615.044 Q -65.847 615.023 -65.921 615.000 Q -65.996 614.977 -66.071 614.952 Q -66.145 614.928 -66.219 614.901 Q -66.292 614.875 -66.366 614.846 Q -66.439 614.818 -66.511 614.788 Q -66.584 614.758 -66.656 614.726 Q -66.728 614.695 -66.799 614.661 Q -66.870 614.628 -66.940 614.593 Q -67.011 614.557 -67.081 614.521 Q -67.150 614.484 -67.219 614.445 Q -67.288 614.407 -67.356 614.367 Q -67.424 614.327 -67.491 614.285 Q -67.558 614.243 -67.625 614.200 Q -67.691 614.156 -67.756 614.112 Q -67.822 614.067 -67.886 614.020 Q -67.950 613.974 -68.014 613.926 Q -68.077 613.878 -68.139 613.828 Q -68.201 613.779 -68.263 613.728 Q -68.324 613.677 -68.384 613.625 Q -68.444 613.572 -68.503 613.518 Q -68.562 613.465 -68.620 613.409 Q -68.678 613.354 -68.734 613.298 Q -68.791 613.241 -68.846 613.183 Q -68.902 613.125 -68.956 613.066 Q -69.010 613.007 -69.063 612.946 Q -69.116 612.886 -69.167 612.824 Q -69.219 612.762 -69.269 612.699 Q -69.319 612.636 -69.368 612.572 Q -69.417 612.508 -69.464 612.443 Q -69.512 612.377 -69.558 612.311 Q -69.604 612.245 -69.649 612.177 Q -69.693 612.110 -69.736 612.041 Q -69.780 611.972 -69.821 611.903 Q -69.863 611.833 -69.903 611.763 Q -69.944 611.692 -69.982 611.621 Q -70.021 611.549 -70.058 611.477 Q -70.095 611.404 -70.131 611.331 Q -70.166 611.258 -70.200 611.184 Q -70.234 611.110 -70.267 611.035 Q -70.299 610.960 -70.330 610.884 Q -70.361 610.809 -70.390 610.732 Q -70.419 610.656 -70.447 610.579 Q -70.475 610.502 -70.500 610.424 Q -70.526 610.346 -70.551 610.268 Q -70.575 610.190 -70.597 610.111 Q -70.620 610.032 -70.641 609.953 Q -70.662 609.873 -70.681 609.794 Q -70.700 609.714 -70.717 609.633 Q -70.735 609.553 -70.751 609.472 Q -70.766 609.392 -70.780 609.311 Q -70.794 609.230 -70.807 609.148 Q -70.819 609.067 -70.829 608.985 Q -70.840 608.904 -70.849 608.822 Q -70.858 608.740 -70.865 608.658 Q -70.872 608.576 -70.877 608.494 Q -70.882 608.412 -70.886 608.329 Q -70.889 608.247 -70.891 608.165 Q -70.893 608.082 -70.893 608.000 Q -70.893 607.918 -70.891 607.835 Q -70.889 607.753 -70.886 607.671 Q -70.882 607.588 -70.877 607.506 Q -70.872 607.424 -70.865 607.342 Q -70.858 607.260 -70.849 607.178 Q -70.840 607.096 -70.829 607.015 Q -70.819 606.933 -70.807 606.852 Q -70.794 606.770 -70.780 606.689 Q -70.766 606.608 -70.751 606.527 Q -70.735 606.447 -70.717 606.366 Q -70.700 606.286 -70.681 606.206 Q -70.662 606.127 -70.641 606.047 Q -70.620 605.968 -70.597 605.889 Q -70.575 605.810 -70.551 605.732 Q -70.526 605.654 -70.500 605.576 Q -70.474 605.498 -70.447 605.421 Q -70.419 605.344 -70.390 605.268 Q -70.361 605.191 -70.330 605.116 Q -70.299 605.040 -70.267 604.965 Q -70.234 604.890 -70.200 604.816 Q -70.166 604.742 -70.131 604.669 Q -70.095 604.596 -70.058 604.523 Q -70.021 604.451 -69.982 604.379 Q -69.943 604.308 -69.903 604.237 Q -69.863 604.167 -69.821 604.097 Q -69.780 604.027 -69.736 603.959 Q -69.693 603.890 -69.649 603.823 Q -69.604 603.755 -69.558 603.689 Q -69.512 603.622 -69.464 603.557 Q -69.417 603.492 -69.368 603.428 Q -69.319 603.364 -69.269 603.301 Q -69.219 603.238 -69.167 603.176 Q -69.116 603.114 -69.063 603.054 Q -69.010 602.993 -68.956 602.934 Q -68.902 602.875 -68.846 602.817 Q -68.791 602.759 -68.734 602.702 Q -68.678 602.646 -68.620 602.590 Q -68.562 602.535 -68.503 602.481 Q -68.444 602.428 -68.384 602.375 Q -68.324 602.323 -68.263 602.272 Q -68.201 602.221 -68.139 602.172 Q -68.077 602.122 -68.013 602.074 Q -67.950 602.026 -67.886 601.980 Q -67.821 601.933 -67.756 601.888 Q -67.691 601.843 -67.625 601.800 Q -67.558 601.757 -67.491 601.715 Q -67.424 601.673 -67.356 601.633 Q -67.288 601.593 -67.219 601.555 Q -67.150 601.516 -67.080 601.479 Q -67.011 601.443 -66.940 601.407 Q -66.870 601.372 -66.799 601.339 Q -66.727 601.305 -66.656 601.274 Q -66.584 601.242 -66.511 601.212 Q -66.439 601.182 -66.365 601.154 Q -66.292 601.125 -66.219 601.099 Q -66.145 601.072 -66.070 601.048 Q -65.996 601.023 -65.921 601.000 Q -65.847 600.977 -65.771 600.956 Q -65.696 600.935 -65.620 600.915 Q -65.545 600.896 -65.468 600.878 Q -65.392 600.861 -65.316 600.845 Q -65.239 600.829 -65.163 600.815 Q -65.086 600.802 -65.009 600.789 Q -64.932 600.777 -64.854 600.767 Q -64.777 600.757 -64.700 600.749 Q -64.622 600.740 -64.545 600.734 Q -64.467 600.727 -64.389 600.723 Q -64.311 600.718 -64.233 600.715 Q -64.156 600.712 -64.078 600.711 Z"></path>
    <path id="STROKE_ffe07f5d-ddae-4b74-8b14-389d51e06704" opacity="1.000" fill="none" stroke="#f6ffd2" stroke-width="0.517" stroke-opacity="1.000" stroke-linecap="round" stroke-linejoin="round" d="M -223.601 864.201 L -159.933 896.265 "></path>
    <path id="STROKE_b0367622-c8db-4a65-b0f2-388a89844d04" opacity="1.000" fill="none" stroke="#f6ffd2" stroke-width="0.517" stroke-opacity="1.000" stroke-linecap="round" stroke-linejoin="round" d="M -223.317 864.031 L -96.792 800.399 "></path>
    <path id="STROKE_2c585289-fe66-4bf9-a67f-2bd655089e11" opacity="1.000" fill="none" stroke="#f6ffd2" stroke-width="0.517" stroke-opacity="1.000" stroke-linecap="round" stroke-linejoin="round" d="M -95.799 800.596 L -63.736 895.870 "></path>
    <path id="STROKE_8f9c1a66-8c01-426f-83c3-98837b2e7cf6" opacity="1.000" fill="none" stroke="#f6ffd2" stroke-width="0.517" stroke-opacity="1.000" stroke-linecap="round" stroke-linejoin="round" d="M -127.799 672.794 L -95.736 799.672 "></path>
    <path id="STROKE_45beef8a-d8ab-4c42-b5dc-dbf23511089d" opacity="1.000" fill="none" stroke="#f6ffd2" stroke-width="0.517" stroke-opacity="1.000" stroke-linecap="round" stroke-linejoin="round" d="M -64.440 608.439 L -127.546 671.563 "></path>
  </g>
</svg>