<?xml version="1.0" encoding="UTF-8" standalone="yes"?>
<svg xmlns="http://www.w3.org/2000/svg" xmlns:xlink="http://www.w3.org/1999/xlink" width="279.672px" height="408.333px" version="1.1" viewBox="-261.918 697.917 139.836 204.167">
  <!--
	Exported with Concepts: Smarter Sketching
	Version: 3410 on iOS 18.1
	https://concepts.app/
	-->
  <title>0241DCD9-B924-4958-BD25-6A9460DBE9DA</title>
  <desc>Drawing exported from Concepts: Smarter Sketching</desc>
  <defs></defs>
  <g id="Pen" opacity="1.000">
    <path id="STROKE_6d98e1ce-8fa0-40c0-8034-2282078fd948" opacity="1.000" fill="none" stroke="#f6ffd2" stroke-width="nan" stroke-opacity="nan" stroke-linecap="round" stroke-linejoin="round" d="M -256.000 896.000 L -256.000 896.000 "></path>
    <path id="STROKE_3237d392-92f6-4234-b410-871e33098494" opacity="1.000" fill="none" stroke="#f6ffd2" stroke-width="nan" stroke-opacity="nan" stroke-linecap="round" stroke-linejoin="round" d="M -160.000 864.000 L -160.000 864.000 "></path>
    <path id="STROKE_a1050262-a1d3-4043-a276-31fb26fc2264" opacity="1.000" fill="none" stroke="#f6ffd2" stroke-width="nan" stroke-opacity="nan" stroke-linecap="round" stroke-linejoin="round" d="M -224.000 768.000 L -224.000 768.000 "></path>
    <path id="STROKE_71d1104b-f32d-4243-a1de-b7b45d0c63d7" opacity="1.000" fill="none" stroke="#f6ffd2" stroke-width="nan" stroke-opacity="nan" stroke-linecap="round" stroke-linejoin="round" d="M -256.000 736.000 L -256.000 736.000 "></path>
    <path id="STROKE_5d646582-802a-47f8-97d3-e1c0b28ceb9f" opacity="1.000" fill="none" stroke="#f6ffd2" stroke-width="nan" stroke-opacity="nan" stroke-linecap="round" stroke-linejoin="round" d="M -160.000 704.000 L -160.000 704.000 "></path>
    <path id="STROKE_1852126d-3c0a-4e00-b953-c5e68894d3ad" opacity="1.000" fill="none" stroke="#f6ffd2" stroke-width="nan" stroke-opacity="nan" stroke-linecap="round" stroke-linejoin="round" d="M -128.000 736.000 L -128.000 736.000 "></path>
    <path id="STROKE_74263a3a-15d3-4726-ba9c-d1f0c3202e58" opacity="1.000" fill="none" stroke="#f6ffd2" stroke-width="2.048" stroke-opacity="1.000" stroke-linecap="round" stroke-linejoin="round" d="M -256.076 893.443 Q -256.049 893.442 -256.022 893.442 Q -255.995 893.442 -255.968 893.442 Q -255.941 893.442 -255.914 893.443 Q -255.887 893.444 -255.860 893.446 Q -255.833 893.448 -255.806 893.450 Q -255.779 893.452 -255.752 893.455 Q -255.725 893.458 -255.699 893.462 Q -255.672 893.466 -255.645 893.470 Q -255.618 893.474 -255.592 893.479 Q -255.565 893.484 -255.538 893.490 Q -255.512 893.495 -255.485 893.501 Q -255.459 893.508 -255.433 893.514 Q -255.407 893.521 -255.380 893.529 Q -255.354 893.536 -255.328 893.544 Q -255.302 893.552 -255.277 893.561 Q -255.251 893.570 -255.225 893.579 Q -255.200 893.589 -255.174 893.599 Q -255.149 893.608 -255.124 893.619 Q -255.099 893.630 -255.074 893.641 Q -255.049 893.652 -255.024 893.664 Q -254.999 893.675 -254.975 893.688 Q -254.950 893.700 -254.926 893.713 Q -254.902 893.726 -254.878 893.740 Q -254.854 893.753 -254.831 893.767 Q -254.807 893.781 -254.784 893.796 Q -254.761 893.811 -254.738 893.826 Q -254.715 893.841 -254.692 893.857 Q -254.669 893.873 -254.647 893.889 Q -254.625 893.906 -254.603 893.922 Q -254.581 893.939 -254.559 893.957 Q -254.538 893.974 -254.517 893.992 Q -254.495 894.010 -254.474 894.028 Q -254.454 894.047 -254.433 894.066 Q -254.413 894.085 -254.393 894.104 Q -254.373 894.123 -254.353 894.143 Q -254.333 894.163 -254.314 894.183 Q -254.295 894.204 -254.276 894.225 Q -254.258 894.245 -254.239 894.267 Q -254.221 894.288 -254.203 894.310 Q -254.185 894.331 -254.168 894.354 Q -254.150 894.376 -254.134 894.398 Q -254.117 894.421 -254.100 894.444 Q -254.084 894.467 -254.068 894.490 Q -254.052 894.513 -254.036 894.537 Q -254.021 894.561 -254.006 894.585 Q -253.991 894.609 -253.977 894.633 Q -253.962 894.658 -253.948 894.683 Q -253.934 894.707 -253.921 894.733 Q -253.908 894.758 -253.895 894.783 Q -253.882 894.808 -253.870 894.834 Q -253.857 894.860 -253.846 894.886 Q -253.834 894.912 -253.823 894.938 Q -253.811 894.965 -253.801 894.991 Q -253.790 895.018 -253.780 895.045 Q -253.770 895.071 -253.760 895.098 Q -253.751 895.125 -253.742 895.153 Q -253.733 895.180 -253.725 895.208 Q -253.716 895.235 -253.709 895.263 Q -253.701 895.290 -253.694 895.318 Q -253.686 895.346 -253.680 895.374 Q -253.673 895.402 -253.667 895.430 Q -253.661 895.459 -253.656 895.487 Q -253.650 895.515 -253.646 895.544 Q -253.641 895.572 -253.637 895.601 Q -253.632 895.629 -253.629 895.658 Q -253.625 895.686 -253.622 895.715 Q -253.619 895.744 -253.617 895.773 Q -253.614 895.802 -253.613 895.830 Q -253.611 895.859 -253.610 895.888 Q -253.608 895.917 -253.608 895.946 Q -253.607 895.975 -253.607 896.004 Q -253.607 896.033 -253.608 896.062 Q -253.609 896.090 -253.610 896.119 Q -253.611 896.148 -253.613 896.177 Q -253.615 896.206 -253.618 896.235 Q -253.620 896.263 -253.623 896.292 Q -253.626 896.321 -253.630 896.350 Q -253.634 896.378 -253.638 896.407 Q -253.642 896.435 -253.647 896.464 Q -253.652 896.492 -253.658 896.521 Q -253.663 896.549 -253.669 896.577 Q -253.675 896.605 -253.682 896.633 Q -253.689 896.661 -253.696 896.689 Q -253.703 896.717 -253.711 896.745 Q -253.719 896.772 -253.728 896.800 Q -253.736 896.827 -253.745 896.854 Q -253.754 896.882 -253.764 896.909 Q -253.773 896.936 -253.784 896.962 Q -253.794 896.989 -253.805 897.016 Q -253.815 897.042 -253.827 897.068 Q -253.838 897.095 -253.850 897.121 Q -253.862 897.147 -253.874 897.172 Q -253.887 897.198 -253.899 897.224 Q -253.912 897.249 -253.926 897.274 Q -253.939 897.299 -253.953 897.324 Q -253.967 897.349 -253.982 897.373 Q -253.996 897.397 -254.011 897.421 Q -254.026 897.445 -254.042 897.469 Q -254.058 897.493 -254.074 897.516 Q -254.090 897.539 -254.106 897.562 Q -254.123 897.585 -254.140 897.608 Q -254.157 897.630 -254.174 897.652 Q -254.192 897.674 -254.210 897.696 Q -254.228 897.718 -254.246 897.739 Q -254.264 897.760 -254.283 897.781 Q -254.302 897.801 -254.321 897.822 Q -254.340 897.842 -254.360 897.862 Q -254.380 897.882 -254.400 897.901 Q -254.420 897.920 -254.441 897.939 Q -254.461 897.958 -254.482 897.976 Q -254.503 897.995 -254.524 898.013 Q -254.545 898.031 -254.567 898.048 Q -254.589 898.065 -254.611 898.082 Q -254.633 898.099 -254.655 898.115 Q -254.678 898.131 -254.700 898.147 Q -254.723 898.163 -254.746 898.178 Q -254.769 898.193 -254.792 898.208 Q -254.816 898.222 -254.839 898.236 Q -254.863 898.250 -254.887 898.264 Q -254.911 898.277 -254.935 898.290 Q -254.959 898.303 -254.984 898.315 Q -255.008 898.328 -255.033 898.339 Q -255.058 898.351 -255.083 898.362 Q -255.108 898.373 -255.133 898.384 Q -255.158 898.394 -255.183 898.404 Q -255.209 898.414 -255.234 898.423 Q -255.260 898.433 -255.286 898.441 Q -255.312 898.450 -255.338 898.458 Q -255.364 898.466 -255.390 898.473 Q -255.416 898.481 -255.442 898.487 Q -255.469 898.494 -255.495 898.500 Q -255.521 898.506 -255.548 898.512 Q -255.575 898.517 -255.601 898.522 Q -255.628 898.527 -255.655 898.531 Q -255.681 898.535 -255.708 898.539 Q -255.735 898.542 -255.762 898.545 Q -255.789 898.548 -255.816 898.551 Q -255.843 898.553 -255.870 898.554 Q -255.897 898.556 -255.924 898.557 Q -255.951 898.558 -255.978 898.558 Q -256.005 898.558 -256.032 898.558 Q -256.059 898.558 -256.086 898.557 Q -256.113 898.556 -256.140 898.554 Q -256.167 898.552 -256.194 898.550 Q -256.221 898.548 -256.248 898.545 Q -256.275 898.542 -256.302 898.538 Q -256.328 898.534 -256.355 898.530 Q -256.382 898.526 -256.408 898.521 Q -256.435 898.516 -256.462 898.510 Q -256.488 898.505 -256.515 898.499 Q -256.541 898.492 -256.567 898.486 Q -256.594 898.479 -256.620 898.471 Q -256.646 898.464 -256.672 898.456 Q -256.698 898.448 -256.723 898.439 Q -256.749 898.430 -256.775 898.421 Q -256.800 898.411 -256.826 898.401 Q -256.851 898.392 -256.876 898.381 Q -256.901 898.370 -256.926 898.359 Q -256.951 898.348 -256.976 898.336 Q -257.001 898.325 -257.025 898.312 Q -257.050 898.300 -257.074 898.287 Q -257.098 898.274 -257.122 898.260 Q -257.146 898.247 -257.169 898.233 Q -257.193 898.219 -257.216 898.204 Q -257.239 898.189 -257.262 898.174 Q -257.285 898.159 -257.308 898.143 Q -257.331 898.127 -257.353 898.111 Q -257.375 898.094 -257.397 898.078 Q -257.419 898.061 -257.441 898.043 Q -257.462 898.026 -257.483 898.008 Q -257.505 897.990 -257.526 897.972 Q -257.546 897.953 -257.567 897.934 Q -257.587 897.915 -257.607 897.896 Q -257.627 897.877 -257.647 897.857 Q -257.667 897.837 -257.686 897.816 Q -257.705 897.796 -257.724 897.775 Q -257.742 897.754 -257.761 897.733 Q -257.779 897.712 -257.797 897.690 Q -257.815 897.669 -257.832 897.646 Q -257.850 897.624 -257.866 897.602 Q -257.883 897.579 -257.900 897.556 Q -257.916 897.533 -257.932 897.510 Q -257.948 897.487 -257.964 897.463 Q -257.979 897.439 -257.994 897.415 Q -258.009 897.391 -258.023 897.367 Q -258.038 897.342 -258.052 897.317 Q -258.066 897.293 -258.079 897.267 Q -258.092 897.242 -258.105 897.217 Q -258.118 897.191 -258.130 897.166 Q -258.143 897.140 -258.154 897.114 Q -258.166 897.088 -258.177 897.062 Q -258.189 897.035 -258.199 897.009 Q -258.210 896.982 -258.220 896.955 Q -258.230 896.929 -258.240 896.902 Q -258.249 896.875 -258.258 896.847 Q -258.267 896.820 -258.275 896.792 Q -258.284 896.765 -258.292 896.737 Q -258.299 896.710 -258.306 896.682 Q -258.314 896.654 -258.320 896.626 Q -258.327 896.598 -258.333 896.570 Q -258.339 896.541 -258.344 896.513 Q -258.350 896.485 -258.354 896.456 Q -258.359 896.428 -258.364 896.399 Q -258.368 896.371 -258.371 896.342 Q -258.375 896.313 -258.378 896.285 Q -258.381 896.256 -258.383 896.227 Q -258.386 896.198 -258.387 896.170 Q -258.389 896.141 -258.390 896.112 Q -258.392 896.083 -258.392 896.054 Q -258.393 896.025 -258.393 895.996 Q -258.393 895.967 -258.392 895.938 Q -258.391 895.909 -258.390 895.881 Q -258.389 895.852 -258.387 895.823 Q -258.385 895.794 -258.382 895.765 Q -258.380 895.736 -258.377 895.708 Q -258.374 895.679 -258.370 895.650 Q -258.366 895.622 -258.362 895.593 Q -258.358 895.565 -258.353 895.536 Q -258.348 895.508 -258.342 895.479 Q -258.337 895.451 -258.331 895.423 Q -258.325 895.395 -258.318 895.367 Q -258.311 895.339 -258.304 895.311 Q -258.297 895.283 -258.289 895.255 Q -258.281 895.228 -258.272 895.200 Q -258.264 895.173 -258.255 895.146 Q -258.246 895.118 -258.236 895.091 Q -258.227 895.064 -258.216 895.038 Q -258.206 895.011 -258.195 894.984 Q -258.185 894.958 -258.173 894.931 Q -258.162 894.905 -258.150 894.879 Q -258.138 894.853 -258.126 894.828 Q -258.114 894.802 -258.101 894.776 Q -258.088 894.751 -258.074 894.726 Q -258.061 894.701 -258.047 894.676 Q -258.033 894.651 -258.018 894.627 Q -258.004 894.603 -257.989 894.578 Q -257.974 894.555 -257.958 894.531 Q -257.942 894.507 -257.926 894.484 Q -257.910 894.461 -257.894 894.438 Q -257.877 894.415 -257.860 894.392 Q -257.843 894.370 -257.826 894.348 Q -257.808 894.326 -257.790 894.304 Q -257.772 894.282 -257.754 894.261 Q -257.736 894.240 -257.717 894.219 Q -257.698 894.198 -257.679 894.178 Q -257.659 894.158 -257.640 894.138 Q -257.620 894.118 -257.600 894.099 Q -257.580 894.080 -257.559 894.061 Q -257.539 894.042 -257.518 894.024 Q -257.497 894.005 -257.476 893.987 Q -257.454 893.969 -257.433 893.952 Q -257.411 893.935 -257.389 893.918 Q -257.367 893.901 -257.345 893.885 Q -257.322 893.869 -257.300 893.853 Q -257.277 893.837 -257.254 893.822 Q -257.231 893.807 -257.208 893.792 Q -257.184 893.778 -257.161 893.764 Q -257.137 893.750 -257.113 893.736 Q -257.089 893.723 -257.065 893.710 Q -257.041 893.697 -257.016 893.685 Q -256.992 893.672 -256.967 893.661 Q -256.942 893.649 -256.917 893.638 Q -256.892 893.627 -256.867 893.616 Q -256.842 893.606 -256.817 893.596 Q -256.791 893.586 -256.766 893.577 Q -256.740 893.567 -256.714 893.559 Q -256.688 893.550 -256.662 893.542 Q -256.636 893.534 -256.610 893.527 Q -256.584 893.519 -256.558 893.513 Q -256.531 893.506 -256.505 893.500 Q -256.479 893.494 -256.452 893.488 Q -256.425 893.483 -256.399 893.478 Q -256.372 893.473 -256.345 893.469 Q -256.319 893.465 -256.292 893.461 Q -256.265 893.458 -256.238 893.455 Q -256.211 893.452 -256.184 893.450 Q -256.157 893.447 -256.130 893.446 Q -256.103 893.444 -256.076 893.443 Z"></path>
    <path id="STROKE_cb7e38e3-fa6e-4d90-bd99-add8df2ce7d4" opacity="1.000" fill="none" stroke="#f6ffd2" stroke-width="2.048" stroke-opacity="1.000" stroke-linecap="round" stroke-linejoin="round" d="M -160.076 861.443 Q -160.049 861.442 -160.022 861.442 Q -159.995 861.442 -159.968 861.442 Q -159.941 861.442 -159.914 861.443 Q -159.887 861.444 -159.860 861.446 Q -159.833 861.448 -159.806 861.450 Q -159.779 861.452 -159.752 861.455 Q -159.725 861.458 -159.699 861.462 Q -159.672 861.466 -159.645 861.470 Q -159.618 861.474 -159.592 861.479 Q -159.565 861.484 -159.538 861.490 Q -159.512 861.495 -159.485 861.501 Q -159.459 861.508 -159.433 861.514 Q -159.407 861.521 -159.380 861.529 Q -159.354 861.536 -159.328 861.544 Q -159.302 861.552 -159.277 861.561 Q -159.251 861.570 -159.225 861.579 Q -159.200 861.589 -159.174 861.598 Q -159.149 861.608 -159.124 861.619 Q -159.099 861.630 -159.074 861.641 Q -159.049 861.652 -159.024 861.664 Q -158.999 861.675 -158.975 861.688 Q -158.950 861.700 -158.926 861.713 Q -158.902 861.726 -158.878 861.740 Q -158.854 861.753 -158.831 861.767 Q -158.807 861.781 -158.784 861.796 Q -158.761 861.811 -158.738 861.826 Q -158.715 861.841 -158.692 861.857 Q -158.669 861.873 -158.647 861.889 Q -158.625 861.906 -158.603 861.922 Q -158.581 861.939 -158.559 861.957 Q -158.538 861.974 -158.517 861.992 Q -158.495 862.010 -158.474 862.028 Q -158.454 862.047 -158.433 862.066 Q -158.413 862.085 -158.393 862.104 Q -158.373 862.123 -158.353 862.143 Q -158.333 862.163 -158.314 862.183 Q -158.295 862.204 -158.276 862.225 Q -158.258 862.245 -158.239 862.267 Q -158.221 862.288 -158.203 862.310 Q -158.185 862.331 -158.168 862.354 Q -158.150 862.376 -158.134 862.398 Q -158.117 862.421 -158.100 862.444 Q -158.084 862.467 -158.068 862.490 Q -158.052 862.513 -158.036 862.537 Q -158.021 862.561 -158.006 862.585 Q -157.991 862.609 -157.977 862.633 Q -157.962 862.658 -157.948 862.683 Q -157.934 862.707 -157.921 862.733 Q -157.908 862.758 -157.895 862.783 Q -157.882 862.808 -157.870 862.834 Q -157.857 862.860 -157.846 862.886 Q -157.834 862.912 -157.823 862.938 Q -157.811 862.965 -157.801 862.991 Q -157.790 863.018 -157.780 863.045 Q -157.770 863.071 -157.760 863.098 Q -157.751 863.125 -157.742 863.153 Q -157.733 863.180 -157.725 863.208 Q -157.716 863.235 -157.709 863.263 Q -157.701 863.290 -157.694 863.318 Q -157.686 863.346 -157.680 863.374 Q -157.673 863.402 -157.667 863.430 Q -157.661 863.459 -157.656 863.487 Q -157.650 863.515 -157.646 863.544 Q -157.641 863.572 -157.637 863.601 Q -157.632 863.629 -157.629 863.658 Q -157.625 863.687 -157.622 863.715 Q -157.619 863.744 -157.617 863.773 Q -157.614 863.802 -157.613 863.830 Q -157.611 863.859 -157.610 863.888 Q -157.608 863.917 -157.608 863.946 Q -157.607 863.975 -157.607 864.004 Q -157.607 864.033 -157.608 864.062 Q -157.609 864.090 -157.610 864.119 Q -157.611 864.148 -157.613 864.177 Q -157.615 864.206 -157.618 864.235 Q -157.620 864.263 -157.623 864.292 Q -157.626 864.321 -157.630 864.350 Q -157.634 864.378 -157.638 864.407 Q -157.642 864.435 -157.647 864.464 Q -157.652 864.492 -157.658 864.521 Q -157.663 864.549 -157.669 864.577 Q -157.675 864.605 -157.682 864.633 Q -157.689 864.661 -157.696 864.689 Q -157.703 864.717 -157.711 864.745 Q -157.719 864.772 -157.728 864.800 Q -157.736 864.827 -157.745 864.854 Q -157.754 864.882 -157.764 864.909 Q -157.773 864.936 -157.784 864.962 Q -157.794 864.989 -157.805 865.016 Q -157.815 865.042 -157.827 865.068 Q -157.838 865.095 -157.850 865.121 Q -157.862 865.147 -157.874 865.172 Q -157.887 865.198 -157.899 865.224 Q -157.912 865.249 -157.926 865.274 Q -157.939 865.299 -157.953 865.324 Q -157.967 865.349 -157.982 865.373 Q -157.996 865.397 -158.011 865.421 Q -158.026 865.445 -158.042 865.469 Q -158.058 865.493 -158.074 865.516 Q -158.090 865.539 -158.106 865.562 Q -158.123 865.585 -158.140 865.608 Q -158.157 865.630 -158.174 865.652 Q -158.192 865.674 -158.210 865.696 Q -158.228 865.718 -158.246 865.739 Q -158.264 865.760 -158.283 865.781 Q -158.302 865.801 -158.321 865.822 Q -158.340 865.842 -158.360 865.862 Q -158.380 865.882 -158.400 865.901 Q -158.420 865.920 -158.441 865.939 Q -158.461 865.958 -158.482 865.976 Q -158.503 865.995 -158.524 866.013 Q -158.545 866.031 -158.567 866.048 Q -158.589 866.065 -158.611 866.082 Q -158.633 866.099 -158.655 866.115 Q -158.678 866.131 -158.700 866.147 Q -158.723 866.163 -158.746 866.178 Q -158.769 866.193 -158.792 866.208 Q -158.816 866.222 -158.839 866.236 Q -158.863 866.250 -158.887 866.264 Q -158.911 866.277 -158.935 866.290 Q -158.959 866.303 -158.984 866.315 Q -159.008 866.328 -159.033 866.339 Q -159.058 866.351 -159.083 866.362 Q -159.108 866.373 -159.133 866.384 Q -159.158 866.394 -159.183 866.404 Q -159.209 866.414 -159.234 866.423 Q -159.260 866.432 -159.286 866.441 Q -159.312 866.450 -159.338 866.458 Q -159.364 866.466 -159.390 866.473 Q -159.416 866.481 -159.442 866.487 Q -159.469 866.494 -159.495 866.500 Q -159.521 866.506 -159.548 866.512 Q -159.575 866.517 -159.601 866.522 Q -159.628 866.527 -159.655 866.531 Q -159.681 866.535 -159.708 866.539 Q -159.735 866.542 -159.762 866.545 Q -159.789 866.548 -159.816 866.551 Q -159.843 866.553 -159.870 866.554 Q -159.897 866.556 -159.924 866.557 Q -159.951 866.558 -159.978 866.558 Q -160.005 866.558 -160.032 866.558 Q -160.059 866.558 -160.086 866.557 Q -160.113 866.556 -160.140 866.554 Q -160.167 866.552 -160.194 866.550 Q -160.221 866.548 -160.248 866.545 Q -160.275 866.542 -160.301 866.538 Q -160.328 866.534 -160.355 866.530 Q -160.382 866.526 -160.408 866.521 Q -160.435 866.516 -160.462 866.510 Q -160.488 866.505 -160.515 866.499 Q -160.541 866.492 -160.567 866.486 Q -160.594 866.479 -160.620 866.471 Q -160.646 866.464 -160.672 866.456 Q -160.698 866.448 -160.723 866.439 Q -160.749 866.430 -160.775 866.421 Q -160.800 866.411 -160.826 866.401 Q -160.851 866.392 -160.876 866.381 Q -160.901 866.370 -160.926 866.359 Q -160.951 866.348 -160.976 866.336 Q -161.001 866.325 -161.025 866.312 Q -161.050 866.300 -161.074 866.287 Q -161.098 866.274 -161.122 866.260 Q -161.146 866.247 -161.169 866.233 Q -161.193 866.219 -161.216 866.204 Q -161.239 866.189 -161.262 866.174 Q -161.285 866.159 -161.308 866.143 Q -161.331 866.127 -161.353 866.111 Q -161.375 866.094 -161.397 866.078 Q -161.419 866.061 -161.441 866.043 Q -161.462 866.026 -161.484 866.008 Q -161.505 865.990 -161.526 865.972 Q -161.546 865.953 -161.567 865.934 Q -161.587 865.915 -161.607 865.896 Q -161.627 865.877 -161.647 865.857 Q -161.667 865.837 -161.686 865.816 Q -161.705 865.796 -161.724 865.775 Q -161.742 865.754 -161.761 865.733 Q -161.779 865.712 -161.797 865.690 Q -161.815 865.669 -161.832 865.646 Q -161.850 865.624 -161.866 865.602 Q -161.883 865.579 -161.900 865.556 Q -161.916 865.533 -161.932 865.510 Q -161.948 865.487 -161.964 865.463 Q -161.979 865.439 -161.994 865.415 Q -162.009 865.391 -162.023 865.367 Q -162.038 865.342 -162.052 865.317 Q -162.066 865.293 -162.079 865.267 Q -162.092 865.242 -162.105 865.217 Q -162.118 865.192 -162.130 865.166 Q -162.143 865.140 -162.154 865.114 Q -162.166 865.088 -162.177 865.062 Q -162.189 865.035 -162.199 865.009 Q -162.210 864.982 -162.220 864.955 Q -162.230 864.929 -162.240 864.901 Q -162.249 864.874 -162.258 864.847 Q -162.267 864.820 -162.275 864.792 Q -162.284 864.765 -162.292 864.737 Q -162.299 864.710 -162.306 864.682 Q -162.314 864.654 -162.320 864.626 Q -162.327 864.598 -162.333 864.570 Q -162.339 864.541 -162.344 864.513 Q -162.350 864.485 -162.355 864.456 Q -162.359 864.428 -162.364 864.399 Q -162.368 864.371 -162.371 864.342 Q -162.375 864.313 -162.378 864.285 Q -162.381 864.256 -162.383 864.227 Q -162.386 864.198 -162.387 864.170 Q -162.389 864.141 -162.390 864.112 Q -162.392 864.083 -162.392 864.054 Q -162.393 864.025 -162.393 863.996 Q -162.393 863.967 -162.392 863.938 Q -162.391 863.909 -162.390 863.881 Q -162.389 863.852 -162.387 863.823 Q -162.385 863.794 -162.382 863.765 Q -162.380 863.736 -162.377 863.708 Q -162.374 863.679 -162.370 863.650 Q -162.366 863.622 -162.362 863.593 Q -162.358 863.565 -162.353 863.536 Q -162.348 863.508 -162.342 863.479 Q -162.337 863.451 -162.331 863.423 Q -162.325 863.395 -162.318 863.367 Q -162.311 863.339 -162.304 863.311 Q -162.297 863.283 -162.289 863.255 Q -162.281 863.228 -162.272 863.200 Q -162.264 863.173 -162.255 863.146 Q -162.246 863.118 -162.236 863.091 Q -162.227 863.064 -162.216 863.038 Q -162.206 863.011 -162.195 862.984 Q -162.185 862.958 -162.173 862.931 Q -162.162 862.905 -162.150 862.879 Q -162.138 862.853 -162.126 862.828 Q -162.114 862.802 -162.101 862.776 Q -162.088 862.751 -162.074 862.726 Q -162.061 862.701 -162.047 862.676 Q -162.033 862.651 -162.018 862.627 Q -162.004 862.603 -161.989 862.578 Q -161.974 862.555 -161.958 862.531 Q -161.942 862.507 -161.926 862.484 Q -161.910 862.461 -161.894 862.438 Q -161.877 862.415 -161.860 862.392 Q -161.843 862.370 -161.826 862.348 Q -161.808 862.326 -161.790 862.304 Q -161.772 862.282 -161.754 862.261 Q -161.736 862.240 -161.717 862.219 Q -161.698 862.198 -161.679 862.178 Q -161.659 862.158 -161.640 862.138 Q -161.620 862.118 -161.600 862.099 Q -161.580 862.080 -161.559 862.061 Q -161.539 862.042 -161.518 862.023 Q -161.497 862.005 -161.476 861.987 Q -161.455 861.969 -161.433 861.952 Q -161.411 861.935 -161.389 861.918 Q -161.367 861.901 -161.345 861.885 Q -161.322 861.869 -161.300 861.853 Q -161.277 861.837 -161.254 861.822 Q -161.231 861.807 -161.208 861.792 Q -161.184 861.778 -161.161 861.764 Q -161.137 861.750 -161.113 861.736 Q -161.089 861.723 -161.065 861.710 Q -161.041 861.697 -161.016 861.685 Q -160.992 861.672 -160.967 861.661 Q -160.942 861.649 -160.917 861.638 Q -160.892 861.627 -160.867 861.616 Q -160.842 861.606 -160.817 861.596 Q -160.791 861.586 -160.766 861.577 Q -160.740 861.568 -160.714 861.559 Q -160.688 861.550 -160.662 861.542 Q -160.636 861.534 -160.610 861.527 Q -160.584 861.519 -160.558 861.513 Q -160.531 861.506 -160.505 861.500 Q -160.479 861.494 -160.452 861.488 Q -160.425 861.483 -160.399 861.478 Q -160.372 861.473 -160.345 861.469 Q -160.319 861.465 -160.292 861.461 Q -160.265 861.458 -160.238 861.455 Q -160.211 861.452 -160.184 861.449 Q -160.157 861.447 -160.130 861.446 Q -160.103 861.444 -160.076 861.443 Z"></path>
    <path id="STROKE_4697f12f-d184-4e6d-8195-6a12c2b3663c" opacity="1.000" fill="none" stroke="#f6ffd2" stroke-width="2.048" stroke-opacity="1.000" stroke-linecap="round" stroke-linejoin="round" d="M -160.076 701.443 Q -160.049 701.442 -160.022 701.442 Q -159.995 701.442 -159.968 701.442 Q -159.941 701.442 -159.914 701.443 Q -159.887 701.444 -159.860 701.446 Q -159.833 701.448 -159.806 701.450 Q -159.779 701.452 -159.752 701.455 Q -159.725 701.458 -159.699 701.462 Q -159.672 701.466 -159.645 701.470 Q -159.618 701.474 -159.592 701.479 Q -159.565 701.484 -159.538 701.490 Q -159.512 701.495 -159.485 701.501 Q -159.459 701.508 -159.433 701.514 Q -159.407 701.521 -159.380 701.529 Q -159.354 701.536 -159.328 701.544 Q -159.302 701.552 -159.277 701.561 Q -159.251 701.570 -159.225 701.579 Q -159.200 701.589 -159.174 701.599 Q -159.149 701.608 -159.124 701.619 Q -159.099 701.630 -159.074 701.641 Q -159.049 701.652 -159.024 701.664 Q -158.999 701.675 -158.975 701.688 Q -158.951 701.700 -158.926 701.713 Q -158.902 701.726 -158.878 701.740 Q -158.854 701.753 -158.831 701.767 Q -158.807 701.781 -158.784 701.796 Q -158.761 701.811 -158.738 701.826 Q -158.715 701.841 -158.692 701.857 Q -158.669 701.873 -158.647 701.889 Q -158.625 701.906 -158.603 701.922 Q -158.581 701.939 -158.559 701.957 Q -158.538 701.974 -158.517 701.992 Q -158.495 702.010 -158.474 702.028 Q -158.454 702.047 -158.433 702.066 Q -158.413 702.085 -158.393 702.104 Q -158.373 702.123 -158.353 702.143 Q -158.333 702.163 -158.314 702.184 Q -158.295 702.204 -158.276 702.225 Q -158.258 702.246 -158.239 702.267 Q -158.221 702.288 -158.203 702.310 Q -158.185 702.331 -158.168 702.354 Q -158.151 702.376 -158.134 702.398 Q -158.117 702.421 -158.100 702.444 Q -158.084 702.467 -158.068 702.490 Q -158.052 702.513 -158.036 702.537 Q -158.021 702.561 -158.006 702.585 Q -157.991 702.609 -157.977 702.633 Q -157.962 702.658 -157.948 702.683 Q -157.934 702.707 -157.921 702.733 Q -157.908 702.758 -157.895 702.783 Q -157.882 702.809 -157.870 702.834 Q -157.857 702.860 -157.846 702.886 Q -157.834 702.912 -157.823 702.938 Q -157.811 702.965 -157.801 702.991 Q -157.790 703.018 -157.780 703.045 Q -157.770 703.071 -157.760 703.098 Q -157.751 703.125 -157.742 703.153 Q -157.733 703.180 -157.725 703.208 Q -157.716 703.235 -157.709 703.263 Q -157.701 703.290 -157.694 703.318 Q -157.686 703.346 -157.680 703.374 Q -157.673 703.402 -157.667 703.430 Q -157.661 703.459 -157.656 703.487 Q -157.650 703.515 -157.646 703.544 Q -157.641 703.572 -157.637 703.601 Q -157.632 703.629 -157.629 703.658 Q -157.625 703.687 -157.622 703.715 Q -157.619 703.744 -157.617 703.773 Q -157.614 703.802 -157.613 703.830 Q -157.611 703.859 -157.610 703.888 Q -157.608 703.917 -157.608 703.946 Q -157.607 703.975 -157.607 704.004 Q -157.607 704.033 -157.608 704.062 Q -157.609 704.091 -157.610 704.119 Q -157.611 704.148 -157.613 704.177 Q -157.615 704.206 -157.618 704.235 Q -157.620 704.264 -157.623 704.292 Q -157.626 704.321 -157.630 704.350 Q -157.634 704.378 -157.638 704.407 Q -157.642 704.435 -157.647 704.464 Q -157.652 704.492 -157.658 704.521 Q -157.663 704.549 -157.669 704.577 Q -157.675 704.605 -157.682 704.633 Q -157.689 704.661 -157.696 704.689 Q -157.703 704.717 -157.711 704.745 Q -157.719 704.772 -157.728 704.800 Q -157.736 704.827 -157.745 704.854 Q -157.754 704.882 -157.764 704.909 Q -157.774 704.936 -157.784 704.962 Q -157.794 704.989 -157.805 705.016 Q -157.815 705.042 -157.827 705.069 Q -157.838 705.095 -157.850 705.121 Q -157.862 705.147 -157.874 705.172 Q -157.887 705.198 -157.899 705.224 Q -157.912 705.249 -157.926 705.274 Q -157.939 705.299 -157.953 705.324 Q -157.967 705.349 -157.982 705.373 Q -157.996 705.397 -158.011 705.421 Q -158.027 705.445 -158.042 705.469 Q -158.058 705.493 -158.074 705.516 Q -158.090 705.539 -158.106 705.562 Q -158.123 705.585 -158.140 705.608 Q -158.157 705.630 -158.174 705.652 Q -158.192 705.674 -158.210 705.696 Q -158.228 705.718 -158.246 705.739 Q -158.264 705.760 -158.283 705.781 Q -158.302 705.802 -158.321 705.822 Q -158.341 705.842 -158.360 705.862 Q -158.380 705.882 -158.400 705.901 Q -158.420 705.920 -158.441 705.939 Q -158.461 705.958 -158.482 705.977 Q -158.503 705.995 -158.524 706.013 Q -158.545 706.031 -158.567 706.048 Q -158.589 706.065 -158.611 706.082 Q -158.633 706.099 -158.655 706.115 Q -158.678 706.131 -158.700 706.147 Q -158.723 706.163 -158.746 706.178 Q -158.769 706.193 -158.792 706.208 Q -158.816 706.222 -158.839 706.236 Q -158.863 706.250 -158.887 706.264 Q -158.911 706.277 -158.935 706.290 Q -158.959 706.303 -158.984 706.315 Q -159.008 706.328 -159.033 706.339 Q -159.058 706.351 -159.083 706.362 Q -159.108 706.373 -159.133 706.384 Q -159.158 706.394 -159.183 706.404 Q -159.209 706.414 -159.234 706.423 Q -159.260 706.433 -159.286 706.441 Q -159.312 706.450 -159.338 706.458 Q -159.364 706.466 -159.390 706.473 Q -159.416 706.481 -159.442 706.487 Q -159.469 706.494 -159.495 706.500 Q -159.521 706.506 -159.548 706.512 Q -159.575 706.517 -159.601 706.522 Q -159.628 706.527 -159.655 706.531 Q -159.681 706.535 -159.708 706.539 Q -159.735 706.542 -159.762 706.545 Q -159.789 706.548 -159.816 706.551 Q -159.843 706.553 -159.870 706.554 Q -159.897 706.556 -159.924 706.557 Q -159.951 706.558 -159.978 706.558 Q -160.005 706.558 -160.032 706.558 Q -160.059 706.558 -160.086 706.557 Q -160.113 706.556 -160.140 706.554 Q -160.167 706.552 -160.194 706.550 Q -160.221 706.548 -160.248 706.545 Q -160.275 706.542 -160.302 706.538 Q -160.328 706.534 -160.355 706.530 Q -160.382 706.526 -160.408 706.521 Q -160.435 706.516 -160.462 706.510 Q -160.488 706.505 -160.515 706.499 Q -160.541 706.493 -160.567 706.486 Q -160.594 706.479 -160.620 706.471 Q -160.646 706.464 -160.672 706.456 Q -160.698 706.448 -160.723 706.439 Q -160.749 706.430 -160.775 706.421 Q -160.800 706.411 -160.826 706.402 Q -160.851 706.392 -160.876 706.381 Q -160.901 706.370 -160.926 706.359 Q -160.951 706.348 -160.976 706.336 Q -161.001 706.325 -161.025 706.312 Q -161.050 706.300 -161.074 706.287 Q -161.098 706.274 -161.122 706.260 Q -161.146 706.247 -161.169 706.233 Q -161.193 706.219 -161.216 706.204 Q -161.239 706.189 -161.262 706.174 Q -161.285 706.159 -161.308 706.143 Q -161.331 706.127 -161.353 706.111 Q -161.375 706.094 -161.397 706.078 Q -161.419 706.061 -161.441 706.043 Q -161.462 706.026 -161.484 706.008 Q -161.505 705.990 -161.526 705.972 Q -161.546 705.953 -161.567 705.934 Q -161.587 705.915 -161.607 705.896 Q -161.627 705.877 -161.647 705.857 Q -161.667 705.837 -161.686 705.817 Q -161.705 705.796 -161.724 705.775 Q -161.742 705.755 -161.761 705.733 Q -161.779 705.712 -161.797 705.690 Q -161.815 705.669 -161.832 705.646 Q -161.850 705.624 -161.866 705.602 Q -161.883 705.579 -161.900 705.556 Q -161.916 705.533 -161.932 705.510 Q -161.948 705.487 -161.964 705.463 Q -161.979 705.439 -161.994 705.415 Q -162.009 705.391 -162.023 705.367 Q -162.038 705.342 -162.052 705.317 Q -162.066 705.293 -162.079 705.267 Q -162.092 705.242 -162.105 705.217 Q -162.118 705.192 -162.130 705.166 Q -162.143 705.140 -162.154 705.114 Q -162.166 705.088 -162.177 705.062 Q -162.189 705.035 -162.199 705.009 Q -162.210 704.982 -162.220 704.955 Q -162.230 704.929 -162.240 704.902 Q -162.249 704.875 -162.258 704.847 Q -162.267 704.820 -162.275 704.792 Q -162.284 704.765 -162.292 704.737 Q -162.299 704.710 -162.306 704.682 Q -162.314 704.654 -162.320 704.626 Q -162.327 704.598 -162.333 704.570 Q -162.339 704.541 -162.344 704.513 Q -162.350 704.485 -162.355 704.456 Q -162.359 704.428 -162.364 704.399 Q -162.368 704.371 -162.371 704.342 Q -162.375 704.313 -162.378 704.285 Q -162.381 704.256 -162.383 704.227 Q -162.386 704.198 -162.387 704.170 Q -162.389 704.141 -162.390 704.112 Q -162.392 704.083 -162.392 704.054 Q -162.393 704.025 -162.393 703.996 Q -162.393 703.967 -162.392 703.938 Q -162.391 703.909 -162.390 703.881 Q -162.389 703.852 -162.387 703.823 Q -162.385 703.794 -162.382 703.765 Q -162.380 703.736 -162.377 703.708 Q -162.374 703.679 -162.370 703.650 Q -162.366 703.622 -162.362 703.593 Q -162.358 703.565 -162.353 703.536 Q -162.348 703.508 -162.342 703.479 Q -162.337 703.451 -162.331 703.423 Q -162.325 703.395 -162.318 703.367 Q -162.311 703.339 -162.304 703.311 Q -162.297 703.283 -162.289 703.255 Q -162.281 703.228 -162.272 703.200 Q -162.264 703.173 -162.255 703.146 Q -162.246 703.118 -162.236 703.091 Q -162.227 703.064 -162.216 703.038 Q -162.206 703.011 -162.195 702.984 Q -162.185 702.958 -162.173 702.932 Q -162.162 702.905 -162.150 702.879 Q -162.138 702.853 -162.126 702.828 Q -162.114 702.802 -162.101 702.776 Q -162.088 702.751 -162.074 702.726 Q -162.061 702.701 -162.047 702.676 Q -162.033 702.651 -162.018 702.627 Q -162.004 702.603 -161.989 702.579 Q -161.974 702.555 -161.958 702.531 Q -161.942 702.507 -161.926 702.484 Q -161.910 702.461 -161.894 702.438 Q -161.877 702.415 -161.860 702.392 Q -161.843 702.370 -161.826 702.348 Q -161.808 702.326 -161.790 702.304 Q -161.773 702.282 -161.754 702.261 Q -161.736 702.240 -161.717 702.219 Q -161.698 702.199 -161.679 702.178 Q -161.660 702.158 -161.640 702.138 Q -161.620 702.118 -161.600 702.099 Q -161.580 702.080 -161.559 702.061 Q -161.539 702.042 -161.518 702.024 Q -161.497 702.005 -161.476 701.987 Q -161.455 701.969 -161.433 701.952 Q -161.411 701.935 -161.389 701.918 Q -161.367 701.901 -161.345 701.885 Q -161.322 701.869 -161.300 701.853 Q -161.277 701.837 -161.254 701.822 Q -161.231 701.807 -161.208 701.792 Q -161.184 701.778 -161.161 701.764 Q -161.137 701.750 -161.113 701.736 Q -161.089 701.723 -161.065 701.710 Q -161.041 701.697 -161.016 701.685 Q -160.992 701.672 -160.967 701.661 Q -160.942 701.649 -160.917 701.638 Q -160.892 701.627 -160.867 701.616 Q -160.842 701.606 -160.817 701.596 Q -160.791 701.586 -160.766 701.577 Q -160.740 701.567 -160.714 701.559 Q -160.688 701.550 -160.662 701.542 Q -160.636 701.534 -160.610 701.527 Q -160.584 701.519 -160.558 701.513 Q -160.531 701.506 -160.505 701.500 Q -160.479 701.494 -160.452 701.488 Q -160.425 701.483 -160.399 701.478 Q -160.372 701.473 -160.345 701.469 Q -160.319 701.465 -160.292 701.461 Q -160.265 701.458 -160.238 701.455 Q -160.211 701.452 -160.184 701.450 Q -160.157 701.447 -160.130 701.446 Q -160.103 701.444 -160.076 701.443 Z"></path>
    <path id="STROKE_69ab5a70-d8bd-447b-9eb8-ee3d265d6011" opacity="1.000" fill="none" stroke="#f6ffd2" stroke-width="2.048" stroke-opacity="1.000" stroke-linecap="round" stroke-linejoin="round" d="M -256.076 733.443 Q -256.049 733.442 -256.022 733.442 Q -255.995 733.442 -255.968 733.442 Q -255.941 733.442 -255.914 733.443 Q -255.887 733.444 -255.860 733.446 Q -255.833 733.448 -255.806 733.450 Q -255.779 733.452 -255.752 733.455 Q -255.725 733.458 -255.699 733.462 Q -255.672 733.466 -255.645 733.470 Q -255.618 733.474 -255.592 733.479 Q -255.565 733.484 -255.538 733.490 Q -255.512 733.495 -255.485 733.501 Q -255.459 733.508 -255.433 733.514 Q -255.407 733.521 -255.380 733.529 Q -255.354 733.536 -255.328 733.544 Q -255.302 733.552 -255.277 733.561 Q -255.251 733.570 -255.225 733.579 Q -255.200 733.589 -255.174 733.599 Q -255.149 733.608 -255.124 733.619 Q -255.099 733.630 -255.074 733.641 Q -255.049 733.652 -255.024 733.664 Q -254.999 733.675 -254.975 733.688 Q -254.950 733.700 -254.926 733.713 Q -254.902 733.726 -254.878 733.740 Q -254.854 733.753 -254.831 733.767 Q -254.807 733.781 -254.784 733.796 Q -254.761 733.811 -254.738 733.826 Q -254.715 733.841 -254.692 733.857 Q -254.669 733.873 -254.647 733.889 Q -254.625 733.906 -254.603 733.922 Q -254.581 733.939 -254.559 733.957 Q -254.538 733.974 -254.517 733.992 Q -254.495 734.010 -254.474 734.028 Q -254.454 734.047 -254.433 734.066 Q -254.413 734.085 -254.393 734.104 Q -254.373 734.123 -254.353 734.143 Q -254.333 734.163 -254.314 734.183 Q -254.295 734.204 -254.276 734.225 Q -254.258 734.245 -254.239 734.267 Q -254.221 734.288 -254.203 734.310 Q -254.185 734.331 -254.168 734.354 Q -254.150 734.376 -254.134 734.398 Q -254.117 734.421 -254.100 734.444 Q -254.084 734.467 -254.068 734.490 Q -254.052 734.513 -254.036 734.537 Q -254.021 734.561 -254.006 734.585 Q -253.991 734.609 -253.977 734.633 Q -253.962 734.658 -253.948 734.683 Q -253.934 734.707 -253.921 734.733 Q -253.908 734.758 -253.895 734.783 Q -253.882 734.809 -253.870 734.834 Q -253.857 734.860 -253.846 734.886 Q -253.834 734.912 -253.823 734.938 Q -253.811 734.965 -253.801 734.991 Q -253.790 735.018 -253.780 735.045 Q -253.770 735.071 -253.760 735.099 Q -253.751 735.126 -253.742 735.153 Q -253.733 735.180 -253.725 735.208 Q -253.716 735.235 -253.709 735.263 Q -253.701 735.290 -253.694 735.318 Q -253.686 735.346 -253.680 735.374 Q -253.673 735.402 -253.667 735.430 Q -253.661 735.459 -253.656 735.487 Q -253.650 735.515 -253.646 735.544 Q -253.641 735.572 -253.637 735.601 Q -253.632 735.629 -253.629 735.658 Q -253.625 735.687 -253.622 735.715 Q -253.619 735.744 -253.617 735.773 Q -253.614 735.802 -253.613 735.830 Q -253.611 735.859 -253.610 735.888 Q -253.608 735.917 -253.608 735.946 Q -253.607 735.975 -253.607 736.004 Q -253.607 736.033 -253.608 736.062 Q -253.609 736.091 -253.610 736.119 Q -253.611 736.148 -253.613 736.177 Q -253.615 736.206 -253.618 736.235 Q -253.620 736.263 -253.623 736.292 Q -253.626 736.321 -253.630 736.350 Q -253.634 736.378 -253.638 736.407 Q -253.642 736.435 -253.647 736.464 Q -253.652 736.492 -253.658 736.521 Q -253.663 736.549 -253.669 736.577 Q -253.675 736.605 -253.682 736.633 Q -253.689 736.661 -253.696 736.689 Q -253.703 736.717 -253.711 736.745 Q -253.719 736.772 -253.728 736.800 Q -253.736 736.827 -253.745 736.854 Q -253.754 736.882 -253.764 736.909 Q -253.773 736.936 -253.784 736.962 Q -253.794 736.989 -253.805 737.016 Q -253.815 737.042 -253.827 737.069 Q -253.838 737.095 -253.850 737.121 Q -253.862 737.147 -253.874 737.172 Q -253.887 737.198 -253.899 737.224 Q -253.912 737.249 -253.926 737.274 Q -253.939 737.299 -253.953 737.324 Q -253.967 737.349 -253.982 737.373 Q -253.996 737.397 -254.011 737.421 Q -254.026 737.445 -254.042 737.469 Q -254.058 737.493 -254.074 737.516 Q -254.090 737.539 -254.106 737.562 Q -254.123 737.585 -254.140 737.608 Q -254.157 737.630 -254.174 737.652 Q -254.192 737.674 -254.210 737.696 Q -254.228 737.718 -254.246 737.739 Q -254.264 737.760 -254.283 737.781 Q -254.302 737.802 -254.321 737.822 Q -254.340 737.842 -254.360 737.862 Q -254.380 737.882 -254.400 737.901 Q -254.420 737.920 -254.441 737.939 Q -254.461 737.958 -254.482 737.977 Q -254.503 737.995 -254.524 738.013 Q -254.545 738.031 -254.567 738.048 Q -254.589 738.065 -254.611 738.082 Q -254.633 738.099 -254.655 738.115 Q -254.678 738.131 -254.700 738.147 Q -254.723 738.163 -254.746 738.178 Q -254.769 738.193 -254.792 738.208 Q -254.816 738.222 -254.839 738.236 Q -254.863 738.250 -254.887 738.264 Q -254.911 738.277 -254.935 738.290 Q -254.959 738.303 -254.984 738.315 Q -255.008 738.328 -255.033 738.339 Q -255.058 738.351 -255.083 738.362 Q -255.108 738.373 -255.133 738.384 Q -255.158 738.394 -255.183 738.404 Q -255.209 738.414 -255.234 738.423 Q -255.260 738.433 -255.286 738.441 Q -255.312 738.450 -255.338 738.458 Q -255.364 738.466 -255.390 738.473 Q -255.416 738.481 -255.442 738.487 Q -255.469 738.494 -255.495 738.500 Q -255.521 738.506 -255.548 738.512 Q -255.575 738.517 -255.601 738.522 Q -255.628 738.527 -255.655 738.531 Q -255.681 738.535 -255.708 738.539 Q -255.735 738.542 -255.762 738.545 Q -255.789 738.548 -255.816 738.551 Q -255.843 738.553 -255.870 738.554 Q -255.897 738.556 -255.924 738.557 Q -255.951 738.558 -255.978 738.558 Q -256.005 738.558 -256.032 738.558 Q -256.059 738.558 -256.086 738.557 Q -256.113 738.556 -256.140 738.554 Q -256.167 738.552 -256.194 738.550 Q -256.221 738.548 -256.248 738.545 Q -256.275 738.542 -256.302 738.538 Q -256.328 738.534 -256.355 738.530 Q -256.382 738.526 -256.408 738.521 Q -256.435 738.516 -256.462 738.510 Q -256.488 738.505 -256.515 738.499 Q -256.541 738.493 -256.567 738.486 Q -256.594 738.479 -256.620 738.471 Q -256.646 738.464 -256.672 738.456 Q -256.698 738.448 -256.723 738.439 Q -256.749 738.430 -256.775 738.421 Q -256.800 738.411 -256.826 738.402 Q -256.851 738.392 -256.876 738.381 Q -256.901 738.370 -256.926 738.359 Q -256.951 738.348 -256.976 738.336 Q -257.001 738.325 -257.025 738.312 Q -257.050 738.300 -257.074 738.287 Q -257.098 738.274 -257.122 738.260 Q -257.146 738.247 -257.169 738.233 Q -257.193 738.219 -257.216 738.204 Q -257.239 738.189 -257.262 738.174 Q -257.285 738.159 -257.308 738.143 Q -257.331 738.127 -257.353 738.111 Q -257.375 738.095 -257.397 738.078 Q -257.419 738.061 -257.441 738.043 Q -257.462 738.026 -257.483 738.008 Q -257.505 737.990 -257.526 737.972 Q -257.546 737.953 -257.567 737.934 Q -257.587 737.915 -257.607 737.896 Q -257.627 737.877 -257.647 737.857 Q -257.667 737.837 -257.686 737.816 Q -257.705 737.796 -257.724 737.775 Q -257.742 737.755 -257.761 737.733 Q -257.779 737.712 -257.797 737.690 Q -257.815 737.669 -257.832 737.646 Q -257.850 737.624 -257.866 737.602 Q -257.883 737.579 -257.900 737.556 Q -257.916 737.533 -257.932 737.510 Q -257.948 737.487 -257.964 737.463 Q -257.979 737.439 -257.994 737.415 Q -258.009 737.391 -258.023 737.367 Q -258.038 737.342 -258.052 737.317 Q -258.066 737.293 -258.079 737.268 Q -258.092 737.242 -258.105 737.217 Q -258.118 737.192 -258.130 737.166 Q -258.143 737.140 -258.154 737.114 Q -258.166 737.088 -258.177 737.062 Q -258.189 737.035 -258.199 737.009 Q -258.210 736.982 -258.220 736.955 Q -258.230 736.929 -258.240 736.902 Q -258.249 736.875 -258.258 736.847 Q -258.267 736.820 -258.275 736.792 Q -258.284 736.765 -258.292 736.737 Q -258.299 736.710 -258.306 736.682 Q -258.314 736.654 -258.320 736.626 Q -258.327 736.598 -258.333 736.570 Q -258.339 736.541 -258.344 736.513 Q -258.350 736.485 -258.354 736.456 Q -258.359 736.428 -258.364 736.399 Q -258.368 736.371 -258.371 736.342 Q -258.375 736.313 -258.378 736.285 Q -258.381 736.256 -258.383 736.227 Q -258.386 736.198 -258.387 736.170 Q -258.389 736.141 -258.390 736.112 Q -258.392 736.083 -258.392 736.054 Q -258.393 736.025 -258.393 735.996 Q -258.393 735.967 -258.392 735.938 Q -258.391 735.909 -258.390 735.881 Q -258.389 735.852 -258.387 735.823 Q -258.385 735.794 -258.382 735.765 Q -258.380 735.737 -258.377 735.708 Q -258.374 735.679 -258.370 735.650 Q -258.366 735.622 -258.362 735.593 Q -258.358 735.565 -258.353 735.536 Q -258.348 735.508 -258.342 735.479 Q -258.337 735.451 -258.331 735.423 Q -258.325 735.395 -258.318 735.367 Q -258.311 735.339 -258.304 735.311 Q -258.297 735.283 -258.289 735.255 Q -258.281 735.228 -258.272 735.200 Q -258.264 735.173 -258.255 735.146 Q -258.246 735.118 -258.236 735.091 Q -258.227 735.064 -258.216 735.038 Q -258.206 735.011 -258.195 734.984 Q -258.185 734.958 -258.173 734.931 Q -258.162 734.905 -258.150 734.879 Q -258.138 734.853 -258.126 734.828 Q -258.114 734.802 -258.101 734.776 Q -258.088 734.751 -258.074 734.726 Q -258.061 734.701 -258.047 734.676 Q -258.033 734.651 -258.018 734.627 Q -258.004 734.603 -257.989 734.579 Q -257.974 734.555 -257.958 734.531 Q -257.942 734.507 -257.926 734.484 Q -257.910 734.461 -257.894 734.438 Q -257.877 734.415 -257.860 734.392 Q -257.843 734.370 -257.826 734.348 Q -257.808 734.326 -257.790 734.304 Q -257.772 734.282 -257.754 734.261 Q -257.736 734.240 -257.717 734.219 Q -257.698 734.199 -257.679 734.178 Q -257.659 734.158 -257.640 734.138 Q -257.620 734.118 -257.600 734.099 Q -257.580 734.080 -257.559 734.061 Q -257.539 734.042 -257.518 734.024 Q -257.497 734.005 -257.476 733.987 Q -257.454 733.969 -257.433 733.952 Q -257.411 733.935 -257.389 733.918 Q -257.367 733.901 -257.345 733.885 Q -257.322 733.869 -257.300 733.853 Q -257.277 733.837 -257.254 733.822 Q -257.231 733.807 -257.208 733.792 Q -257.184 733.778 -257.161 733.764 Q -257.137 733.750 -257.113 733.736 Q -257.089 733.723 -257.065 733.710 Q -257.041 733.697 -257.016 733.685 Q -256.992 733.672 -256.967 733.661 Q -256.942 733.649 -256.917 733.638 Q -256.892 733.627 -256.867 733.616 Q -256.842 733.606 -256.817 733.596 Q -256.791 733.586 -256.766 733.577 Q -256.740 733.568 -256.714 733.559 Q -256.688 733.550 -256.662 733.542 Q -256.636 733.534 -256.610 733.527 Q -256.584 733.519 -256.558 733.513 Q -256.531 733.506 -256.505 733.500 Q -256.479 733.494 -256.452 733.488 Q -256.425 733.483 -256.399 733.478 Q -256.372 733.473 -256.345 733.469 Q -256.319 733.465 -256.292 733.461 Q -256.265 733.458 -256.238 733.455 Q -256.211 733.452 -256.184 733.450 Q -256.157 733.447 -256.130 733.446 Q -256.103 733.444 -256.076 733.443 Z"></path>
    <path id="STROKE_2fe63611-cea5-43c0-968b-b418bc36cf5b" opacity="1.000" fill="none" stroke="#f6ffd2" stroke-width="2.048" stroke-opacity="1.000" stroke-linecap="round" stroke-linejoin="round" d="M -128.076 733.443 Q -128.049 733.442 -128.022 733.442 Q -127.995 733.442 -127.968 733.442 Q -127.941 733.442 -127.914 733.443 Q -127.887 733.444 -127.860 733.446 Q -127.833 733.448 -127.806 733.450 Q -127.779 733.452 -127.752 733.455 Q -127.725 733.458 -127.699 733.462 Q -127.672 733.466 -127.645 733.470 Q -127.618 733.474 -127.592 733.479 Q -127.565 733.484 -127.538 733.490 Q -127.512 733.495 -127.485 733.501 Q -127.459 733.508 -127.433 733.514 Q -127.407 733.521 -127.380 733.529 Q -127.354 733.536 -127.328 733.544 Q -127.302 733.552 -127.277 733.561 Q -127.251 733.570 -127.225 733.579 Q -127.200 733.589 -127.174 733.599 Q -127.149 733.608 -127.124 733.619 Q -127.099 733.630 -127.074 733.641 Q -127.049 733.652 -127.024 733.664 Q -126.999 733.675 -126.975 733.688 Q -126.951 733.700 -126.926 733.713 Q -126.902 733.726 -126.878 733.740 Q -126.854 733.753 -126.831 733.767 Q -126.807 733.781 -126.784 733.796 Q -126.761 733.811 -126.738 733.826 Q -126.715 733.841 -126.692 733.857 Q -126.669 733.873 -126.647 733.889 Q -126.625 733.906 -126.603 733.922 Q -126.581 733.939 -126.559 733.957 Q -126.538 733.974 -126.517 733.992 Q -126.495 734.010 -126.474 734.028 Q -126.454 734.047 -126.433 734.066 Q -126.413 734.085 -126.393 734.104 Q -126.373 734.123 -126.353 734.143 Q -126.333 734.163 -126.314 734.183 Q -126.295 734.204 -126.276 734.225 Q -126.258 734.245 -126.239 734.267 Q -126.221 734.288 -126.203 734.310 Q -126.185 734.331 -126.168 734.354 Q -126.151 734.376 -126.134 734.398 Q -126.117 734.421 -126.100 734.444 Q -126.084 734.467 -126.068 734.490 Q -126.052 734.513 -126.036 734.537 Q -126.021 734.561 -126.006 734.585 Q -125.991 734.609 -125.977 734.633 Q -125.962 734.658 -125.948 734.683 Q -125.934 734.707 -125.921 734.733 Q -125.908 734.758 -125.895 734.783 Q -125.882 734.809 -125.870 734.834 Q -125.857 734.860 -125.846 734.886 Q -125.834 734.912 -125.823 734.938 Q -125.811 734.965 -125.801 734.991 Q -125.790 735.018 -125.780 735.045 Q -125.770 735.071 -125.760 735.099 Q -125.751 735.126 -125.742 735.153 Q -125.733 735.180 -125.725 735.208 Q -125.716 735.235 -125.709 735.263 Q -125.701 735.290 -125.694 735.318 Q -125.686 735.346 -125.680 735.374 Q -125.673 735.402 -125.667 735.430 Q -125.661 735.459 -125.656 735.487 Q -125.650 735.515 -125.646 735.544 Q -125.641 735.572 -125.637 735.601 Q -125.632 735.629 -125.629 735.658 Q -125.625 735.687 -125.622 735.715 Q -125.619 735.744 -125.617 735.773 Q -125.614 735.802 -125.613 735.830 Q -125.611 735.859 -125.610 735.888 Q -125.608 735.917 -125.608 735.946 Q -125.607 735.975 -125.607 736.004 Q -125.607 736.033 -125.608 736.062 Q -125.609 736.091 -125.610 736.119 Q -125.611 736.148 -125.613 736.177 Q -125.615 736.206 -125.618 736.235 Q -125.620 736.263 -125.623 736.292 Q -125.626 736.321 -125.630 736.350 Q -125.634 736.378 -125.638 736.407 Q -125.642 736.435 -125.647 736.464 Q -125.652 736.492 -125.658 736.521 Q -125.663 736.549 -125.669 736.577 Q -125.675 736.605 -125.682 736.633 Q -125.689 736.661 -125.696 736.689 Q -125.703 736.717 -125.711 736.745 Q -125.719 736.772 -125.728 736.800 Q -125.736 736.827 -125.745 736.854 Q -125.754 736.882 -125.764 736.909 Q -125.773 736.936 -125.784 736.962 Q -125.794 736.989 -125.805 737.016 Q -125.815 737.042 -125.827 737.069 Q -125.838 737.095 -125.850 737.121 Q -125.862 737.147 -125.874 737.172 Q -125.887 737.198 -125.899 737.224 Q -125.912 737.249 -125.926 737.274 Q -125.939 737.299 -125.953 737.324 Q -125.967 737.349 -125.982 737.373 Q -125.996 737.397 -126.011 737.421 Q -126.026 737.445 -126.042 737.469 Q -126.058 737.493 -126.074 737.516 Q -126.090 737.539 -126.106 737.562 Q -126.123 737.585 -126.140 737.608 Q -126.157 737.630 -126.174 737.652 Q -126.192 737.674 -126.210 737.696 Q -126.228 737.718 -126.246 737.739 Q -126.264 737.760 -126.283 737.781 Q -126.302 737.802 -126.321 737.822 Q -126.340 737.842 -126.360 737.862 Q -126.380 737.882 -126.400 737.901 Q -126.420 737.920 -126.441 737.939 Q -126.461 737.958 -126.482 737.977 Q -126.503 737.995 -126.524 738.013 Q -126.545 738.031 -126.567 738.048 Q -126.589 738.065 -126.611 738.082 Q -126.633 738.099 -126.655 738.115 Q -126.678 738.131 -126.700 738.147 Q -126.723 738.163 -126.746 738.178 Q -126.769 738.193 -126.792 738.208 Q -126.816 738.222 -126.839 738.236 Q -126.863 738.250 -126.887 738.264 Q -126.911 738.277 -126.935 738.290 Q -126.959 738.303 -126.984 738.315 Q -127.008 738.328 -127.033 738.339 Q -127.058 738.351 -127.083 738.362 Q -127.108 738.373 -127.133 738.384 Q -127.158 738.394 -127.183 738.404 Q -127.209 738.414 -127.234 738.423 Q -127.260 738.433 -127.286 738.441 Q -127.312 738.450 -127.338 738.458 Q -127.364 738.466 -127.390 738.473 Q -127.416 738.481 -127.442 738.487 Q -127.469 738.494 -127.495 738.500 Q -127.521 738.506 -127.548 738.512 Q -127.575 738.517 -127.601 738.522 Q -127.628 738.527 -127.655 738.531 Q -127.681 738.535 -127.708 738.539 Q -127.735 738.542 -127.762 738.545 Q -127.789 738.548 -127.816 738.551 Q -127.843 738.553 -127.870 738.554 Q -127.897 738.556 -127.924 738.557 Q -127.951 738.558 -127.978 738.558 Q -128.005 738.558 -128.032 738.558 Q -128.059 738.558 -128.086 738.557 Q -128.113 738.556 -128.140 738.554 Q -128.167 738.552 -128.194 738.550 Q -128.221 738.548 -128.248 738.545 Q -128.275 738.542 -128.302 738.538 Q -128.328 738.534 -128.355 738.530 Q -128.382 738.526 -128.408 738.521 Q -128.435 738.516 -128.462 738.510 Q -128.488 738.505 -128.515 738.499 Q -128.541 738.493 -128.567 738.486 Q -128.594 738.479 -128.620 738.471 Q -128.646 738.464 -128.672 738.456 Q -128.698 738.448 -128.723 738.439 Q -128.749 738.430 -128.775 738.421 Q -128.800 738.411 -128.826 738.402 Q -128.851 738.392 -128.876 738.381 Q -128.901 738.370 -128.926 738.359 Q -128.951 738.348 -128.976 738.336 Q -129.001 738.325 -129.025 738.312 Q -129.050 738.300 -129.074 738.287 Q -129.098 738.274 -129.122 738.260 Q -129.146 738.247 -129.169 738.233 Q -129.193 738.219 -129.216 738.204 Q -129.239 738.189 -129.262 738.174 Q -129.285 738.159 -129.308 738.143 Q -129.331 738.127 -129.353 738.111 Q -129.375 738.095 -129.397 738.078 Q -129.419 738.061 -129.441 738.043 Q -129.462 738.026 -129.484 738.008 Q -129.505 737.990 -129.526 737.972 Q -129.546 737.953 -129.567 737.934 Q -129.587 737.915 -129.607 737.896 Q -129.627 737.877 -129.647 737.857 Q -129.667 737.837 -129.686 737.816 Q -129.705 737.796 -129.724 737.775 Q -129.742 737.755 -129.761 737.733 Q -129.779 737.712 -129.797 737.690 Q -129.815 737.669 -129.832 737.646 Q -129.850 737.624 -129.866 737.602 Q -129.883 737.579 -129.900 737.556 Q -129.916 737.533 -129.932 737.510 Q -129.948 737.487 -129.964 737.463 Q -129.979 737.439 -129.994 737.415 Q -130.009 737.391 -130.023 737.367 Q -130.038 737.342 -130.052 737.317 Q -130.066 737.293 -130.079 737.268 Q -130.092 737.242 -130.105 737.217 Q -130.118 737.192 -130.130 737.166 Q -130.143 737.140 -130.154 737.114 Q -130.166 737.088 -130.177 737.062 Q -130.189 737.035 -130.199 737.009 Q -130.210 736.982 -130.220 736.955 Q -130.230 736.929 -130.240 736.902 Q -130.249 736.875 -130.258 736.847 Q -130.267 736.820 -130.275 736.792 Q -130.284 736.765 -130.292 736.737 Q -130.299 736.710 -130.306 736.682 Q -130.314 736.654 -130.320 736.626 Q -130.327 736.598 -130.333 736.570 Q -130.339 736.541 -130.344 736.513 Q -130.350 736.485 -130.355 736.456 Q -130.359 736.428 -130.364 736.399 Q -130.368 736.371 -130.371 736.342 Q -130.375 736.313 -130.378 736.285 Q -130.381 736.256 -130.383 736.227 Q -130.386 736.198 -130.387 736.170 Q -130.389 736.141 -130.390 736.112 Q -130.392 736.083 -130.392 736.054 Q -130.393 736.025 -130.393 735.996 Q -130.393 735.967 -130.392 735.938 Q -130.391 735.909 -130.390 735.881 Q -130.389 735.852 -130.387 735.823 Q -130.385 735.794 -130.382 735.765 Q -130.380 735.737 -130.377 735.708 Q -130.374 735.679 -130.370 735.650 Q -130.366 735.622 -130.362 735.593 Q -130.358 735.565 -130.353 735.536 Q -130.348 735.508 -130.342 735.479 Q -130.337 735.451 -130.331 735.423 Q -130.325 735.395 -130.318 735.367 Q -130.311 735.339 -130.304 735.311 Q -130.297 735.283 -130.289 735.255 Q -130.281 735.228 -130.272 735.200 Q -130.264 735.173 -130.255 735.146 Q -130.246 735.118 -130.236 735.091 Q -130.227 735.064 -130.216 735.038 Q -130.206 735.011 -130.195 734.984 Q -130.185 734.958 -130.173 734.931 Q -130.162 734.905 -130.150 734.879 Q -130.138 734.853 -130.126 734.828 Q -130.114 734.802 -130.101 734.776 Q -130.088 734.751 -130.074 734.726 Q -130.061 734.701 -130.047 734.676 Q -130.033 734.651 -130.018 734.627 Q -130.004 734.603 -129.989 734.579 Q -129.974 734.555 -129.958 734.531 Q -129.942 734.507 -129.926 734.484 Q -129.910 734.461 -129.894 734.438 Q -129.877 734.415 -129.860 734.392 Q -129.843 734.370 -129.826 734.348 Q -129.808 734.326 -129.790 734.304 Q -129.773 734.282 -129.754 734.261 Q -129.736 734.240 -129.717 734.219 Q -129.698 734.199 -129.679 734.178 Q -129.660 734.158 -129.640 734.138 Q -129.620 734.118 -129.600 734.099 Q -129.580 734.080 -129.559 734.061 Q -129.539 734.042 -129.518 734.024 Q -129.497 734.005 -129.476 733.987 Q -129.455 733.969 -129.433 733.952 Q -129.411 733.935 -129.389 733.918 Q -129.367 733.901 -129.345 733.885 Q -129.322 733.869 -129.300 733.853 Q -129.277 733.837 -129.254 733.822 Q -129.231 733.807 -129.208 733.792 Q -129.184 733.778 -129.161 733.764 Q -129.137 733.750 -129.113 733.736 Q -129.089 733.723 -129.065 733.710 Q -129.041 733.697 -129.016 733.685 Q -128.992 733.672 -128.967 733.661 Q -128.942 733.649 -128.917 733.638 Q -128.892 733.627 -128.867 733.616 Q -128.842 733.606 -128.817 733.596 Q -128.791 733.586 -128.766 733.577 Q -128.740 733.568 -128.714 733.559 Q -128.688 733.550 -128.662 733.542 Q -128.636 733.534 -128.610 733.527 Q -128.584 733.519 -128.558 733.513 Q -128.531 733.506 -128.505 733.500 Q -128.479 733.494 -128.452 733.488 Q -128.425 733.483 -128.399 733.478 Q -128.372 733.473 -128.345 733.469 Q -128.319 733.465 -128.292 733.461 Q -128.265 733.458 -128.238 733.455 Q -128.211 733.452 -128.184 733.450 Q -128.157 733.447 -128.130 733.446 Q -128.103 733.444 -128.076 733.443 Z"></path>
    <path id="STROKE_11e34ec1-29b2-4b9e-bfaf-8d9ee8abedb0" opacity="1.000" fill="none" stroke="#f6ffd2" stroke-width="2.048" stroke-opacity="1.000" stroke-linecap="round" stroke-linejoin="round" d="M -224.076 765.443 Q -224.049 765.442 -224.022 765.442 Q -223.995 765.442 -223.968 765.442 Q -223.941 765.442 -223.914 765.443 Q -223.887 765.444 -223.860 765.446 Q -223.833 765.448 -223.806 765.450 Q -223.779 765.452 -223.752 765.455 Q -223.725 765.458 -223.699 765.462 Q -223.672 765.466 -223.645 765.470 Q -223.618 765.474 -223.592 765.479 Q -223.565 765.484 -223.538 765.490 Q -223.512 765.495 -223.485 765.501 Q -223.459 765.508 -223.433 765.514 Q -223.407 765.521 -223.380 765.529 Q -223.354 765.536 -223.328 765.544 Q -223.302 765.552 -223.277 765.561 Q -223.251 765.570 -223.225 765.579 Q -223.200 765.589 -223.174 765.598 Q -223.149 765.608 -223.124 765.619 Q -223.099 765.630 -223.074 765.641 Q -223.049 765.652 -223.024 765.664 Q -222.999 765.675 -222.975 765.688 Q -222.950 765.700 -222.926 765.713 Q -222.902 765.726 -222.878 765.740 Q -222.854 765.753 -222.831 765.767 Q -222.807 765.781 -222.784 765.796 Q -222.761 765.811 -222.738 765.826 Q -222.715 765.841 -222.692 765.857 Q -222.669 765.873 -222.647 765.889 Q -222.625 765.906 -222.603 765.922 Q -222.581 765.939 -222.559 765.957 Q -222.538 765.974 -222.517 765.992 Q -222.495 766.010 -222.474 766.028 Q -222.454 766.047 -222.433 766.066 Q -222.413 766.085 -222.393 766.104 Q -222.373 766.123 -222.353 766.143 Q -222.333 766.163 -222.314 766.184 Q -222.295 766.204 -222.276 766.225 Q -222.258 766.246 -222.239 766.267 Q -222.221 766.288 -222.203 766.310 Q -222.185 766.331 -222.168 766.354 Q -222.150 766.376 -222.134 766.398 Q -222.117 766.421 -222.100 766.444 Q -222.084 766.467 -222.068 766.490 Q -222.052 766.513 -222.036 766.537 Q -222.021 766.561 -222.006 766.585 Q -221.991 766.609 -221.977 766.633 Q -221.962 766.658 -221.948 766.683 Q -221.934 766.707 -221.921 766.733 Q -221.908 766.758 -221.895 766.783 Q -221.882 766.808 -221.870 766.834 Q -221.857 766.860 -221.846 766.886 Q -221.834 766.912 -221.823 766.938 Q -221.811 766.965 -221.801 766.991 Q -221.790 767.018 -221.780 767.045 Q -221.770 767.071 -221.760 767.099 Q -221.751 767.126 -221.742 767.153 Q -221.733 767.180 -221.725 767.208 Q -221.716 767.235 -221.709 767.263 Q -221.701 767.290 -221.694 767.318 Q -221.686 767.346 -221.680 767.374 Q -221.673 767.402 -221.667 767.430 Q -221.661 767.459 -221.656 767.487 Q -221.650 767.515 -221.646 767.544 Q -221.641 767.572 -221.637 767.601 Q -221.632 767.629 -221.629 767.658 Q -221.625 767.687 -221.622 767.715 Q -221.619 767.744 -221.617 767.773 Q -221.614 767.802 -221.613 767.830 Q -221.611 767.859 -221.610 767.888 Q -221.608 767.917 -221.608 767.946 Q -221.607 767.975 -221.607 768.004 Q -221.607 768.033 -221.608 768.062 Q -221.609 768.091 -221.610 768.119 Q -221.611 768.148 -221.613 768.177 Q -221.615 768.206 -221.618 768.235 Q -221.620 768.263 -221.623 768.292 Q -221.626 768.321 -221.630 768.350 Q -221.634 768.378 -221.638 768.407 Q -221.642 768.435 -221.647 768.464 Q -221.652 768.492 -221.658 768.521 Q -221.663 768.549 -221.669 768.577 Q -221.675 768.605 -221.682 768.633 Q -221.689 768.661 -221.696 768.689 Q -221.703 768.717 -221.711 768.744 Q -221.719 768.772 -221.728 768.800 Q -221.736 768.827 -221.745 768.854 Q -221.754 768.882 -221.764 768.909 Q -221.773 768.936 -221.784 768.962 Q -221.794 768.989 -221.805 769.016 Q -221.815 769.042 -221.827 769.069 Q -221.838 769.095 -221.850 769.121 Q -221.862 769.147 -221.874 769.172 Q -221.887 769.198 -221.899 769.224 Q -221.912 769.249 -221.926 769.274 Q -221.939 769.299 -221.953 769.324 Q -221.967 769.349 -221.982 769.373 Q -221.996 769.397 -222.011 769.421 Q -222.026 769.445 -222.042 769.469 Q -222.058 769.493 -222.074 769.516 Q -222.090 769.539 -222.106 769.562 Q -222.123 769.585 -222.140 769.608 Q -222.157 769.630 -222.174 769.652 Q -222.192 769.674 -222.210 769.696 Q -222.227 769.718 -222.246 769.739 Q -222.264 769.760 -222.283 769.781 Q -222.302 769.801 -222.321 769.822 Q -222.340 769.842 -222.360 769.862 Q -222.380 769.882 -222.400 769.901 Q -222.420 769.920 -222.441 769.939 Q -222.461 769.958 -222.482 769.977 Q -222.503 769.995 -222.524 770.013 Q -222.545 770.031 -222.567 770.048 Q -222.589 770.065 -222.611 770.082 Q -222.633 770.099 -222.655 770.115 Q -222.678 770.131 -222.700 770.147 Q -222.723 770.163 -222.746 770.178 Q -222.769 770.193 -222.792 770.208 Q -222.816 770.222 -222.839 770.236 Q -222.863 770.250 -222.887 770.264 Q -222.911 770.277 -222.935 770.290 Q -222.959 770.303 -222.984 770.315 Q -223.008 770.328 -223.033 770.339 Q -223.058 770.351 -223.083 770.362 Q -223.108 770.373 -223.133 770.384 Q -223.158 770.394 -223.183 770.404 Q -223.209 770.414 -223.234 770.423 Q -223.260 770.433 -223.286 770.441 Q -223.312 770.450 -223.338 770.458 Q -223.364 770.466 -223.390 770.473 Q -223.416 770.481 -223.442 770.487 Q -223.469 770.494 -223.495 770.500 Q -223.521 770.506 -223.548 770.512 Q -223.575 770.517 -223.601 770.522 Q -223.628 770.527 -223.655 770.531 Q -223.681 770.535 -223.708 770.539 Q -223.735 770.542 -223.762 770.545 Q -223.789 770.548 -223.816 770.551 Q -223.843 770.553 -223.870 770.554 Q -223.897 770.556 -223.924 770.557 Q -223.951 770.558 -223.978 770.558 Q -224.005 770.558 -224.032 770.558 Q -224.059 770.558 -224.086 770.557 Q -224.113 770.556 -224.140 770.554 Q -224.167 770.552 -224.194 770.550 Q -224.221 770.548 -224.248 770.545 Q -224.275 770.542 -224.301 770.538 Q -224.328 770.534 -224.355 770.530 Q -224.382 770.526 -224.408 770.521 Q -224.435 770.516 -224.462 770.510 Q -224.488 770.505 -224.515 770.499 Q -224.541 770.492 -224.567 770.486 Q -224.594 770.479 -224.620 770.471 Q -224.646 770.464 -224.672 770.456 Q -224.698 770.448 -224.723 770.439 Q -224.749 770.430 -224.775 770.421 Q -224.800 770.411 -224.826 770.401 Q -224.851 770.392 -224.876 770.381 Q -224.901 770.370 -224.926 770.359 Q -224.951 770.348 -224.976 770.336 Q -225.001 770.325 -225.025 770.312 Q -225.050 770.300 -225.074 770.287 Q -225.098 770.274 -225.122 770.260 Q -225.146 770.247 -225.169 770.233 Q -225.193 770.219 -225.216 770.204 Q -225.239 770.189 -225.262 770.174 Q -225.285 770.159 -225.308 770.143 Q -225.331 770.127 -225.353 770.111 Q -225.375 770.094 -225.397 770.078 Q -225.419 770.061 -225.441 770.043 Q -225.462 770.026 -225.483 770.008 Q -225.505 769.990 -225.526 769.972 Q -225.546 769.953 -225.567 769.934 Q -225.587 769.915 -225.607 769.896 Q -225.627 769.877 -225.647 769.857 Q -225.667 769.837 -225.686 769.817 Q -225.705 769.796 -225.724 769.775 Q -225.742 769.755 -225.761 769.733 Q -225.779 769.712 -225.797 769.690 Q -225.815 769.669 -225.832 769.646 Q -225.850 769.624 -225.866 769.602 Q -225.883 769.579 -225.900 769.556 Q -225.916 769.533 -225.932 769.510 Q -225.948 769.487 -225.964 769.463 Q -225.979 769.439 -225.994 769.415 Q -226.009 769.391 -226.023 769.367 Q -226.038 769.342 -226.052 769.317 Q -226.066 769.293 -226.079 769.267 Q -226.092 769.242 -226.105 769.217 Q -226.118 769.192 -226.130 769.166 Q -226.143 769.140 -226.154 769.114 Q -226.166 769.088 -226.177 769.062 Q -226.189 769.035 -226.199 769.009 Q -226.210 768.982 -226.220 768.955 Q -226.230 768.929 -226.240 768.902 Q -226.249 768.875 -226.258 768.847 Q -226.267 768.820 -226.275 768.792 Q -226.284 768.765 -226.292 768.737 Q -226.299 768.710 -226.306 768.682 Q -226.314 768.654 -226.320 768.626 Q -226.327 768.598 -226.333 768.570 Q -226.339 768.541 -226.344 768.513 Q -226.350 768.485 -226.354 768.456 Q -226.359 768.428 -226.364 768.399 Q -226.368 768.371 -226.371 768.342 Q -226.375 768.313 -226.378 768.285 Q -226.381 768.256 -226.383 768.227 Q -226.386 768.198 -226.387 768.170 Q -226.389 768.141 -226.390 768.112 Q -226.392 768.083 -226.392 768.054 Q -226.393 768.025 -226.393 767.996 Q -226.393 767.967 -226.392 767.938 Q -226.391 767.909 -226.390 767.881 Q -226.389 767.852 -226.387 767.823 Q -226.385 767.794 -226.382 767.765 Q -226.380 767.737 -226.377 767.708 Q -226.374 767.679 -226.370 767.650 Q -226.366 767.622 -226.362 767.593 Q -226.358 767.565 -226.353 767.536 Q -226.348 767.508 -226.342 767.479 Q -226.337 767.451 -226.331 767.423 Q -226.325 767.395 -226.318 767.367 Q -226.311 767.339 -226.304 767.311 Q -226.297 767.283 -226.289 767.255 Q -226.281 767.228 -226.272 767.200 Q -226.264 767.173 -226.255 767.146 Q -226.246 767.118 -226.236 767.091 Q -226.227 767.064 -226.216 767.038 Q -226.206 767.011 -226.195 766.984 Q -226.185 766.958 -226.173 766.931 Q -226.162 766.905 -226.150 766.879 Q -226.138 766.853 -226.126 766.828 Q -226.113 766.802 -226.101 766.776 Q -226.088 766.751 -226.074 766.726 Q -226.061 766.701 -226.047 766.676 Q -226.033 766.651 -226.018 766.627 Q -226.004 766.603 -225.989 766.579 Q -225.974 766.555 -225.958 766.531 Q -225.942 766.507 -225.926 766.484 Q -225.910 766.461 -225.894 766.438 Q -225.877 766.415 -225.860 766.392 Q -225.843 766.370 -225.826 766.348 Q -225.808 766.326 -225.790 766.304 Q -225.772 766.282 -225.754 766.261 Q -225.736 766.240 -225.717 766.219 Q -225.698 766.198 -225.679 766.178 Q -225.660 766.158 -225.640 766.138 Q -225.620 766.118 -225.600 766.099 Q -225.580 766.080 -225.559 766.061 Q -225.539 766.042 -225.518 766.024 Q -225.497 766.005 -225.476 765.987 Q -225.455 765.969 -225.433 765.952 Q -225.411 765.935 -225.389 765.918 Q -225.367 765.901 -225.345 765.885 Q -225.322 765.869 -225.300 765.853 Q -225.277 765.837 -225.254 765.822 Q -225.231 765.807 -225.208 765.792 Q -225.184 765.778 -225.161 765.764 Q -225.137 765.750 -225.113 765.736 Q -225.089 765.723 -225.065 765.710 Q -225.041 765.697 -225.016 765.685 Q -224.992 765.672 -224.967 765.661 Q -224.942 765.649 -224.917 765.638 Q -224.892 765.627 -224.867 765.616 Q -224.842 765.606 -224.817 765.596 Q -224.791 765.586 -224.766 765.577 Q -224.740 765.568 -224.714 765.559 Q -224.688 765.550 -224.662 765.542 Q -224.636 765.534 -224.610 765.527 Q -224.584 765.519 -224.558 765.513 Q -224.531 765.506 -224.505 765.500 Q -224.479 765.494 -224.452 765.488 Q -224.425 765.483 -224.399 765.478 Q -224.372 765.473 -224.345 765.469 Q -224.319 765.465 -224.292 765.461 Q -224.265 765.458 -224.238 765.455 Q -224.211 765.452 -224.184 765.449 Q -224.157 765.447 -224.130 765.446 Q -224.103 765.444 -224.076 765.443 Z"></path>
    <path id="STROKE_c5d299ea-a623-4038-9bb5-ae0b57d946e6" opacity="1.000" fill="none" stroke="#f6ffd2" stroke-width="0.517" stroke-opacity="1.000" stroke-linecap="round" stroke-linejoin="round" d="M -160.555 864.186 L -255.862 896.257 "></path>
    <path id="STROKE_2424a1f8-405d-43d5-b3a8-57f2dc55b1a1" opacity="1.000" fill="none" stroke="#f6ffd2" stroke-width="0.517" stroke-opacity="1.000" stroke-linecap="round" stroke-linejoin="round" d="M -223.661 768.510 L -160.394 863.613 "></path>
    <path id="STROKE_3bafff6d-3d77-42ba-8650-d8f61b8e75f7" opacity="1.000" fill="none" stroke="#f6ffd2" stroke-width="0.517" stroke-opacity="1.000" stroke-linecap="round" stroke-linejoin="round" d="M -255.829 736.170 L -223.988 767.973 "></path>
    <path id="STROKE_9df87b8e-2cbf-41c0-b973-8050eb22e07e" opacity="1.000" fill="none" stroke="#f6ffd2" stroke-width="0.517" stroke-opacity="1.000" stroke-linecap="round" stroke-linejoin="round" d="M -223.649 767.634 L -160.339 704.338 "></path>
    <path id="STROKE_1e46a596-c7f3-498b-846a-a1650a72139f" opacity="1.000" fill="none" stroke="#f6ffd2" stroke-width="0.517" stroke-opacity="1.000" stroke-linecap="round" stroke-linejoin="round" d="M -223.478 767.803 L -128.510 736.169 "></path>
  </g>
</svg>